<svg xmlns="http://www.w3.org/2000/svg" viewBox="0 0 327.78 118.78"><defs><style>.cls-1{fill:#281b19;}.cls-2{fill:#527fc1;}.cls-3{fill:#446baa;}.cls-4{fill:#395691;}.cls-5{fill:#43669e;}.cls-6{fill:#1f3856;}.cls-7{fill:#ccc4b0;}.cls-8{fill:#afaa9c;}.cls-9{fill:#54b6cc;}.cls-10{fill:#63d3e5;}.cls-11{fill:#3496ad;}.cls-12{fill:#ffaa39;}.cls-13{fill:#f9f0c7;}.cls-14{fill:#3f2f2f;}.cls-15{fill:#4f4141;}.cls-16{fill:#1c1414;}.cls-17{fill:#352929;}.cls-18{fill:#e2c759;}.cls-19{fill:#efd978;}.cls-20{fill:#ffefae;}</style></defs><g id="Layer_2" data-name="Layer 2"><g id="_2" data-name="2"><path class="cls-1" d="M4.29,58H.08S-.81,69,3.4,76.8H8.51Z"/><path class="cls-2" d="M316.54,57.12C308.18,53.77,244.37,43,244.37,43l-2.74,4.2,78.19,14.13Z"/><polygon class="cls-1" points="314.5 96.51 22.55 96.51 32.21 110.47 298.99 110.47 314.5 96.51"/><path class="cls-3" d="M322.12,60.59c-8.81-6.13-84.64-15.27-84.64-15.27S191.83,5.59,184.61,2.63C177.92-.12,70.3-1.22,59.75,1.82,45.71,5.87,2.18,29.18,2.18,62.11c0,24.73,20.56,43.06,20.56,43.06H323.66S330.05,66.1,322.12,60.59Z"/><path class="cls-2" d="M322.12,60.59a13.63,13.63,0,0,0-3.1-1.44S26.26,46.28,6,45.34a40.19,40.19,0,0,0-3.8,16.77c0,24.73,20.56,43.06,20.56,43.06H323.66S330.05,66.1,322.12,60.59Z"/><path class="cls-4" d="M3.6,51.83A38.65,38.65,0,0,0,2.18,62.11c0,24.73,20.56,43.06,20.56,43.06H323.66s5.94-36.33-.75-43.86Z"/><polygon class="cls-5" points="226.5 58.44 163.65 56.58 93.68 102.47 161.82 102.47 226.5 58.44"/><path class="cls-3" d="M278.57,62.24C261.3,60.56,245.81,72,244,87.75a26.67,26.67,0,0,0,4.45,18h53.64a27,27,0,0,0,4.44-11.94C308.33,78.08,295.83,63.93,278.57,62.24Z"/><path class="cls-3" d="M56.1,62.35c-16.44-1.64-31,9.18-32.8,24.75a28.82,28.82,0,0,0,4.47,18.73l54.28.52A27.06,27.06,0,0,0,85.49,93.8C85.92,77.82,72.69,64,56.1,62.35Z"/><polygon class="cls-6" points="209.44 98.63 136.4 98.63 136.07 39.52 137.78 39.52 138.28 97.63 207.54 97.63 214.22 43.06 215.21 43.16 209.44 98.63"/><path class="cls-6" d="M131.46,98.63H86.86l.06-.56c2.15-18.69-4.72-31.59-18.37-34.52l-.46-.09,3.24-27.12,2,.14L69.71,62.42c13.57,3.16,20.89,16.74,19,35.21h41.41l.06-58.11h1.52Z"/><path class="cls-7" d="M325,90.21H292.94l-2.54,17.28h33.32c1.29,0,2.41-1.36,2.69-3.28l1.3-8.88C328.1,92.7,326.79,90.21,325,90.21Z"/><path class="cls-8" d="M309,101.36c-1.77,0-3.07-2.49-2.69-5.11l.89-6H292.94l-2.54,17.28h33.32c1.29,0,2.41-1.36,2.69-3.28l.42-2.85Z"/><path class="cls-7" d="M12.12,91.71H43.26L52.77,108H21.31c-2.71,0-5.66-2.28-7.88-6.08l-2.15-3.68C9.65,95.45,10.13,91.71,12.12,91.71Z"/><path class="cls-8" d="M43.26,91.71H24.73A2.92,2.92,0,0,1,25.06,93c0,3.24-5.75,5.87-12.85,5.87h-.56l1.78,3c2.22,3.8,5.17,6.08,7.88,6.08H52.77Z"/><path class="cls-6" d="M246.39,46.45l-199.19-8a10.29,10.29,0,0,1-8-4.83,7.47,7.47,0,0,1-.41-6.39c6-12.89,23-19.44,24.89-20.06C71,4.87,180.17,8.1,192.6,8.39l.52,0,.41.32c5.13,4.21,10.22,8.28,15.14,12.21,9.56,7.64,20.56,16.14,29.6,24.09Z"/><path class="cls-9" d="M48.35,36.13l189.74,8.75c-13.9-12.11-28.12-22.77-43.18-35,0,0-122.43-2.84-129.71-.51C59.12,11.33,48,17.53,43.11,28A5.86,5.86,0,0,0,48.35,36.13Z"/><path class="cls-10" d="M125.86,12.79C110.73,12.62,96,12.54,85,12.65L81.39,28.49l44.47,1.93Z"/><path class="cls-10" d="M180.51,13.6c-9.37-.18-21.92-.4-35.24-.59V31.18l46.22,2Z"/><path class="cls-10" d="M210,33.76l14.26.84c-9-6.79-16.18-13.44-25.67-20.68,0,0-3,0-4.8-.06Z"/><path class="cls-11" d="M81.42,10.29c32-.49,108.06,1,115.34,1.09l-2.65-2.14S71.74,6.45,64.47,8.78c-6.09,2-18.09,8.75-23,19.24-1.51,3.23,1.93,8.59,6.52,8.8L238.27,45c-1.21-1.06-2-1.73-3.26-2.79L75.64,36.07S78.7,17.68,81.42,10.29Z"/><polygon class="cls-11" points="193.58 9.85 185.02 9.85 212.13 43.22 224.86 43.22 193.58 9.85"/><polygon class="cls-3" points="186.13 3.89 182.55 3.89 216.73 45.94 224.48 45.94 186.13 3.89"/><polygon class="cls-11" points="77.64 8.75 68.66 8.39 64.19 37.1 73.16 37.45 77.64 8.75"/><polygon class="cls-11" points="137.51 9.22 129.78 8.92 130.22 39.05 137.95 39.36 137.51 9.22"/><polygon class="cls-3" points="136.18 4.13 131.75 3.95 131.63 44.63 136.06 44.8 136.18 4.13"/><polygon class="cls-3" points="75.5 5.61 71.47 5.6 64.18 43.21 70.37 43.22 75.5 5.61"/><rect class="cls-7" x="73.25" y="101.45" width="187.2" height="5.62"/><path class="cls-1" d="M58.35,65.92a27.73,27.73,0,0,0-30.42,24.9,28.18,28.18,0,0,0,3.91,17.61H79A28.17,28.17,0,0,0,58.35,65.92Z"/><path class="cls-1" d="M279.13,65.92a27.73,27.73,0,0,0-30.42,24.9,28.18,28.18,0,0,0,3.91,17.61h47.16a28.17,28.17,0,0,0-20.65-42.51Z"/><polygon class="cls-6" points="162.8 45.77 141.86 44.75 141.86 52.41 156.97 52.41 162.8 45.77"/><polygon class="cls-3" points="162.12 45.03 144.34 44.25 144.34 50.11 157.17 50.11 162.12 45.03"/><polygon class="cls-6" points="96.02 43.99 75.08 42.96 75.08 50.63 90.19 50.63 96.02 43.99"/><polygon class="cls-3" points="95.33 43.24 77.56 42.46 77.56 48.32 90.39 48.32 95.33 43.24"/><polygon class="cls-6" points="236.79 42.34 222.16 43.4 224.17 45.61 243.47 45.84 236.79 42.34"/><path class="cls-7" d="M324.63,66.37h-9.15l3.36,14.82h6.35A43.83,43.83,0,0,0,324.63,66.37Z"/><polygon class="cls-6" points="310.93 66.37 301.56 66.37 304.88 70.72 310.93 70.72 310.93 66.37"/><polygon class="cls-12" points="309.7 67.15 303.68 67.15 305.81 69.94 309.7 69.94 309.7 67.15"/><path class="cls-13" d="M325.08,73a47.08,47.08,0,0,0-.7-5.8H317l1.22,5.8Z"/><path class="cls-13" d="M318.65,74.9l1.08,5.18h5.1a36.19,36.19,0,0,0,.31-5.18Z"/><polygon class="cls-6" points="16.89 59.22 7.53 59.22 7.53 64.67 15.02 64.67 16.89 59.22"/><polygon class="cls-13" points="14.64 60.33 8.04 60.33 8.04 63.65 13.32 63.65 14.64 60.33"/><ellipse class="cls-14" cx="276.19" cy="93.8" rx="24.63" ry="24.98"/><ellipse class="cls-15" cx="276.19" cy="93.8" rx="22.82" ry="23.14"/><ellipse class="cls-16" cx="276.19" cy="93.8" rx="17.42" ry="17.67"/><ellipse class="cls-17" cx="276.19" cy="95.16" rx="15.94" ry="16.16"/><path class="cls-16" d="M277.5,83.25A12.49,12.49,0,1,0,288.44,97,12.36,12.36,0,0,0,277.5,83.25Z"/><path class="cls-18" d="M277.38,82.55A11.31,11.31,0,1,0,287.28,95,11.19,11.19,0,0,0,277.38,82.55Z"/><path class="cls-19" d="M277.23,84.15A9.87,9.87,0,1,0,285.87,95,9.76,9.76,0,0,0,277.23,84.15Z"/><path class="cls-20" d="M277.2,88.07A9.36,9.36,0,0,1,283.83,92a7.68,7.68,0,0,0-15.29,0A9.39,9.39,0,0,1,277.2,88.07Z"/><ellipse class="cls-14" cx="55.54" cy="93.8" rx="24.63" ry="24.98"/><ellipse class="cls-15" cx="55.54" cy="93.8" rx="22.82" ry="23.14"/><ellipse class="cls-16" cx="55.54" cy="93.8" rx="17.42" ry="17.67"/><ellipse class="cls-17" cx="55.54" cy="95.16" rx="15.94" ry="16.16"/><path class="cls-16" d="M56.85,83.25A12.49,12.49,0,1,0,67.78,97,12.36,12.36,0,0,0,56.85,83.25Z"/><path class="cls-18" d="M56.73,82.55A11.31,11.31,0,1,0,66.63,95,11.18,11.18,0,0,0,56.73,82.55Z"/><path class="cls-19" d="M56.58,84.15A9.87,9.87,0,1,0,65.22,95,9.77,9.77,0,0,0,56.58,84.15Z"/><path class="cls-20" d="M56.54,88.07A9.38,9.38,0,0,1,63.18,92a7.68,7.68,0,0,0-15.29,0A9.38,9.38,0,0,1,56.54,88.07Z"/></g></g></svg>