<svg xmlns="http://www.w3.org/2000/svg" viewBox="0 0 291.28 131.67"><defs><style>.cls-1{fill:#ffae39;}.cls-2{fill:#2d2022;}.cls-3{fill:#87e2ff;}.cls-4{fill:#00b1d9;}.cls-5{fill:#0ac4ff;}.cls-6{fill:#443335;}.cls-7{fill:#e5e5e5;}.cls-8{fill:#999;}.cls-9{fill:#23171a;}.cls-10{fill:#2c8ea8;}.cls-11{fill:#51a8bf;}.cls-12{fill:#dbf8ff;}.cls-13{fill:#020100;}.cls-14{fill:#333;}.cls-15{fill:#787878;}.cls-16{fill:#c4c4c4;}.cls-17{fill:#f5f5f5;}.cls-18{fill:#fff;}.cls-19{fill:#666;}</style></defs><g id="Layer_2" data-name="Layer 2"><g id="_2" data-name="2"><rect class="cls-1" x="164.53" y="72.53" height="0.51"/><rect class="cls-2" x="60.95" y="89.51" width="143.38" height="26.26"/><path class="cls-3" d="M280.21,64.4C147.17-52.5,3.1,26.23,3.1,26.23V61.91l11.77,44.54,15.54,9.84,36.4-12,147.74,12H269.2l11.14-4.69S295.47,77.81,280.21,64.4Z"/><path class="cls-4" d="M286.89,83.09c.06-7.17-1.49-14.26-6.81-18.69C143.86-49,4.78,28.55,4.78,28.55L12,51C48.65,34.76,161.5,6,286.89,83.09Z"/><polygon class="cls-5" points="219.47 54.35 161.06 102.35 98.15 90.56 152.94 48.87 219.47 54.35"/><path class="cls-5" d="M277.45,80.18c5.62,4.94,7.11,12.64,6.76,20.41,3.14-11.09,5.65-27.71-4-36.19C147.17-52.5,3.1,26.23,3.1,26.23V40.61C23.62,30.54,155.19-27.24,277.45,80.18Z"/><path class="cls-4" d="M243.54,72.34c-17.59-1.84-33.3,9.48-35.18,26.73-.56,5.21-.1,12.34,1.73,16.9l.26,0H269.6l.16-.08a31.12,31.12,0,0,0,2-8.06C273.64,90.59,261.13,74.19,243.54,72.34Z"/><path class="cls-6" d="M97.09,91.54h0A79.61,79.61,0,0,0,30.91,58.71l-.88,0L10.43,22.79,3.1,26.23V61.91l9.57,44.31L30.2,117.64,68.13,105.2l145.23,12.07h54.86l12.12-6.52.31-1.19-65.49,3.19Z"/><path class="cls-5" d="M28.38,85H8.6a2.57,2.57,0,0,0-2.55,3.19l4.15,15.56a9.49,9.49,0,0,0,9.24,6.94h0Z"/><path class="cls-7" d="M285.5,113.08,290.8,100c1.34-3.33-.27-6.81-3.13-6.81h-21.3l2.95,24.06,12.1-.75A5.07,5.07,0,0,0,285.5,113.08Z"/><path class="cls-8" d="M286.3,109.66l-9.76.76-4.45-17.26h-5.72l2.95,24.06,12.1-.75a5.07,5.07,0,0,0,4.08-3.39l1.42-3.52A3.21,3.21,0,0,1,286.3,109.66Z"/><path class="cls-4" d="M69.88,104.9l12.93,1.6C83.3,89.37,72.12,73.56,55,71,37.1,68.34,19.6,81.27,17.69,99.42a46.81,46.81,0,0,0,.68,11.12l10.85,6.08Z"/><path class="cls-2" d="M68.13,105.2l12.06,1.47c.46-16-11.27-30.33-27.2-32.06a30.58,30.58,0,0,0-33.54,27.45,31.32,31.32,0,0,0,.31,8.78l10.44,6.8Z"/><path class="cls-9" d="M244.18,76.53a30.29,30.29,0,0,0-33.46,26.61,29.4,29.4,0,0,0,1.92,14.11l.25,0h56.25l.15-.07a29.68,29.68,0,0,0,1.9-7.69A30.08,30.08,0,0,0,244.18,76.53Z"/><path class="cls-6" d="M219.73,55.48l-.37,0L92.2,43.5,54.1,7.77C142.33-14.51,214.83,15.67,249.45,41Z"/><path class="cls-10" d="M65.15,9.51,93.57,38,220,52l25.84-12.3C181.82-1.94,109.83-3.21,65.15,9.51Z"/><path class="cls-3" d="M69.62,10.63,96.84,37.88,218,51.37,242.7,39.58C181.38-.34,112.42-1.56,69.62,10.63Z"/><path class="cls-11" d="M95.57,37.19,218.05,50.83l19.89-9.47C180.22,9,117.91,8.09,77.41,19Z"/><path class="cls-10" d="M221.58,48.69,97.93,34.91,69,8.46c-1.31.34-2.61.69-3.88,1L93.57,38,220,52l25.84-12.3c-.78-.51-1.57-1-2.36-1.48Z"/><polygon class="cls-6" points="197.43 111.53 196.52 111.36 96.02 92.52 90.63 39.71 93.95 40.09 98.15 90.56 196.03 108.91 219.74 53.74 224.52 52.59 197.43 111.53"/><polygon class="cls-10" points="206.69 47.7 194.22 15.33 196.72 16.1 211.08 48.03 206.69 47.7"/><polygon class="cls-10" points="89.07 31.88 86.72 5.45 91.06 5.24 95.28 36.39 89.07 31.88"/><polygon class="cls-10" points="97.7 36.44 93.9 4.52 97.06 4.77 102.11 36.91 97.7 36.44"/><path class="cls-12" d="M185,12.89l2.54,3.58a221.28,221.28,0,0,1,45.58,19l1.18-.55A211.88,211.88,0,0,0,185,12.89Z"/><path class="cls-12" d="M150.65,5.6a196.64,196.64,0,0,0-48.07-.27V9.1a207.6,207.6,0,0,1,50.75.29Z"/><polygon class="cls-10" points="216.38 50.51 203.46 18.46 210.1 21.37 223.49 49.85 216.38 50.51"/><polygon class="cls-6" points="219.27 53.85 205.07 18.63 207.88 19.37 222.82 52.07 219.27 53.85"/><polygon class="cls-6" points="90.97 40.01 87.33 2.82 89.46 3.4 94.31 41.78 90.97 40.01"/><ellipse class="cls-13" cx="49.15" cy="105.34" rx="25.96" ry="26.33"/><path class="cls-14" d="M51.73,79.73C38.38,78.21,26.41,88.36,25,102.38S33.26,129,46.61,130.51s25.33-8.63,26.74-22.65S65.08,81.24,51.73,79.73Z"/><ellipse class="cls-15" cx="49.15" cy="105.34" rx="20.95" ry="21.25"/><path d="M51.45,83.49a22,22,0,1,0,19.24,24.19A21.74,21.74,0,0,0,51.45,83.49Zm18.71,24.13A21.14,21.14,0,1,1,51.39,84,21.22,21.22,0,0,1,70.16,107.62Z"/><path class="cls-16" d="M50.9,89.93c-9.07-1.05-17.19,5.94-18.15,15.6s5.62,18.34,14.69,19.38S64.63,119,65.59,109.32,60,91,50.9,89.93Z"/><path class="cls-17" d="M50,97.48a8.25,8.25,0,0,0-8.94,7.68,8.58,8.58,0,0,0,7.24,9.55A8.26,8.26,0,0,0,57.26,107,8.57,8.57,0,0,0,50,97.48Z"/><path class="cls-18" d="M49.66,100.48a4.89,4.89,0,1,0,4.28,5.38A4.83,4.83,0,0,0,49.66,100.48Z"/><path class="cls-7" d="M49.25,105.79l-.1.62-.11-.62-.19.28L45.34,127c.5.09,1,.19,1.5.24A21.44,21.44,0,0,0,53,127l-3.5-20.9Z"/><path class="cls-7" d="M49.15,105l.3-.43L53,83.73c-.5-.09-1-.19-1.5-.25a21.81,21.81,0,0,0-6.11.23l3.51,20.9Z"/><polygon class="cls-7" points="49.15 106.41 49.25 105.79 49.15 105.64 49.04 105.79 49.15 106.41"/><path class="cls-7" d="M48.7,105.44l-.62-.1.62-.1-.28-.2-20.6-3.46c-.08.47-.17.94-.22,1.42a22.13,22.13,0,0,0,.21,6.1l20.61-3.46Z"/><path class="cls-7" d="M49.45,105.34l.42.3,20.6,3.46c.08-.47.17-.94.22-1.42a22.13,22.13,0,0,0-.21-6.1L49.87,105Z"/><polygon class="cls-7" points="48.08 105.34 48.7 105.44 48.84 105.34 48.7 105.24 48.08 105.34"/><path class="cls-7" d="M48.7,105.24l.14.1.06,0-.51-.72.72.51,0,0-.3-.43L36.61,87.44a22,22,0,0,0-5.3,5.41L48.42,105Z"/><path class="cls-7" d="M49.45,105.34l-.18.13-.12.17.1.15.2.28,12.24,17.17A22.11,22.11,0,0,0,67,117.83L49.87,105.64Z"/><polygon class="cls-7" points="49.1 105.09 48.39 104.58 48.9 105.3 49.02 105.21 49.1 105.09"/><path class="cls-7" d="M49.15,105l0,0-.09.12.88-.63-.63.89.18-.13.42-.3L67,92.86a21.93,21.93,0,0,0-5.27-5.43L49.45,104.61Z"/><path class="cls-7" d="M49,105.79l.11-.15.12-.17.63-.89-.88.63-.12.09-.06,0-.14.1-.28.2L31.33,117.82a21.93,21.93,0,0,0,5.27,5.43l12.25-17.18Z"/><path class="cls-16" d="M39.88,92l-3.27-4.59a22,22,0,0,0-5.3,5.41l4,2.85A18.22,18.22,0,0,1,39.88,92Z"/><path class="cls-16" d="M48.87,89.65a17.9,17.9,0,0,1,3,.28l1-6.2c-.5-.09-1-.19-1.5-.25a21.81,21.81,0,0,0-6.11.23l1,6.14A17.21,17.21,0,0,1,48.87,89.65Z"/><path class="cls-16" d="M62.64,95.94,67,92.86a21.93,21.93,0,0,0-5.27-5.43l-3.44,4.83A18.72,18.72,0,0,1,62.64,95.94Z"/><path class="cls-16" d="M30.6,107.93a18.15,18.15,0,0,1,.93-5.73l-3.71-.62c-.08.47-.17.94-.22,1.42a22.13,22.13,0,0,0,.21,6.1l2.82-.47C30.62,108.39,30.6,108.16,30.6,107.93Z"/><path class="cls-16" d="M60.69,121.85l1,1.39A22.11,22.11,0,0,0,67,117.83l-2-1.39A18.37,18.37,0,0,1,60.69,121.85Z"/><path class="cls-16" d="M32.86,116.73l-1.53,1.09a21.93,21.93,0,0,0,5.27,5.43l.79-1.11A18.32,18.32,0,0,1,32.86,116.73Z"/><path class="cls-16" d="M70.48,101.58l-4.23.71a18.44,18.44,0,0,1,.89,5.64c0,.2,0,.4,0,.6l3.36.57c.08-.47.17-.94.22-1.42A22.13,22.13,0,0,0,70.48,101.58Z"/><path class="cls-16" d="M48.87,126.2a18.56,18.56,0,0,1-3.35-.32L45.34,127c.5.09,1,.19,1.5.24A21.44,21.44,0,0,0,53,127l-.2-1.19A18.38,18.38,0,0,1,48.87,126.2Z"/><ellipse class="cls-13" cx="241.81" cy="105.34" rx="25.96" ry="26.33"/><ellipse class="cls-14" cx="241.84" cy="105.12" rx="24.31" ry="25.54" transform="translate(-2.08 4.91) rotate(-1.16)"/><path class="cls-15" d="M244,84.21a21.25,21.25,0,1,0,18.61,23.39A21,21,0,0,0,244,84.21Z"/><path d="M244.12,83.49a22,22,0,1,0,19.24,24.19A21.74,21.74,0,0,0,244.12,83.49Zm18.71,24.13A21.14,21.14,0,1,1,244.06,84,21.22,21.22,0,0,1,262.83,107.62Z"/><path class="cls-16" d="M243.57,89.92a16.51,16.51,0,0,0-18.15,14.81,16.71,16.71,0,0,0,14.69,18.41,16.51,16.51,0,0,0,18.15-14.81A16.73,16.73,0,0,0,243.57,89.92Z"/><path class="cls-17" d="M242.69,97.48a8.24,8.24,0,0,0-8.94,7.68,8.58,8.58,0,0,0,7.24,9.55,8.25,8.25,0,0,0,8.93-7.69A8.56,8.56,0,0,0,242.69,97.48Z"/><path class="cls-18" d="M242.33,100.48a4.89,4.89,0,1,0,4.28,5.38A4.84,4.84,0,0,0,242.33,100.48Z"/><path class="cls-7" d="M241.92,105.79l-.11.62-.1-.62-.2.28L238,127c.5.09,1,.19,1.5.24a21.44,21.44,0,0,0,6.11-.22l-3.5-20.9Z"/><path class="cls-7" d="M241.81,105l.31-.43,3.5-20.88c-.5-.09-1-.19-1.5-.25a21.81,21.81,0,0,0-6.11.23l3.5,20.9Z"/><polygon class="cls-7" points="241.81 106.41 241.92 105.79 241.81 105.64 241.71 105.79 241.81 106.41"/><path class="cls-7" d="M241.36,105.44l-.61-.1.62-.1-.28-.2-20.6-3.46c-.08.47-.17.94-.22,1.42a22.13,22.13,0,0,0,.21,6.1l20.61-3.46Z"/><path class="cls-7" d="M242.12,105.34l.42.3,20.6,3.46c.08-.47.17-.94.22-1.42a22.13,22.13,0,0,0-.21-6.1L242.54,105Z"/><polygon class="cls-7" points="240.75 105.34 241.37 105.44 241.51 105.34 241.37 105.24 240.75 105.34"/><path class="cls-7" d="M241.37,105.24l.14.1.06,0-.51-.72.71.51,0,0-.3-.43L229.28,87.44a22,22,0,0,0-5.3,5.41L241.09,105Z"/><path class="cls-7" d="M242.12,105.34l-.18.13-.13.17.11.15.2.28,12.23,17.17a22,22,0,0,0,5.3-5.41l-17.11-12.19Z"/><polygon class="cls-7" points="241.77 105.09 241.06 104.58 241.57 105.3 241.69 105.21 241.77 105.09"/><path class="cls-7" d="M241.81,105l0,0-.08.12.88-.63-.63.89.18-.13.42-.3,17.09-12.18a21.93,21.93,0,0,0-5.27-5.43l-12.24,17.18Z"/><path class="cls-7" d="M241.71,105.79l.1-.15.13-.17.63-.89-.88.63-.12.09-.06,0-.15.1-.27.2L224,117.82a21.93,21.93,0,0,0,5.27,5.43l12.24-17.18Z"/><path class="cls-16" d="M232.55,92l-3.27-4.59a22,22,0,0,0-5.3,5.41l4,2.85A18.22,18.22,0,0,1,232.55,92Z"/><path class="cls-16" d="M241.54,89.65a17.9,17.9,0,0,1,3,.28l1-6.2c-.5-.09-1-.19-1.5-.25a21.81,21.81,0,0,0-6.11.23l1,6.14A17.21,17.21,0,0,1,241.54,89.65Z"/><path class="cls-16" d="M255.31,95.94l4.32-3.08a21.93,21.93,0,0,0-5.27-5.43l-3.44,4.83A18.72,18.72,0,0,1,255.31,95.94Z"/><path class="cls-16" d="M223.27,107.93a18.44,18.44,0,0,1,.92-5.73l-3.7-.62c-.08.47-.17.94-.22,1.42a22.13,22.13,0,0,0,.21,6.1l2.82-.47C223.29,108.39,223.27,108.16,223.27,107.93Z"/><path class="cls-16" d="M253.36,121.85l1,1.39a22,22,0,0,0,5.3-5.41l-1.95-1.39A18.37,18.37,0,0,1,253.36,121.85Z"/><path class="cls-16" d="M225.53,116.73,224,117.82a21.93,21.93,0,0,0,5.27,5.43l.79-1.11A18.32,18.32,0,0,1,225.53,116.73Z"/><path class="cls-16" d="M263.15,101.58l-4.23.71a18.44,18.44,0,0,1,.89,5.64c0,.2,0,.4,0,.6l3.36.57c.08-.47.17-.94.22-1.42A22.13,22.13,0,0,0,263.15,101.58Z"/><path class="cls-16" d="M241.54,126.2a18.47,18.47,0,0,1-3.35-.32L238,127c.5.09,1,.19,1.5.24a21.44,21.44,0,0,0,6.11-.22l-.2-1.19A18.38,18.38,0,0,1,241.54,126.2Z"/><path class="cls-6" d="M279.69,89.51h6.86c1.21-9.21.42-19.11-6.28-25.06H257.59Z"/><path class="cls-5" d="M25.74,47.19H3.94a4,4,0,0,0-3.87,4.7L2,61.8a1.58,1.58,0,0,0,1.88,1.31c15.69-4.77,26.59-4.39,26.59-4.39Z"/><path class="cls-7" d="M281.17,88.12h4.68c1.07-8.19.5-17-5-22.28H262.17Z"/><path class="cls-6" d="M123,51.78,99,49.11l1,8.73S118.22,57.7,123,51.78Z"/><path class="cls-4" d="M120.09,50.83l-20-2,.86,6.52S116.13,55.25,120.09,50.83Z"/><polygon class="cls-19" points="12.18 44.23 2.91 44.23 2.61 26.23 8.23 28.45 12.18 44.23"/><polygon class="cls-8" points="10.65 43.55 3.53 43.55 3.3 33.72 7.62 34.93 10.65 43.55"/><path class="cls-19" d="M280.61,66.66h-15.8l6.89,8.07h13A15,15,0,0,0,280.61,66.66Z"/><path class="cls-8" d="M275.15,79.67l4.37,5.13h5.61a32.25,32.25,0,0,0-.16-8h-9.82Z"/><polygon class="cls-6" points="279.25 63.55 255.09 63.52 223.46 53.32 223.81 52.17 255.35 62.34 277.85 62.34 279.25 63.55"/></g></g></svg>