<svg xmlns="http://www.w3.org/2000/svg" viewBox="0 0 244.23 138.9"><defs><style>.cls-1{fill:#2d1c21;}.cls-2{fill:#382e51;}.cls-3{fill:#43385b;}.cls-4{fill:#4b4266;}.cls-5{fill:#2b2342;}.cls-6{fill:#6e678c;}.cls-7{fill:#655c93;}.cls-8{fill:#c9b289;}.cls-9{fill:#282535;}.cls-10{fill:#e5d1b3;}.cls-11{fill:#51a8bf;}.cls-12{fill:#5fc6dd;}.cls-13{fill:#358aa5;}.cls-14{fill:#8175aa;}.cls-15{fill:#916044;}.cls-16{fill:#683f2b;}.cls-17{fill:#b29360;}</style></defs><g id="Layer_2" data-name="Layer 2"><g id="_2" data-name="2"><rect class="cls-1" x="187.18" y="78.26" width="31.27" height="38.07"/><path class="cls-2" d="M166,50.28a7.19,7.19,0,0,1,4.6-1.56l.15-.71A7.27,7.27,0,0,0,165,49.47c-2.31,1.88-3.49,5.23-3.49,10h1C162.68,55.14,163.84,52.05,166,50.28Z"/><path class="cls-3" d="M232.05,69.44l-65.68-3.53-2.47-6.18-2.18-.33-4-51.95c6.62,0,6.8-7.27-.64-7.27H3.39C-4.7,45.89,1.59,86,23.37,120.07H184.74C197,102,205.32,78,230.42,79.78Z"/><polygon class="cls-4" points="101.67 94.76 101.67 111.43 142.24 111.43 142.24 80.9 101.67 94.76"/><polygon class="cls-4" points="78.22 102.29 78.22 111.98 97.89 111.98 97.89 95.14 78.22 102.29"/><path class="cls-5" d="M163.9,59.55l-2.18-.33-4-51.95c6.62,0,6.8-7.27-.64-7.27H3.39c-4.51,25.46-4.55,49.19.07,71.1,14.51,0,228,1.69,228,1.69l.57-3.53-65.33-3.83Z"/><path class="cls-2" d="M36.21,7.53C12.59,26.35,1.46,59.44,1.46,59.44l41.43,1.27Z"/><path class="cls-1" d="M54.43,82.83l-28-3.45L9,93.91S14.11,109,23.37,120.07H73.69L69,100.27Z"/><path class="cls-6" d="M162.62,4.11c.27-2-1.5-4.11-5.55-4.11H3.39Q3,2.07,2.7,4.11Z"/><path class="cls-2" d="M1.46,59.44C1.82,61.79,2.64,67,3.1,69.33q.16.89.36,1.77c14.51,0,227.08,7.77,227.08,7.77l1.19-7.6-63.85-3.52-4.19-8.55Z"/><polygon class="cls-5" points="3.1 69.33 4.04 73.96 199.39 77.74 3.1 69.33"/><path class="cls-7" d="M98.25,112.65H77.58v-.48c0-35.3-28.58-38.09-28.87-38.12l-.44,0V58.75h1v14.4c3.67.51,29.07,5.24,29.31,38.54H97.29V58.1h1Z"/><polygon class="cls-7" points="143.2 112.33 100.71 112.33 100.71 58.1 101.67 58.1 101.67 111.37 142.24 111.37 142.24 59.41 143.2 59.41 143.2 112.33"/><path class="cls-8" d="M211.06,77.28c-3.9,0-5.94-2.48-5.94-5.57a6.19,6.19,0,0,1,1.39-4,5.36,5.36,0,0,1,4.24-1.87v1.91a3.43,3.43,0,0,0-2.78,1.2,4.25,4.25,0,0,0-.94,2.78,4,4,0,0,0,4,4.31Z"/><polygon class="cls-9" points="116.25 61.36 104.94 61.36 104.94 65.76 114.14 65.76 116.25 61.36"/><polygon class="cls-3" points="113.49 60.87 104.53 60.87 104.53 64.29 111.81 64.29 113.49 60.87"/><polygon class="cls-9" points="63.73 61.36 52.41 61.36 52.41 65.76 61.61 65.76 63.73 61.36"/><polygon class="cls-3" points="60.96 60.87 52.01 60.87 52.01 64.29 59.29 64.29 60.96 60.87"/><path class="cls-10" d="M207.88,66.71a2.45,2.45,0,1,0,2.45-2.44A2.45,2.45,0,0,0,207.88,66.71Z"/><path class="cls-10" d="M216.5,60.88a6,6,0,0,0,0,12Z"/><path class="cls-8" d="M211,64.75a6,6,0,0,0,5.55,8.17V69.79A7.35,7.35,0,0,1,211,64.75Z"/><rect class="cls-10" x="215.88" y="60.36" width="0.98" height="13.19"/><path class="cls-11" d="M161.92,59.22,157.71,7.27l-121.5.26c0,21.91,2.72,40.39,6,51.79Z"/><path class="cls-12" d="M43.46,28.71l112.86-.1-1.58-18.49-113.26.25A134.59,134.59,0,0,0,43.46,28.71Z"/><path class="cls-13" d="M44.43,57.37c-3.3-10.54-6-27.63-6-47.88l119.46-.24-.16-2-121.5.26c0,21.91,2.72,40.39,6,51.79l119.69-.1-.16-1.95Z"/><polygon class="cls-13" points="146.13 7.86 142.45 7.86 142.28 58.1 145.96 58.1 146.13 7.86"/><polygon class="cls-13" points="139.95 7.86 137.2 7.86 137.07 58.1 139.82 58.1 139.95 7.86"/><polygon class="cls-13" points="94.84 7.86 92.08 7.86 91.96 58.1 94.71 58.1 94.84 7.86"/><polygon class="cls-13" points="55.18 7.86 52.43 7.86 52.3 58.1 55.06 58.1 55.18 7.86"/><polygon class="cls-13" points="101.34 7.86 97.66 7.86 97.5 58.1 101.17 58.1 101.34 7.86"/><polygon class="cls-13" points="49.27 7.86 45.59 7.86 45.42 58.1 49.1 58.1 49.27 7.86"/><polygon class="cls-13" points="157.59 7.94 155.75 7.94 159.28 59 161.12 59 157.59 7.94"/><polygon class="cls-13" points="150.14 7.94 148.3 7.94 151.83 59 153.67 59 150.14 7.94"/><rect class="cls-5" x="143.21" y="5.99" width="1.79" height="55.05"/><rect class="cls-5" x="98.6" y="5.99" width="1.79" height="54.01"/><rect class="cls-5" x="46.22" y="5.99" width="1.79" height="55.05"/><rect class="cls-2" x="143.21" y="50.41" width="1.79" height="10.63"/><rect class="cls-2" x="98.6" y="48.7" width="1.79" height="12.95"/><rect class="cls-2" x="46.22" y="45.77" width="1.79" height="16.49"/><polygon class="cls-5" points="158.84 5.34 156.89 5.34 160.63 60.71 162.59 60.71 158.84 5.34"/><polygon class="cls-2" points="159.93 50.29 160.63 60.71 162.59 60.71 161.88 50.29 159.93 50.29"/><path class="cls-1" d="M199.44,80.24c8-3.53,31.47.82,31.47.82-21.5-2.44-34.56,15.37-36.64,39H149.44s21-4.68,30.38-16C184.75,98.15,193.61,82.81,199.44,80.24Z"/><path class="cls-14" d="M181.72,98c-4.43,7.61-15.91,18.45-28.11,19.89-16.66,2-59.26.74-74.37.21a5.47,5.47,0,0,1-5.32-5.16C73.1,94.93,60.1,79.54,42.41,77,22.46,74.2,4.1,88.81,1.39,109.67a39,39,0,0,0-.33,5.58A1.82,1.82,0,0,0,2.63,117h0a1.8,1.8,0,0,0,2.05-1.77,35.27,35.27,0,0,1,.23-3.67C7,93,23.16,80,40.92,82.52c15.67,2.25,26,13.3,27.86,31.67a8.6,8.6,0,0,0,8.58,7.7h73.17l-2.64,0c19.89,0,31.64-11.93,38.35-23,19.56-32.38,47.53-13.76,48.38-14.76,3.1-3.67-9.64-9.1-21.7-9C203.18,75.08,192.51,79.51,181.72,98Z"/><path class="cls-7" d="M4.59,115.25A1.81,1.81,0,0,1,3,113.45a40.46,40.46,0,0,1,.32-5.57,39,39,0,0,1,9.88-21.51,38.48,38.48,0,0,0-11.85,23.3,39,39,0,0,0-.33,5.58A1.82,1.82,0,0,0,2.63,117a1.8,1.8,0,0,0,2.05-1.77v0A.27.27,0,0,1,4.59,115.25Z"/><path class="cls-7" d="M232.66,79.8a1.89,1.89,0,0,1,0,2.46c-.83,1-28.32-17.62-47.55,14.76-6.6,11.12-18.15,23-37.7,23l2.59,0H78.05a8.51,8.51,0,0,1-8.44-7.71C67.81,94,57.63,83,42.22,80.73a30.15,30.15,0,0,0-27,10,30.86,30.86,0,0,1,25.68-8.2c15.67,2.25,26,13.3,27.86,31.67a8.6,8.6,0,0,0,8.58,7.7h73.17l-2.64,0c19.89,0,31.64-11.93,38.35-23,19.56-32.38,47.53-13.76,48.38-14.76C235.72,82.75,234.81,81.22,232.66,79.8Z"/><circle class="cls-1" cx="217.34" cy="112.01" r="8.78" transform="translate(-19.92 52.93) rotate(-13.28)"/><path class="cls-15" d="M226.6,106.69c4.89-3.31,8.7-6.22,8.51-6.5s-4.3,2.17-9.19,5.49-8.7,6.22-8.51,6.5S221.72,110,226.6,106.69Z"/><path class="cls-15" d="M209.51,118.26c4.89-3.31,8.7-6.22,8.51-6.5s-4.3,2.18-9.19,5.49-8.7,6.22-8.51,6.5S204.63,121.58,209.51,118.26Z"/><path class="cls-15" d="M223,120.86c3.31,4.88,6.22,8.69,6.5,8.5s-2.18-4.3-5.49-9.19-6.22-8.69-6.5-8.5S219.69,116,223,120.86Z"/><path class="cls-15" d="M211.42,103.77c3.31,4.88,6.22,8.69,6.5,8.5s-2.18-4.3-5.49-9.19-6.22-8.69-6.5-8.5S208.11,98.88,211.42,103.77Z"/><path class="cls-15" d="M220.27,102c1.11-5.8,1.75-10.55,1.41-10.61s-1.5,4.58-2.61,10.38-1.75,10.55-1.42,10.61S219.15,107.75,220.27,102Z"/><path class="cls-15" d="M216.37,122.22c1.11-5.8,1.75-10.55,1.42-10.61s-1.51,4.58-2.62,10.38-1.75,10.55-1.42,10.61S215.25,128,216.37,122.22Z"/><path class="cls-15" d="M227.74,114.52c5.79,1.11,10.54,1.75,10.61,1.42s-4.59-1.51-10.38-2.62-10.55-1.75-10.61-1.42S221.94,113.4,227.74,114.52Z"/><path class="cls-15" d="M207.47,110.62c5.79,1.12,10.54,1.75,10.61,1.42s-4.59-1.5-10.38-2.62-10.55-1.75-10.61-1.42S201.67,109.51,207.47,110.62Z"/><path class="cls-15" d="M228,110.53c5.78-1.17,10.42-2.39,10.35-2.72s-4.81.35-10.6,1.52-10.42,2.38-10.35,2.71S222.17,111.69,228,110.53Z"/><path class="cls-15" d="M207.72,114.61c5.79-1.17,10.42-2.38,10.36-2.71s-4.81.35-10.6,1.51-10.42,2.39-10.36,2.72S201.94,115.78,207.72,114.61Z"/><path class="cls-15" d="M219.16,122.21c1.17,5.78,2.39,10.42,2.72,10.35s-.35-4.81-1.52-10.59-2.38-10.43-2.72-10.36S218,116.42,219.16,122.21Z"/><path class="cls-15" d="M215.08,102c1.16,5.79,2.38,10.43,2.71,10.36s-.35-4.81-1.52-10.6-2.38-10.42-2.71-10.35S213.91,96.19,215.08,102Z"/><path class="cls-15" d="M223.93,103.71c3.27-4.92,5.69-9.06,5.41-9.24s-3.16,3.65-6.42,8.56-5.69,9.06-5.41,9.25S220.67,108.63,223.93,103.71Z"/><path class="cls-15" d="M212.52,120.91c3.26-4.92,5.68-9.06,5.4-9.25s-3.16,3.65-6.42,8.57-5.68,9.06-5.4,9.24S209.25,125.82,212.52,120.91Z"/><path class="cls-15" d="M226,118.19c4.92,3.26,9.05,5.68,9.24,5.4s-3.65-3.16-8.57-6.42-9.05-5.68-9.24-5.4S221.06,114.92,226,118.19Z"/><path class="cls-15" d="M208.78,106.77c4.92,3.26,9.06,5.68,9.24,5.4s-3.65-3.15-8.56-6.42-9.06-5.68-9.25-5.4S203.86,103.5,208.78,106.77Z"/><path class="cls-15" d="M220.48,88.87a23.35,23.35,0,1,0,20,26.28A23.35,23.35,0,0,0,220.48,88.87Zm14.27,25.5a17.57,17.57,0,1,1-15.07-19.6A17.48,17.48,0,0,1,234.75,114.37Z"/><path class="cls-16" d="M220.48,88.87a23.35,23.35,0,1,0,20,26.28A23.35,23.35,0,0,0,220.48,88.87Zm14.27,25.5c0,.13-.05.26-.07.38l-1.09-.25c0,.28,0,.56,0,.85,0,.06,0,.13,0,.19l.87.13a17.36,17.36,0,0,1-1.5,4.24,17,17,0,0,1-33.48-4.56,17.3,17.3,0,0,1,.26-2.91,17.53,17.53,0,0,1,.15-2.79c0-.22.08-.43.12-.64l.64.16c.12-.3.24-.59.37-.89l-.85-.11a17.22,17.22,0,0,1,2.43-5.69c.46.35,1,.74,1.57,1.14.24-.25.5-.5.76-.75l-1.85-1.11a17.25,17.25,0,0,1,4.34-4.14c.43.72,1,1.56,1.54,2.46.33-.16.67-.33,1-.48-.66-.92-1.27-1.76-1.81-2.47A17.75,17.75,0,0,1,213.82,95c.15,1,.35,2.19.58,3.48.38,0,.77-.08,1.15-.1-.29-1.32-.58-2.52-.84-3.54a18,18,0,0,1,5,0c.29,0,.56.1.84.15-.25,1.06-.53,2.31-.82,3.67.38.07.76.16,1.13.26.24-1.39.45-2.67.6-3.76a17.6,17.6,0,0,1,5.4,2.31c-.63.85-1.34,1.86-2.1,3,.34.19.66.4,1,.6.71-1.11,1.36-2.15,1.89-3a17.41,17.41,0,0,1,4,4c-.79.48-1.7,1-2.67,1.68.27.28.53.56.78.86.89-.64,1.72-1.24,2.43-1.77a17.44,17.44,0,0,1,2.25,5.37l-2.24.38c.15.33.28.68.4,1,.73-.17,1.43-.33,2-.49A17.33,17.33,0,0,1,234.75,114.37Z"/><path class="cls-8" d="M221,85.37a26.88,26.88,0,1,0,23,30.26A26.88,26.88,0,0,0,221,85.37Zm16.42,29.36A20.22,20.22,0,1,1,220,92.16,20.13,20.13,0,0,1,237.38,114.73Z"/><path class="cls-8" d="M221.09,112.52a3.78,3.78,0,1,1-3.25-4.23A3.75,3.75,0,0,1,221.09,112.52Z"/><path class="cls-10" d="M190.7,110.51a26.88,26.88,0,0,1,53.5,2.57,26.88,26.88,0,1,0-53.72,0A24.42,24.42,0,0,1,190.7,110.51Z"/><path class="cls-10" d="M214.65,134a20.13,20.13,0,0,0,22.73-17.13,19.35,19.35,0,0,0,.14-3.79c0,.55-.06,1.11-.14,1.67a20.24,20.24,0,0,1-40.22-1.65A20.14,20.14,0,0,0,214.65,134Z"/><path class="cls-17" d="M220,90.33a20.12,20.12,0,0,0-22.73,17.13,19.3,19.3,0,0,0-.15,3.55c0-.57.07-1.14.15-1.72a20.23,20.23,0,0,1,40.23,1.89A20.15,20.15,0,0,0,220,90.33Z"/><path class="cls-17" d="M244,113.79a26.88,26.88,0,0,1-53.51-2.74A26.89,26.89,0,0,0,244,115.63a27.37,27.37,0,0,0,.23-4.5C244.17,112,244.1,112.9,244,113.79Z"/><path class="cls-15" d="M46.15,106.69c4.89-3.31,8.7-6.22,8.51-6.5s-4.3,2.17-9.19,5.49-8.7,6.22-8.51,6.5S41.27,110,46.15,106.69Z"/><path class="cls-15" d="M29.06,118.26c4.89-3.31,8.7-6.22,8.51-6.5s-4.3,2.18-9.19,5.49-8.7,6.22-8.51,6.5S24.18,121.58,29.06,118.26Z"/><path class="cls-15" d="M42.55,120.86c3.31,4.88,6.22,8.69,6.5,8.5s-2.18-4.3-5.49-9.19-6.22-8.69-6.5-8.5S39.24,116,42.55,120.86Z"/><path class="cls-15" d="M31,103.77c3.31,4.88,6.22,8.69,6.5,8.5S35.29,108,32,103.08s-6.22-8.69-6.5-8.5S27.66,98.88,31,103.77Z"/><path class="cls-15" d="M39.82,102c1.11-5.8,1.74-10.55,1.41-10.61s-1.5,4.58-2.61,10.38-1.75,10.55-1.42,10.61S38.7,107.75,39.82,102Z"/><path class="cls-15" d="M35.92,122.22c1.11-5.8,1.75-10.55,1.42-10.61s-1.51,4.58-2.62,10.38S33,132.54,33.3,132.6,34.8,128,35.92,122.22Z"/><path class="cls-15" d="M47.29,114.52c5.79,1.11,10.54,1.75,10.61,1.42s-4.59-1.51-10.38-2.62S37,111.57,36.91,111.9,41.49,113.4,47.29,114.52Z"/><path class="cls-15" d="M27,110.62c5.79,1.12,10.54,1.75,10.61,1.42s-4.59-1.5-10.38-2.62S16.7,107.67,16.64,108,21.22,109.51,27,110.62Z"/><path class="cls-15" d="M47.5,110.53c5.79-1.17,10.43-2.39,10.36-2.72s-4.81.35-10.6,1.52S36.84,111.71,36.91,112,41.72,111.69,47.5,110.53Z"/><path class="cls-15" d="M27.27,114.61c5.79-1.17,10.42-2.38,10.36-2.71s-4.82.35-10.6,1.51-10.42,2.39-10.36,2.72S21.48,115.78,27.27,114.61Z"/><path class="cls-15" d="M38.71,122.21c1.17,5.78,2.38,10.42,2.72,10.35s-.35-4.81-1.52-10.59-2.39-10.43-2.72-10.36S37.54,116.42,38.71,122.21Z"/><path class="cls-15" d="M34.62,102c1.17,5.79,2.39,10.43,2.72,10.36s-.35-4.81-1.52-10.6-2.38-10.42-2.71-10.35S33.46,96.19,34.62,102Z"/><path class="cls-15" d="M43.48,103.71c3.27-4.92,5.69-9.06,5.41-9.24s-3.16,3.65-6.42,8.56-5.69,9.06-5.41,9.25S40.22,108.63,43.48,103.71Z"/><path class="cls-15" d="M32.07,120.91c3.26-4.92,5.68-9.06,5.4-9.25s-3.16,3.65-6.42,8.57-5.69,9.06-5.4,9.24S28.8,125.82,32.07,120.91Z"/><path class="cls-15" d="M45.53,118.19c4.91,3.26,9,5.68,9.24,5.4s-3.65-3.16-8.57-6.42-9.05-5.68-9.24-5.4S40.61,114.92,45.53,118.19Z"/><path class="cls-15" d="M28.33,106.77c4.92,3.26,9.06,5.68,9.24,5.4S33.92,109,29,105.75s-9.06-5.68-9.25-5.4S23.41,103.5,28.33,106.77Z"/><path class="cls-15" d="M40,88.87a23.35,23.35,0,1,0,20,26.28A23.35,23.35,0,0,0,40,88.87Zm14.27,25.5a17.57,17.57,0,1,1-15.07-19.6A17.48,17.48,0,0,1,54.3,114.37Z"/><path class="cls-16" d="M40,88.87a23.35,23.35,0,1,0,20,26.28A23.35,23.35,0,0,0,40,88.87Zm14.27,25.5c0,.13,0,.26-.07.38l-1.09-.25c0,.28,0,.56,0,.85,0,.06,0,.13,0,.19l.87.13a17.36,17.36,0,0,1-1.5,4.24,17,17,0,0,1-33.48-4.56,17.3,17.3,0,0,1,.26-2.91,17.53,17.53,0,0,1,.15-2.79c0-.22.08-.43.12-.64l.64.16c.12-.3.24-.59.37-.89l-.85-.11a17,17,0,0,1,2.43-5.69c.46.35,1,.74,1.57,1.14.24-.25.5-.5.76-.75-.67-.41-1.3-.79-1.85-1.11A17.25,17.25,0,0,1,27,97.62c.43.72,1,1.56,1.53,2.46.34-.16.67-.33,1-.48-.66-.92-1.27-1.76-1.81-2.47A17.75,17.75,0,0,1,33.37,95c.15,1,.35,2.19.58,3.48.38,0,.76-.08,1.15-.1-.29-1.32-.58-2.52-.84-3.54a18,18,0,0,1,5,0c.29,0,.56.1.84.15-.25,1.06-.53,2.31-.82,3.67.38.07.76.16,1.13.26.24-1.39.45-2.67.6-3.76a17.71,17.71,0,0,1,5.4,2.31c-.63.85-1.34,1.86-2.1,3,.34.19.66.4,1,.6.71-1.11,1.35-2.15,1.89-3a17.41,17.41,0,0,1,4,4c-.8.48-1.7,1-2.67,1.68.27.28.53.56.78.86l2.43-1.77A17.44,17.44,0,0,1,54,108.11l-2.24.38c.15.33.28.68.4,1,.73-.17,1.43-.33,2-.49A17.33,17.33,0,0,1,54.3,114.37Z"/><path class="cls-8" d="M40.51,85.37a26.88,26.88,0,1,0,23,30.26A26.88,26.88,0,0,0,40.51,85.37Zm16.42,29.36A20.22,20.22,0,1,1,39.58,92.16,20.14,20.14,0,0,1,56.93,114.73Z"/><path class="cls-8" d="M40.64,112.52a3.78,3.78,0,1,1-3.25-4.23A3.76,3.76,0,0,1,40.64,112.52Z"/><path class="cls-10" d="M10.25,110.51a26.88,26.88,0,0,1,53.5,2.57,26.88,26.88,0,1,0-53.72,0A24.42,24.42,0,0,1,10.25,110.51Z"/><path class="cls-10" d="M34.19,134a20.14,20.14,0,0,0,22.74-17.13,19.35,19.35,0,0,0,.14-3.79c0,.55-.06,1.11-.14,1.67a20.24,20.24,0,0,1-40.22-1.65A20.14,20.14,0,0,0,34.19,134Z"/><path class="cls-17" d="M39.58,90.33a20.11,20.11,0,0,0-22.73,17.13A19.3,19.3,0,0,0,16.7,111c0-.57.07-1.14.15-1.72a20.23,20.23,0,0,1,40.23,1.89A20.15,20.15,0,0,0,39.58,90.33Z"/><path class="cls-17" d="M63.53,113.79A26.88,26.88,0,0,1,10,111.05a26.89,26.89,0,0,0,53.51,4.58,28.52,28.52,0,0,0,.23-4.5C63.72,112,63.65,112.9,63.53,113.79Z"/><rect class="cls-1" x="166.17" y="81.19" width="1.59" height="14.41"/><rect class="cls-1" x="169.23" y="81.19" width="1.59" height="12.83"/><rect class="cls-1" x="172.28" y="81.19" width="1.59" height="10.95"/><rect class="cls-1" x="175.33" y="81.19" width="1.59" height="9.24"/><rect class="cls-1" x="178.39" y="81.19" width="1.59" height="7.37"/><polygon class="cls-3" points="163.69 59.2 144.95 59.2 166.72 65.43 163.69 59.2"/><path class="cls-2" d="M172.85,50.45c0-3.64-2.09-6.6-3.5-6.6s-2.57,3-2.57,6.6S167.93,57,169.35,57,172.85,54.09,172.85,50.45Z"/><path class="cls-13" d="M170.57,50.38c0-3.06-.75-5.55-1.68-5.55s-1.68,2.49-1.68,5.55.75,5.55,1.68,5.55S170.57,53.45,170.57,50.38Z"/><path class="cls-11" d="M170.48,50.3c0-2.59-.59-4.7-1.31-4.7s-1.3,2.11-1.3,4.7.58,4.69,1.3,4.69S170.48,52.89,170.48,50.3Z"/></g></g></svg>