<svg xmlns="http://www.w3.org/2000/svg" viewBox="0 0 258.23 128.2"><defs><style>.cls-1{fill:#3a2b2a;}.cls-2{fill:#231818;}.cls-3{fill:#5e504f;}.cls-4{fill:#846d6d;}.cls-5{fill:#281c1b;}.cls-6{fill:#473737;}.cls-7{fill:#281d1d;}.cls-8{fill:#bf4141;}.cls-9{fill:#ffbb4d;}.cls-10{fill:#ffdc78;}.cls-11{fill:#a52d2d;}.cls-12{fill:#916044;}.cls-13{fill:#683f2b;}.cls-14{fill:#c9b289;}.cls-15{fill:#e5d1b3;}.cls-16{fill:#b29360;}</style></defs><g id="Layer_2" data-name="Layer 2"><g id="_2" data-name="2"><polygon class="cls-1" points="160.48 25.07 154.82 25.07 154.82 39.52 171.93 39.52 160.48 25.07"/><polygon class="cls-2" points="143.3 18.32 142.06 19.52 154.37 34.02 155.61 32.82 143.3 18.32"/><path class="cls-1" d="M143.58,19.92c7.24-7.07,7.44-8.14,6.93-8.73s-1.52-.47-8.75,6.6-7.44,8.14-6.93,8.72S136.35,27,143.58,19.92Z"/><path class="cls-3" d="M53,0h0C49,0,45.73,2.61,46.29,5.46l7,35.57H66.64L59.37,3.89C58.93,1.64,56.26,0,53,0Z"/><path class="cls-4" d="M54.55,27.43H64L59.37,3.89C58.93,1.64,56.26,0,53,0h0a8.71,8.71,0,0,0-3.7.8Z"/><path class="cls-3" d="M107.63,2.69h0c-4.14,0-7.56,2.62-7.17,5.49l4.92,35.75h13.55L113.8,6.6C113.49,4.34,110.88,2.69,107.63,2.69Z"/><path class="cls-4" d="M103.74,3.53l3.45,25.11h9.64l-3-22c-.31-2.26-2.92-3.91-6.17-3.91A9.33,9.33,0,0,0,103.74,3.53Z"/><path class="cls-3" d="M210.43,41.24h0V82.69l16.39-7.07-3.65-23.47A12.9,12.9,0,0,0,210.43,41.24Z"/><path class="cls-1" d="M208.77,43.8h0V81l14.71-6.34-3.29-21.06A11.56,11.56,0,0,0,208.77,43.8Z"/><path class="cls-3" d="M208.39,46.47h0V79l12.87-5.54L218.39,55A10.12,10.12,0,0,0,208.39,46.47Z"/><polygon class="cls-5" points="230.07 63.41 205.4 71.13 197.63 81.67 193.31 95.83 229.85 93.46 230.07 63.41"/><polygon class="cls-5" points="228.65 91.87 71.17 91.87 73.9 97.26 229.57 97.26 228.65 91.87"/><path class="cls-1" d="M156.92,36.27V29.63H5.23c.32,18.94,7.18,38.69,16.49,50.84H65.8l8.31,15.87,118.16,1.56,6.57-18,12.95-12.61-1.9-31.06Z"/><polygon class="cls-6" points="135.39 29.63 120.99 29.63 116.13 70.87 130.54 70.87 135.39 29.63"/><polygon class="cls-6" points="98.86 29.63 84.45 29.63 79.6 70.87 94 70.87 98.86 29.63"/><path class="cls-7" d="M211.15,56.86l-5.64-20.63-1.39,22.08-45.27,9V43.84l10.5-7.57-4.93-6.64H151.85V91.52l-74.92-1.1C72.66,71.5,60.12,62.88,52.47,59.77L43,33.34H5.37C6.46,51.11,13,69.11,21.72,80.47H65.8l8.31,15.87,118.16,1.56,6.57-18,12.95-12.61Z"/><polygon class="cls-5" points="61.33 73.55 38.01 65.43 14.51 70.96 33.3 102.23 48.88 95.03 72.56 94.6 61.33 73.55"/><path class="cls-8" d="M160.64,24.34h-6.57v6.1h11.42a.69.69,0,0,0,.61-1.12l-3.79-4.24A2.27,2.27,0,0,0,160.64,24.34Z"/><path class="cls-9" d="M210.71,35.23h-3.26a1.85,1.85,0,0,0-1.84,2l3.08,31.07,6.95-2.18-3.1-29.26A1.84,1.84,0,0,0,210.71,35.23Z"/><path class="cls-10" d="M211.92,37.36a1.68,1.68,0,0,0-1.66-1.5h-3a1.71,1.71,0,0,0-.51.09c0,.27,0,.55,0,.82,0,8.14,2.4,14.73,5.36,14.73a2.21,2.21,0,0,0,1.23-.41Z"/><polygon class="cls-2" points="196.25 38.78 194.71 38.78 194.71 51.57 196.25 51.27 196.25 38.78"/><polygon class="cls-2" points="192.59 38.78 190.87 38.78 190.87 52.33 192.59 51.99 192.59 38.78"/><polygon class="cls-2" points="188.49 38.78 186.54 38.78 186.54 53.18 188.49 52.8 188.49 38.78"/><polygon class="cls-2" points="183.85 38.78 181.64 38.78 181.64 54.15 183.85 53.71 183.85 38.78"/><polygon class="cls-2" points="178.56 38.78 176.02 38.78 176.02 55.26 178.56 54.76 178.56 38.78"/><polygon class="cls-2" points="172.48 38.78 169.54 38.78 169.54 56.53 172.48 55.95 172.48 38.78"/><path class="cls-2" d="M100.57,29.63V62.9c0,4.3-2.83,7.81-6.3,7.81H79c-3.48,0-6.3-3.51-6.3-7.81V29.63H71.39V62.9c0,5.2,3.42,9.44,7.62,9.44H94.27c4.2,0,7.62-4.24,7.62-9.44V29.63Z"/><path class="cls-2" d="M137.35,29.63v33c0,4.28-2.74,7.76-6.12,7.76H116.4c-3.37,0-6.12-3.48-6.12-7.76v-33H109v33c0,5.17,3.32,9.38,7.4,9.38h14.83c4.08,0,7.4-4.21,7.4-9.38v-33Z"/><path class="cls-8" d="M5.35,5.85h0L4.24,6C2.88,6.12,2,8.47,2.53,10.58l.62,2.49-.61.3C.94,14.16.6,17.69,2,19.29H2l-.72.5c-1.38.94-1.68,4-.55,5.6l.09.13h0c-.68,2,.19,4.53,1.58,4.53h55.2l.17-2.55L7.86,1.5C6.27.67,4.8,3.23,5.35,5.85Z"/><path class="cls-11" d="M7.86,1.5a1.24,1.24,0,0,0-1.21,0c6.07,3.52,12.5,8.05,12,8.91S11.19,8.24,5.24,4.94a5.65,5.65,0,0,0,.11.91l-.77.09C9.52,7.87,16.76,12.58,16.26,14s-8.48-.87-13.48-2.45l.37,1.48-.61.3-.17.11c3.7.92,12.25,4,12.14,5.42s-9,.75-12.86-.07a2.85,2.85,0,0,0,.31.46l-.72.5A1.73,1.73,0,0,0,1,20c4.31.43,11.83,1.74,11.89,3S5.06,25,.33,24.7a2.83,2.83,0,0,0,.36.69l.09.13A2.72,2.72,0,0,0,.65,26a30,30,0,0,1,4-.25c4.49,0,8.13.86,8.13,1.91s-3.64,1.91-8.13,1.91a32.08,32.08,0,0,1-3.38-.17,1.4,1.4,0,0,0,1.11.64h55.2l.17-2.55Z"/><path class="cls-9" d="M250.18,62c-34.15-10.7-54.4,6.86-58.52,34.73L73.82,94.5C67,65.09,45.26,53.43,8.46,66.78a3.81,3.81,0,1,0,2.62,7.15c40.27-14.77,54.5,1.17,61.39,25.31v.2h.06l0,0h1.74v0l118.14-.11h1.23C198.2,73.4,219.28,58.63,248.26,68a3.15,3.15,0,1,0,1.92-6Z"/><path class="cls-5" d="M28,99.68a8.94,8.94,0,1,0,8.93-8.94A8.93,8.93,0,0,0,28,99.68Z"/><path class="cls-12" d="M46.74,94c5.19-3.51,9.22-6.6,9-6.89S51.2,89.45,46,93s-9.23,6.6-9,6.89S41.56,97.54,46.74,94Z"/><path class="cls-12" d="M28.61,106.31c5.19-3.51,9.23-6.6,9-6.89s-4.57,2.31-9.75,5.82-9.23,6.6-9,6.89S23.43,109.82,28.61,106.31Z"/><path class="cls-12" d="M42.92,109.06c3.51,5.19,6.6,9.23,6.89,9s-2.31-4.57-5.82-9.75-6.6-9.23-6.89-9S39.41,103.88,42.92,109.06Z"/><path class="cls-12" d="M30.64,90.94c3.51,5.18,6.6,9.22,6.89,9s-2.31-4.57-5.82-9.75-6.6-9.22-6.89-9S27.13,85.75,30.64,90.94Z"/><path class="cls-12" d="M40,89c1.18-6.15,1.85-11.19,1.5-11.26s-1.59,4.86-2.77,11S36.89,100,37.24,100,38.84,95.16,40,89Z"/><path class="cls-12" d="M35.88,110.51c1.19-6.15,1.86-11.19,1.51-11.26s-1.6,4.87-2.78,11-1.85,11.19-1.5,11.26S34.7,116.66,35.88,110.51Z"/><path class="cls-12" d="M47.94,102.34c6.15,1.18,11.19,1.86,11.26,1.5s-4.86-1.59-11-2.77S37,99.21,36.93,99.56,41.79,101.16,47.94,102.34Z"/><path class="cls-12" d="M26.44,98.2c6.15,1.19,11.19,1.86,11.26,1.51s-4.87-1.6-11-2.78-11.19-1.85-11.26-1.5S20.29,97,26.44,98.2Z"/><path class="cls-12" d="M48.17,98.1c6.14-1.24,11.06-2.52,11-2.88s-5.11.37-11.24,1.61-11.06,2.53-11,2.88S42,99.34,48.17,98.1Z"/><path class="cls-12" d="M26.71,102.44c6.14-1.24,11.06-2.53,11-2.88s-5.11.37-11.25,1.61-11,2.53-11,2.88S20.57,103.68,26.71,102.44Z"/><path class="cls-12" d="M38.85,110.5c1.24,6.13,2.53,11,2.88,11s-.37-5.1-1.61-11.24-2.53-11.06-2.88-11S37.61,104.36,38.85,110.5Z"/><path class="cls-12" d="M34.51,89c1.24,6.14,2.53,11.06,2.88,11S37,94.91,35.78,88.78s-2.53-11.06-2.88-11S33.27,82.9,34.51,89Z"/><path class="cls-12" d="M43.91,90.87c3.46-5.21,6-9.6,5.73-9.8s-3.35,3.87-6.81,9.09-6,9.6-5.73,9.8S40.45,96.09,43.91,90.87Z"/><path class="cls-12" d="M31.8,109.12c3.46-5.22,6-9.61,5.73-9.81s-3.35,3.87-6.81,9.09-6,9.6-5.73,9.8S28.34,114.33,31.8,109.12Z"/><path class="cls-12" d="M46.08,106.23c5.21,3.46,9.6,6,9.8,5.73s-3.87-3.34-9.09-6.81-9.6-6-9.8-5.73S40.86,102.77,46.08,106.23Z"/><path class="cls-12" d="M27.84,94.12c5.21,3.46,9.6,6,9.8,5.73S33.77,96.5,28.55,93s-9.6-6-9.8-5.73S22.62,90.66,27.84,94.12Z"/><path class="cls-12" d="M40.25,75.13A24.77,24.77,0,1,0,61.46,103,24.77,24.77,0,0,0,40.25,75.13Zm15.13,27.05a18.64,18.64,0,1,1-16-20.79A18.55,18.55,0,0,1,55.38,102.18Z"/><path class="cls-13" d="M40.25,75.13A24.77,24.77,0,1,0,61.46,103,24.77,24.77,0,0,0,40.25,75.13Zm15.13,27.05c0,.14-.05.27-.08.41l-1.14-.27c0,.3,0,.6,0,.9,0,.07,0,.14,0,.2l.93.15a18.42,18.42,0,0,1-1.59,4.49A18.09,18.09,0,0,1,18,103.22a18.49,18.49,0,0,1,.28-3.09,17.45,17.45,0,0,1,.16-3c0-.23.09-.45.12-.67l.68.16c.13-.31.26-.62.4-.93l-.91-.13a18.26,18.26,0,0,1,2.58-6c.49.37,1.06.78,1.66,1.21.26-.27.53-.53.81-.79-.7-.44-1.37-.85-2-1.19a18.81,18.81,0,0,1,4.6-4.39c.47.77,1,1.66,1.63,2.62.36-.18.71-.36,1.08-.51-.7-1-1.35-1.87-1.92-2.63a18.58,18.58,0,0,1,6-2.29c.16,1.07.37,2.32.62,3.69.4-.05.81-.09,1.22-.11-.31-1.4-.62-2.68-.89-3.75a18.22,18.22,0,0,1,5.27,0c.3,0,.59.11.89.16-.27,1.12-.57,2.45-.87,3.89.4.08.8.17,1.2.28.25-1.48.47-2.84.64-4A18.85,18.85,0,0,1,47,84.18c-.66.9-1.42,2-2.23,3.14.36.2.71.42,1,.64.76-1.18,1.44-2.28,2-3.23A18.54,18.54,0,0,1,52.08,89c-.84.51-1.8,1.12-2.83,1.78.28.3.57.59.83.91,1-.67,1.82-1.31,2.57-1.87a18.32,18.32,0,0,1,2.4,5.7l-2.39.39c.16.36.3.73.43,1.1l2.17-.52A18.15,18.15,0,0,1,55.38,102.18Z"/><path class="cls-14" d="M40.75,71.42a28.52,28.52,0,1,0,24.42,32.09A28.51,28.51,0,0,0,40.75,71.42Zm17.42,31.14a21.46,21.46,0,1,1-18.4-23.94A21.35,21.35,0,0,1,58.17,102.56Z"/><path class="cls-14" d="M40.89,100.22a4,4,0,1,1-3.44-4.48A4,4,0,0,1,40.89,100.22Z"/><path class="cls-15" d="M8.66,98.09a28.52,28.52,0,0,1,56.75,2.73,28.52,28.52,0,1,0-57,0C8.46,99.89,8.53,99,8.66,98.09Z"/><path class="cls-15" d="M34.06,123a21.34,21.34,0,0,0,24.11-18.17,20.15,20.15,0,0,0,.15-4c0,.59-.07,1.18-.15,1.77a21.46,21.46,0,0,1-42.66-1.75A21.35,21.35,0,0,0,34.06,123Z"/><path class="cls-16" d="M39.77,76.68A21.34,21.34,0,0,0,15.66,94.85a20.81,20.81,0,0,0-.16,3.77c0-.61.07-1.22.16-1.83a21.46,21.46,0,0,1,42.67,2A21.36,21.36,0,0,0,39.77,76.68Z"/><path class="cls-16" d="M65.17,101.57A28.51,28.51,0,0,1,8.42,98.66a28.51,28.51,0,1,0,57,.09A27.28,27.28,0,0,1,65.17,101.57Z"/><circle class="cls-5" cx="229.24" cy="98.6" r="10.54"/><path class="cls-12" d="M239.53,94c5.19-3.51,9.23-6.6,9-6.89S244,89.45,238.81,93s-9.23,6.6-9,6.89S234.35,97.54,239.53,94Z"/><path class="cls-12" d="M221.41,106.31c5.18-3.51,9.22-6.6,9-6.89s-4.57,2.31-9.75,5.82-9.22,6.6-9,6.9S216.22,109.82,221.41,106.31Z"/><path class="cls-12" d="M235.71,109.06c3.51,5.19,6.6,9.23,6.89,9s-2.31-4.57-5.82-9.75-6.6-9.23-6.89-9S232.2,103.88,235.71,109.06Z"/><path class="cls-12" d="M223.43,90.94c3.51,5.18,6.6,9.22,6.89,9s-2.31-4.57-5.82-9.75-6.6-9.22-6.89-9S219.92,85.75,223.43,90.94Z"/><path class="cls-12" d="M232.81,89c1.18-6.15,1.85-11.19,1.5-11.26s-1.59,4.86-2.77,11S229.68,100,230,100,231.63,95.16,232.81,89Z"/><path class="cls-12" d="M228.67,110.51c1.19-6.15,1.86-11.19,1.51-11.26s-1.6,4.87-2.78,11-1.85,11.19-1.5,11.26S227.49,116.66,228.67,110.51Z"/><path class="cls-12" d="M240.73,102.34c6.15,1.18,11.19,1.86,11.26,1.5s-4.86-1.59-11-2.77-11.19-1.86-11.26-1.51S234.59,101.16,240.73,102.34Z"/><path class="cls-12" d="M219.23,98.21c6.15,1.18,11.19,1.85,11.26,1.5s-4.86-1.6-11-2.78-11.19-1.85-11.26-1.5S213.08,97,219.23,98.21Z"/><path class="cls-12" d="M241,98.1c6.13-1.24,11.05-2.52,11-2.88s-5.1.37-11.24,1.61-11.06,2.53-11,2.88S234.83,99.34,241,98.1Z"/><path class="cls-12" d="M219.5,102.44c6.14-1.24,11.06-2.53,11-2.88s-5.11.37-11.24,1.61-11.06,2.53-11,2.88S213.37,103.68,219.5,102.44Z"/><path class="cls-12" d="M231.64,110.5c1.24,6.13,2.53,11,2.88,11s-.37-5.1-1.61-11.24-2.53-11.06-2.88-11S230.4,104.36,231.64,110.5Z"/><path class="cls-12" d="M227.3,89c1.24,6.14,2.53,11.06,2.88,11s-.37-5.11-1.61-11.24-2.53-11.06-2.88-11S226.06,82.9,227.3,89Z"/><path class="cls-12" d="M236.7,90.87c3.46-5.21,6-9.6,5.73-9.8s-3.35,3.87-6.81,9.09-6,9.6-5.73,9.8S233.24,96.09,236.7,90.87Z"/><path class="cls-12" d="M224.59,109.12c3.46-5.22,6-9.61,5.73-9.81s-3.35,3.87-6.81,9.09-6,9.6-5.73,9.8S221.13,114.33,224.59,109.12Z"/><path class="cls-12" d="M238.87,106.23c5.21,3.46,9.6,6,9.8,5.73s-3.87-3.34-9.09-6.81-9.6-6-9.8-5.73S233.65,102.77,238.87,106.23Z"/><path class="cls-12" d="M220.63,94.12c5.21,3.46,9.6,6,9.8,5.73s-3.87-3.35-9.09-6.81-9.6-6-9.8-5.73S215.41,90.66,220.63,94.12Z"/><path class="cls-12" d="M233,75.13A24.77,24.77,0,1,0,254.25,103,24.77,24.77,0,0,0,233,75.13Zm15.13,27.05a18.64,18.64,0,1,1-16-20.79A18.55,18.55,0,0,1,248.17,102.18Z"/><path class="cls-13" d="M233,75.13A24.77,24.77,0,1,0,254.25,103,24.77,24.77,0,0,0,233,75.13Zm15.13,27.05c0,.14,0,.27-.07.41l-1.15-.27c0,.3,0,.6,0,.9,0,.07,0,.14,0,.2l.93.15a18.42,18.42,0,0,1-1.59,4.49,18.09,18.09,0,0,1-35.52-4.84,18.59,18.59,0,0,1,.28-3.09,18.55,18.55,0,0,1,.16-3c0-.23.09-.45.13-.67l.67.16c.13-.31.26-.62.4-.93l-.91-.13a18.26,18.26,0,0,1,2.58-6l1.66,1.21.81-.79c-.7-.44-1.37-.85-2-1.19a18.81,18.81,0,0,1,4.6-4.39c.47.77,1,1.66,1.63,2.62.36-.18.72-.36,1.08-.51-.69-1-1.35-1.87-1.92-2.63a18.58,18.58,0,0,1,6-2.29c.16,1.07.37,2.32.62,3.69.4-.05.81-.09,1.22-.11-.31-1.4-.61-2.68-.89-3.75a18.22,18.22,0,0,1,5.27,0c.3,0,.59.11.89.16-.27,1.12-.57,2.45-.87,3.89.41.08.8.17,1.2.28.26-1.48.48-2.84.64-4a18.85,18.85,0,0,1,5.72,2.45c-.66.9-1.42,2-2.23,3.14.36.2.71.42,1.06.64.75-1.18,1.43-2.28,2-3.23a18.35,18.35,0,0,1,4.27,4.3c-.84.51-1.79,1.12-2.83,1.78.29.3.57.59.83.91.95-.67,1.82-1.31,2.57-1.87a18.32,18.32,0,0,1,2.4,5.7c-.72.11-1.53.24-2.38.39.15.36.29.73.43,1.1l2.16-.52A18.15,18.15,0,0,1,248.17,102.18Z"/><path class="cls-14" d="M233.54,71.42A28.52,28.52,0,1,0,258,103.51,28.51,28.51,0,0,0,233.54,71.42ZM251,102.56a21.46,21.46,0,1,1-18.41-23.94A21.37,21.37,0,0,1,251,102.56Z"/><path class="cls-14" d="M233.68,100.22a4,4,0,1,1-3.44-4.48A4,4,0,0,1,233.68,100.22Z"/><path class="cls-15" d="M201.45,98.09a28.52,28.52,0,0,1,56.75,2.73,28.52,28.52,0,1,0-57,0C201.25,99.89,201.33,99,201.45,98.09Z"/><path class="cls-15" d="M226.85,123A21.36,21.36,0,0,0,251,104.81a20.91,20.91,0,0,0,.14-4c0,.59-.06,1.18-.14,1.77a21.47,21.47,0,0,1-42.67-1.75A21.36,21.36,0,0,0,226.85,123Z"/><path class="cls-16" d="M232.56,76.68a21.34,21.34,0,0,0-24.11,18.17,20.81,20.81,0,0,0-.16,3.77c0-.61.07-1.22.16-1.83a21.46,21.46,0,0,1,42.67,2A21.36,21.36,0,0,0,232.56,76.68Z"/><path class="cls-16" d="M258,101.57a28.51,28.51,0,0,1-56.75-2.91,28.51,28.51,0,1,0,57,.09A27.28,27.28,0,0,1,258,101.57Z"/><path class="cls-9" d="M154.07,22.59h0L154,40.4h1l1.27-16.94C156.29,23,155.3,22.59,154.07,22.59Z"/><polygon class="cls-6" points="153.23 89.79 76.18 87.72 76.18 90.14 153.23 92.21 153.23 89.79"/><path class="cls-12" d="M180.57,62c5.18-3.51,9.22-6.6,9-6.9s-4.56,2.31-9.75,5.82-9.22,6.6-9,6.9S175.39,65.53,180.57,62Z"/><path class="cls-12" d="M162.44,74.3c5.18-3.51,9.22-6.6,9-6.9s-4.56,2.31-9.75,5.83-9.22,6.59-9,6.89S157.26,77.81,162.44,74.3Z"/><path class="cls-12" d="M176.75,77.05c3.51,5.18,6.59,9.22,6.89,9s-2.31-4.56-5.82-9.75-6.6-9.22-6.9-9S173.23,71.87,176.75,77.05Z"/><path class="cls-12" d="M164.47,58.92c3.51,5.18,6.59,9.22,6.89,9s-2.31-4.56-5.82-9.75-6.6-9.22-6.9-9S161,53.74,164.47,58.92Z"/><path class="cls-12" d="M173.85,57c1.18-6.15,1.85-11.18,1.5-11.25s-1.59,4.86-2.78,11-1.85,11.19-1.5,11.25S172.66,63.14,173.85,57Z"/><path class="cls-12" d="M169.71,78.49c1.18-6.14,1.86-11.18,1.51-11.25s-1.6,4.86-2.78,11-1.86,11.19-1.51,11.26S168.53,84.64,169.71,78.49Z"/><path class="cls-12" d="M181.77,70.32c6.15,1.19,11.19,1.86,11.26,1.51s-4.87-1.6-11-2.78-11.19-1.85-11.26-1.5S175.62,69.14,181.77,70.32Z"/><path class="cls-12" d="M160.27,66.19c6.15,1.18,11.19,1.86,11.25,1.5s-4.86-1.59-11-2.77-11.18-1.86-11.25-1.51S154.12,65,160.27,66.19Z"/><path class="cls-12" d="M182,66.09c6.14-1.24,11.06-2.53,11-2.88s-5.11.37-11.25,1.61-11.05,2.53-11,2.88S175.86,67.33,182,66.09Z"/><path class="cls-12" d="M160.54,70.42c6.14-1.24,11.05-2.52,11-2.88s-5.1.37-11.24,1.61-11.05,2.53-11,2.88S154.4,71.66,160.54,70.42Z"/><path class="cls-12" d="M172.67,78.48c1.24,6.14,2.53,11.06,2.88,11s-.37-5.11-1.61-11.25-2.52-11-2.88-11S171.43,72.34,172.67,78.48Z"/><path class="cls-12" d="M168.34,57c1.24,6.14,2.53,11,2.88,11s-.37-5.1-1.61-11.24-2.53-11-2.88-11S167.1,50.88,168.34,57Z"/><path class="cls-12" d="M177.74,58.86c3.46-5.22,6-9.61,5.73-9.8s-3.35,3.87-6.81,9.08-6,9.61-5.73,9.81S174.27,64.08,177.74,58.86Z"/><path class="cls-12" d="M165.63,77.1c3.46-5.22,6-9.6,5.73-9.8s-3.35,3.87-6.81,9.08-6,9.61-5.73,9.81S162.16,82.32,165.63,77.1Z"/><path class="cls-12" d="M179.9,74.22c5.22,3.46,9.61,6,9.81,5.73s-3.87-3.35-9.09-6.81-9.6-6-9.8-5.73S174.69,70.75,179.9,74.22Z"/><path class="cls-12" d="M161.66,62.11c5.22,3.46,9.61,6,9.81,5.73s-3.87-3.35-9.09-6.81-9.61-6-9.8-5.73S156.45,58.64,161.66,62.11Z"/><path class="cls-12" d="M174.07,43.12A24.77,24.77,0,1,0,195.29,71,24.77,24.77,0,0,0,174.07,43.12Zm15.14,27.05a18.63,18.63,0,1,1-16-20.8A18.54,18.54,0,0,1,189.21,70.17Z"/><path class="cls-13" d="M174.07,43.12A24.77,24.77,0,1,0,195.29,71,24.77,24.77,0,0,0,174.07,43.12Zm15.14,27.05c0,.14-.06.27-.08.4L188,70.31c0,.3.05.59.05.9,0,.06,0,.13,0,.2l.93.14A18.28,18.28,0,0,1,187.36,76a18.09,18.09,0,0,1-35.52-4.83,18.4,18.4,0,0,1,.28-3.09,17.34,17.34,0,0,1,.16-3c0-.23.08-.45.12-.68l.68.17c.12-.32.25-.63.4-.94l-.91-.12a18.31,18.31,0,0,1,2.58-6c.49.38,1,.79,1.66,1.22.26-.28.53-.54.81-.8l-2-1.18a18.28,18.28,0,0,1,4.6-4.39c.46.77,1,1.66,1.63,2.61.36-.17.71-.35,1.08-.51-.7-1-1.35-1.87-1.92-2.62a18.75,18.75,0,0,1,6-2.3c.16,1.07.37,2.32.61,3.69.41-.05.81-.08,1.23-.1-.32-1.41-.62-2.68-.89-3.76a18.89,18.89,0,0,1,5.26,0c.31,0,.6.11.9.17-.27,1.12-.57,2.44-.88,3.89.41.07.81.17,1.21.27.25-1.47.47-2.83.63-4a18.64,18.64,0,0,1,5.72,2.45c-.66.9-1.42,2-2.22,3.14.36.19.71.42,1,.64.76-1.19,1.44-2.29,2-3.24a18.94,18.94,0,0,1,4.27,4.3c-.84.52-1.8,1.12-2.83,1.79.28.3.56.59.82.91.95-.68,1.82-1.31,2.58-1.88a18.26,18.26,0,0,1,2.39,5.7l-2.38.4c.16.35.3.72.43,1.09.78-.18,1.52-.35,2.17-.52A18.21,18.21,0,0,1,189.21,70.17Z"/><path class="cls-14" d="M174.58,39.41A28.51,28.51,0,1,0,199,71.5,28.52,28.52,0,0,0,174.58,39.41ZM192,70.55a21.46,21.46,0,1,1-18.4-23.94A21.35,21.35,0,0,1,192,70.55Z"/><path class="cls-14" d="M174.72,68.2a4,4,0,1,1-3.44-4.48A4,4,0,0,1,174.72,68.2Z"/><path class="cls-15" d="M142.48,66.07a28.52,28.52,0,0,1,56.75,2.73,28.52,28.52,0,0,0-56.75-5,29.34,29.34,0,0,0-.23,4.94C142.29,67.88,142.36,67,142.48,66.07Z"/><path class="cls-15" d="M167.88,91A21.36,21.36,0,0,0,192,72.79a20.8,20.8,0,0,0,.15-4c0,.58-.07,1.17-.15,1.77a21.47,21.47,0,0,1-42.67-1.75A21.38,21.38,0,0,0,167.88,91Z"/><path class="cls-16" d="M173.6,44.66a21.36,21.36,0,0,0-24.12,18.17,20.83,20.83,0,0,0-.15,3.77c0-.6.07-1.21.15-1.82a21.46,21.46,0,0,1,42.67,2A21.36,21.36,0,0,0,173.6,44.66Z"/><path class="cls-16" d="M199,69.56a28.52,28.52,0,0,1-56.76-2.91,28.52,28.52,0,1,0,57,.08A27.23,27.23,0,0,1,199,69.56Z"/><path class="cls-10" d="M73.07,96.22,192.6,98.47c4.16-27.24,25.3-44.61,59.11-35.4A3.17,3.17,0,0,0,250.18,62c-34.15-10.7-54.4,6.86-58.52,34.73L73.82,94.5C67,65.09,45.26,53.43,8.46,66.78a3.69,3.69,0,0,0-1.38.89C43.54,55.7,66.22,67.47,73.07,96.22Z"/><path class="cls-9" d="M53.77,28.81a3.5,3.5,0,1,0,3.5-3.5A3.5,3.5,0,0,0,53.77,28.81Z"/><path class="cls-7" d="M55.32,28.81a1.95,1.95,0,1,0,2-1.95A1.94,1.94,0,0,0,55.32,28.81Z"/><rect class="cls-9" x="59.6" y="28.82" width="96.25" height="2.06"/><path class="cls-14" d="M220.52,38.05c-3.59,0-6.48,2.15-6.48,4.75s2.89,4.71,6.48,4.75Z"/><path class="cls-16" d="M214.72,40.71A3.69,3.69,0,0,0,214,42.8c0,2.6,2.89,4.71,6.48,4.75V43.41C217.83,42.88,215.73,41.91,214.72,40.71Z"/><rect class="cls-8" x="219.65" y="37.36" width="1.81" height="11.06"/><path class="cls-8" d="M23.8,28.33c0,.36-1.85.61-4.13.56s-4.12-.37-4.12-.73,1.84-.61,4.12-.56S23.8,28,23.8,28.33Z"/><path class="cls-8" d="M38.18,23.34c-.09.45-4.75-.93-10.41-3.09S17.59,16,17.68,15.54s4.76.93,10.42,3.09S38.28,22.89,38.18,23.34Z"/><path class="cls-8" d="M31.46,23.65A23.92,23.92,0,0,1,26.15,23c-4.44-.85-10.51-2.47-10.08-3s8.31,1,12.74,2.29C31.3,23,32.09,23.54,31.46,23.65Z"/><path class="cls-8" d="M29.31,25.49c0,.36-3.21.35-7.12,0s-7.07-.94-7.06-1.3,3.21-.35,7.12,0S29.32,25.13,29.31,25.49Z"/><path class="cls-8" d="M47.94,25.22c-.13.41-6.52-2.31-14.26-6.08S19.77,12,19.9,11.58s6.53,2.31,14.27,6.08S48.08,24.81,47.94,25.22Z"/></g></g></svg>