<svg width="897" height="490" viewBox="0 0 897 490" fill="none" xmlns="http://www.w3.org/2000/svg">
<path d="M237.633 378L236.124 385.418H278.116L276.607 378H258H256.24H237.633Z" fill="#78F0AE"/>
<path d="M121.103 429.493H175.919H455.53H537L520.907 409H483.944L486.71 419.812H279.139L275.996 425.847H175.919L173.027 417.8H130.155L121.103 429.493ZM485.076 418.68L482.561 409.125H137.196L131.161 416.795H173.907L176.799 424.841H275.241L278.384 418.806H485.076V418.68ZM237.398 420.943H211.876L213.259 417.675H237.398V420.943Z" fill="url(#paint0_linear_44_2)"/>
<path d="M228 409V429.493H59.7805L73.8616 409H228Z" fill="url(#paint1_linear_44_2)"/>
<g filter="url(#filter0_i_44_2)">
<path d="M736.245 381.771L744.794 415.088H817.714H864.735L838.585 381.771H817.714H736.245Z" fill="#1994AF"/>
</g>
<g filter="url(#filter1_i_44_2)">
<path d="M838.584 381.771L864.735 415.088H889L864.484 381.771H838.584Z" fill="#2C7787"/>
</g>
<g filter="url(#filter2_i_44_2)">
<path d="M15.0681 382L-19 415H210.043H745L741.5 397L738.5 382H344.568H268.395H94.5605H36.2078H15.0681Z" fill="url(#paint2_linear_44_2)"/>
</g>
<path d="M457.01 461.103L457.764 465.881L464.931 466.132L464.805 461.103H457.01Z" fill="#00F0FF"/>
<path d="M475.742 461.103L476.371 466.384L483.663 466.635L483.412 461.103H475.742Z" fill="#00F0FF"/>
<path d="M494.477 461.103L495.231 467.012L502.271 467.138L502.146 461.103H494.477Z" fill="#00F0FF"/>
<path d="M513.209 461.103L513.838 467.515L521.004 467.767L520.878 461.103H513.209Z" fill="#00F0FF"/>
<path d="M531.941 461.103L532.57 468.018L539.61 468.269V461.103H531.941Z" fill="#00F0FF"/>
<path d="M550.55 461.103L551.178 468.647L558.093 468.772L558.219 461.103H550.55Z" fill="#00F0FF"/>
<path d="M569.157 461.103L569.786 469.15L576.7 469.401L576.826 461.103H569.157Z" fill="#00F0FF"/>
<path d="M587.763 461.103L588.266 469.652L595.181 469.904L595.433 461.103H587.763Z" fill="#00F0FF"/>
<path d="M606.371 461.103L606.874 470.281L613.663 470.407L614.166 461.103H606.371Z" fill="#00F0FF"/>
<path d="M625.104 461.103L625.481 470.784L632.271 471.035L632.773 461.103H625.104Z" fill="#00F0FF"/>
<path d="M643.712 461.103L643.963 471.287L650.627 471.538L651.381 461.103H643.712Z" fill="#00F0FF"/>
<path d="M662.318 461.103L662.57 479.082H668.604L669.987 461.103H662.318Z" fill="#00F0FF"/>
<path d="M680.926 461.103V479.082H686.96L688.595 461.103H680.926Z" fill="#00F0FF"/>
<path d="M699.659 461.103L699.407 479.082H705.442L707.328 461.103H699.659Z" fill="#00F0FF"/>
<path d="M718.267 461.103L718.015 479.082H724.05L726.062 461.103H718.267Z" fill="#00F0FF"/>
<path d="M737.125 461.103L736.496 479.082H742.531L744.794 461.103H737.125Z" fill="#00F0FF"/>
<path d="M755.732 461.103L754.978 479.082H761.013L763.527 461.103H755.732Z" fill="#00F0FF"/>
<path d="M603.857 479.082L606.371 485.745H756.989H780.123L780.877 479.082H771.951H761.012H754.978H742.531H736.496H724.049H718.015H705.442H699.407H686.961H680.926H668.605H662.57H650.123H644.089H631.768H625.733H613.286H607.251H603.857Z" fill="#63D0E8"/>
<path d="M436.265 444.382L437.02 452.68L653.643 453.811L657.289 461.103H662.318H669.987H680.925H688.595H699.658H707.328H718.266H726.061H737.124H744.794H755.732H763.526H773.459H783.517L785.025 444.382H625.984H436.265Z" fill="#1979AF"/>
<path d="M440.415 479.082L441.169 485.745H487.561H606.371L603.857 479.082H594.804H588.77H576.449H570.414H557.967H551.932H539.611H533.577H521.13H515.095H502.523H496.488H484.041H478.006H465.559H459.525H449.467H440.415Z" fill="url(#paint3_linear_44_2)"/>
<path d="M643.964 471.287L644.089 478.956H650.124L650.627 471.413L643.964 471.287ZM632.271 471.035L631.768 479.082H625.733L625.482 470.91L632.271 471.035ZM613.664 470.407L613.287 478.956H607.252L606.875 470.155L613.664 470.407ZM595.182 469.904L594.805 479.082H588.77L588.268 469.778L595.182 469.904ZM576.701 469.401L576.449 479.082H570.415L569.786 469.275L576.701 469.401ZM558.094 468.772L557.968 478.956H551.933L551.053 468.521L558.094 468.772ZM539.612 468.269V478.956H533.577L532.572 468.018L539.612 468.269ZM521.005 467.767L521.131 479.082H515.096L513.964 467.641L521.005 467.767ZM502.272 467.138L502.523 478.956H496.489L495.106 466.887L502.272 467.138ZM483.665 466.635L484.042 479.082H478.007L476.498 466.509L483.665 466.635ZM464.932 466.132L465.435 479.082H459.4L457.64 465.881L464.932 466.132Z" fill="url(#paint4_linear_44_2)"/>
<g filter="url(#filter3_i_44_2)">
<path d="M359.825 415.088L362.214 429.798L610.268 432.815L625.984 444.382H785.025H813.062L817.714 415.088H744.794H359.825Z" fill="#4C8BC8"/>
</g>
<path d="M362.213 429.798L364.476 444.382H436.265H625.983L610.268 432.815L362.213 429.798Z" fill="url(#paint5_linear_44_2)"/>
<path d="M437.02 452.68L437.901 461.103H447.959H457.011H464.806H475.744H483.413H494.477H502.146H513.21H520.879H531.943H539.612H550.55H558.219H569.157H576.826H587.764H595.434H606.372H614.166H625.105H632.774H643.712H651.381H657.29L653.644 453.811L437.02 452.68Z" fill="url(#paint6_linear_44_2)"/>
<path d="M447.958 461.103L448.335 465.629L457.765 465.881L457.01 461.103H447.958Z" fill="#21324D"/>
<path d="M448.336 465.629L449.467 479.082H459.525L457.765 465.881L448.336 465.629Z" fill="#39546E"/>
<path d="M464.804 461.103L464.93 466.132L476.371 466.384L475.742 461.103H464.804Z" fill="#21324D"/>
<path d="M464.931 466.132L465.559 479.082H478.006L476.371 466.384L464.931 466.132Z" fill="#39546E"/>
<path d="M483.412 461.103L483.664 466.635L495.23 467.012L494.476 461.103H483.412Z" fill="#21324D"/>
<path d="M483.663 466.635L484.041 479.082H496.487L495.23 467.012L483.663 466.635Z" fill="#39546E"/>
<path d="M487.561 485.745L488.819 492.157L584.747 498.946L592.919 549.613H748.063L756.989 485.745H606.371H487.561Z" fill="url(#paint7_diamond_44_2)"/>
<path d="M502.145 461.103L502.27 467.138L513.837 467.515L513.208 461.103H502.145Z" fill="#21324D"/>
<path d="M502.271 467.138L502.522 479.082H515.095L513.837 467.515L502.271 467.138Z" fill="#39546E"/>
<path d="M520.878 461.103L521.004 467.767L532.57 468.018L531.942 461.103H520.878Z" fill="#21324D"/>
<path d="M521.004 467.767L521.129 479.082H533.576L532.57 468.018L521.004 467.767Z" fill="#39546E"/>
<path d="M539.612 468.269V479.082H551.933L551.178 468.647L539.612 468.269Z" fill="#39546E"/>
<path d="M539.611 461.103V468.269L551.178 468.647L550.549 461.103H539.611Z" fill="#21324D"/>
<path d="M558.092 468.772L557.966 479.082H570.413L569.784 469.15L558.092 468.772Z" fill="#39546E"/>
<path d="M558.218 461.103L558.093 468.772L569.785 469.15L569.157 461.103H558.218Z" fill="#21324D"/>
<path d="M576.7 469.401L576.448 479.082H588.77L588.267 469.652L576.7 469.401Z" fill="#39546E"/>
<path d="M576.826 461.103L576.7 469.401L588.267 469.652L587.764 461.103H576.826Z" fill="#21324D"/>
<path d="M595.182 469.904L594.805 479.082H603.857H607.252L606.875 470.281L595.182 469.904Z" fill="#39546E"/>
<path d="M595.432 461.103L595.181 469.904L606.873 470.281L606.37 461.103H595.432Z" fill="#21324D"/>
<path d="M613.663 470.407L613.286 479.082H625.732L625.481 470.784L613.663 470.407Z" fill="#39546E"/>
<path d="M614.166 461.103L613.663 470.407L625.481 470.784L625.104 461.103H614.166Z" fill="#21324D"/>
<path d="M632.271 471.035L631.768 479.082H644.089L643.963 471.287L632.271 471.035Z" fill="#39546E"/>
<path d="M632.772 461.103L632.27 471.035L643.962 471.287L643.71 461.103H632.772Z" fill="#21324D"/>
<path d="M650.626 471.538L650.124 479.082H662.57L662.319 461.103H657.29H651.381L650.626 471.538Z" fill="#21324D"/>
<path d="M669.988 461.103L668.605 479.082H680.926V461.103H669.988Z" fill="#21324D"/>
<path d="M688.595 461.103L686.961 479.082H699.408L699.659 461.103H688.595Z" fill="#21324D"/>
<path d="M707.329 461.103L705.443 479.082H718.015L718.267 461.103H707.329Z" fill="#21324D"/>
<path d="M726.061 461.103L724.05 479.082H736.496L737.125 461.103H726.061Z" fill="#21324D"/>
<path d="M744.793 461.103L742.53 479.082H754.977L755.731 461.103H744.793Z" fill="#21324D"/>
<path d="M763.527 461.103L761.012 479.082H771.95L773.459 461.103H763.527Z" fill="#21324D"/>
<path d="M482.407 415.717L517.233 399.121H751.709V397.864H516.981H516.855L481.778 414.585L482.407 415.717Z" fill="#3E6299" fill-opacity="0.08"/>
<path d="M207.322 399.121H336.441L349.517 382.148L348.511 381.394L335.813 397.864H207.322V399.121Z" fill="#AF1E19"/>
<g filter="url(#filter4_i_44_2)">
<path d="M537 382L529.588 415H26L56.0471 382H537Z" fill="url(#paint8_linear_44_2)"/>
</g>
<path d="M697.773 405.156H720.78V408.299H697.773V405.156Z" fill="#00FFD0"/>
<path d="M72.5764 389.669L71.5706 390.926H114.317L117.209 398.973H217.286L220.429 392.938H428L425.108 382H423.851L426.366 391.681H219.674L216.531 397.715H118.089L115.323 389.669H72.5764Z" fill="#00FFFF"/>
<path d="M148.487 389.605L146.978 393H172.5V389.605H148.487Z" fill="#00FFD0"/>
<path d="M824.491 385.009C830.254 385.009 834.926 376.847 834.926 366.779C834.926 356.711 830.254 348.549 824.491 348.549C818.728 348.549 814.056 356.711 814.056 366.779C814.056 376.847 818.728 385.009 824.491 385.009Z" fill="url(#paint9_radial_44_2)"/>
<path d="M827.006 380.86C831.173 380.86 834.55 375.006 834.55 367.785C834.55 360.563 831.173 354.709 827.006 354.709C822.84 354.709 819.463 360.563 819.463 367.785C819.463 375.006 822.84 380.86 827.006 380.86Z" fill="url(#paint10_radial_44_2)"/>
<path opacity="0.82" fill-rule="evenodd" clip-rule="evenodd" d="M833.795 358.104C833.795 358.104 832.412 381.237 824.617 385.009C824.617 385.009 823.485 385.386 821.977 384.38L831.28 352.824C831.28 352.824 833.04 355.338 833.795 358.104Z" fill="url(#paint11_linear_44_2)"/>
<path fill-rule="evenodd" clip-rule="evenodd" d="M847.122 348.423C841.213 350.938 838.321 338.742 827.006 335.474L830.526 323.655C830.526 323.655 840.207 328.056 843.476 334.216C846.745 340.377 847.122 348.423 847.122 348.423Z" fill="url(#paint12_radial_44_2)"/>
<path fill-rule="evenodd" clip-rule="evenodd" d="M832.285 328.182C832.285 328.182 844.355 331.576 846.995 348.549C846.995 348.549 848.629 327.176 830.399 309.951L832.285 328.182Z" fill="url(#paint13_radial_44_2)"/>
<path opacity="0.82" fill-rule="evenodd" clip-rule="evenodd" d="M829.017 336.982L837.063 330.696L834.423 314.1L830.525 309.826L832.285 337.988L829.017 336.982Z" fill="url(#paint14_linear_44_2)"/>
<path d="M740.381 385.009C749.338 385.009 756.599 376.847 756.599 366.779C756.599 356.711 749.338 348.549 740.381 348.549C731.423 348.549 724.162 356.711 724.162 366.779C724.162 376.847 731.423 385.009 740.381 385.009Z" fill="url(#paint15_radial_44_2)"/>
<path d="M744.153 380.86C750.541 380.86 755.719 375.006 755.719 367.785C755.719 360.563 750.541 354.709 744.153 354.709C737.765 354.709 732.586 360.563 732.586 367.785C732.586 375.006 737.765 380.86 744.153 380.86Z" fill="url(#paint16_radial_44_2)"/>
<path opacity="0.82" fill-rule="evenodd" clip-rule="evenodd" d="M754.085 357.224C754.085 357.224 744.027 383.249 735.226 384.129C735.226 384.129 732.586 383.375 731.077 381.866L749.684 351.944C749.684 351.944 752.702 353.955 754.085 357.224Z" fill="url(#paint17_linear_44_2)"/>
<path fill-rule="evenodd" clip-rule="evenodd" d="M767.914 354.584C765.4 358.104 759.868 345.657 750.564 342.514L755.719 334.593C755.719 334.593 761.628 337.862 764.52 342.263C767.537 346.789 767.914 354.584 767.914 354.584Z" fill="url(#paint18_radial_44_2)"/>
<path fill-rule="evenodd" clip-rule="evenodd" d="M767.915 354.584C765.651 345.029 761.251 340.251 758.359 337.988C756.599 336.605 755.468 336.228 755.468 336.228L759.114 319.381C761 322.272 762.508 325.29 763.766 328.559C768.292 341.131 767.915 354.584 767.915 354.584Z" fill="url(#paint19_radial_44_2)"/>
<path opacity="0.82" fill-rule="evenodd" clip-rule="evenodd" d="M763.515 328.559L758.234 337.108V338.114L752.325 343.269L752.954 343.771L758.863 319.507C760.874 322.272 762.383 325.29 763.515 328.559Z" fill="url(#paint20_linear_44_2)"/>
<path fill-rule="evenodd" clip-rule="evenodd" d="M687.577 195.542C687.577 195.542 675.13 136.074 706.938 116.713C738.747 97.3511 725.043 151.413 721.397 166.625C717.625 181.964 693.234 197.051 693.234 197.051L687.577 195.542Z" fill="url(#paint21_radial_44_2)"/>
<path fill-rule="evenodd" clip-rule="evenodd" d="M705.053 123.879C705.053 123.879 699.144 138.463 694.743 173.037L686.571 187.496L693.109 197.051L705.053 200.697L714.356 190.513C714.356 190.513 727.809 154.807 731.581 148.018L728.941 149.527L711.213 138.086L705.053 123.879Z" fill="url(#paint22_radial_44_2)"/>
<path fill-rule="evenodd" clip-rule="evenodd" d="M842.093 204.971C842.093 204.971 841.716 219.933 838.321 230.745L842.093 232.757H847.751L850.014 228.356C850.014 228.356 861.077 221.693 867.489 209.875L863.215 204.971H847.625H842.093Z" fill="url(#paint23_radial_44_2)"/>
<path fill-rule="evenodd" clip-rule="evenodd" d="M842.218 182.592L834.423 187.496L842.092 204.971H847.624L857.933 208.366V186.113L842.218 182.592Z" fill="url(#paint24_radial_44_2)"/>
<path fill-rule="evenodd" clip-rule="evenodd" d="M836.436 135.949C836.436 135.949 838.321 143.366 844.356 148.018H853.031C853.031 148.018 851.774 139.469 857.809 132.554L836.436 135.949Z" fill="url(#paint25_radial_44_2)"/>
<path fill-rule="evenodd" clip-rule="evenodd" d="M757.983 325.416C751.948 358.23 730.826 385.386 726.552 385.009C725.672 384.883 724.917 384.003 724.163 382.495C722.151 378.346 720.643 369.419 720.266 358.104C720.266 357.224 720.266 356.218 720.266 355.212C720.266 349.68 720.517 343.646 721.271 337.359C723.157 320.512 727.055 307.814 729.695 301.025C731.078 297.505 731.958 295.493 731.958 295.493C731.958 295.493 742.016 278.52 748.805 278.52C758.109 278.52 764.018 292.601 757.983 325.416Z" fill="url(#paint26_radial_44_2)"/>
<path d="M740.507 348.549C736.483 360.996 731.58 368.036 727.18 368.036C727.054 368.036 726.928 368.036 726.803 368.036C723.785 367.659 721.396 364.013 720.391 358.104C720.391 357.224 720.391 356.218 720.391 355.212C721.145 362.504 723.659 367.282 726.928 367.659C731.329 368.162 736.232 361.121 740.381 348.423C748.93 322.398 745.41 296.247 745.41 295.996H745.787C745.536 296.247 749.056 322.398 740.507 348.549Z" fill="#7A60A0"/>
<path opacity="0.5" fill-rule="evenodd" clip-rule="evenodd" d="M757.982 325.416C751.947 358.23 730.826 385.386 726.551 385.009C725.671 384.883 724.916 384.003 724.162 382.495C755.593 356.47 745.661 307.311 745.661 307.311L729.694 301.025C731.077 297.505 731.957 295.493 731.957 295.493C731.957 295.493 742.015 278.52 748.804 278.52C758.108 278.52 764.017 292.601 757.982 325.416Z" fill="url(#paint27_linear_44_2)"/>
<path fill-rule="evenodd" clip-rule="evenodd" d="M750.565 281.789C750.565 283.549 750.313 285.184 749.811 286.818C748.428 292.099 745.536 295.745 745.284 295.996C741.261 298.008 735.226 297.505 735.226 297.505C729.569 294.99 726.174 290.967 724.037 287.321C721.397 282.669 720.894 278.646 720.894 278.646C720.642 277.137 720.642 274.246 720.768 271.605C720.768 268.965 720.894 266.576 720.894 266.576H744.027C746.165 274.874 750.313 281.286 750.565 281.789Z" fill="url(#paint28_radial_44_2)"/>
<path opacity="0.82" fill-rule="evenodd" clip-rule="evenodd" d="M750.565 281.789C750.439 283.675 750.188 285.309 749.811 286.818C748.428 293.356 745.536 295.87 745.284 295.996C741.136 294.362 736.735 284.807 736.735 284.807L724.037 287.321C721.397 282.669 720.894 278.646 720.894 278.646C720.642 277.137 720.642 274.246 720.768 271.605L735.352 266.576H744.027C746.165 274.874 750.313 281.286 750.565 281.789Z" fill="url(#paint29_linear_44_2)"/>
<path fill-rule="evenodd" clip-rule="evenodd" d="M719.385 282.795H722.151C722.151 282.795 721.271 278.269 723.157 277.012L721.271 275.629C721.271 275.503 719.008 280.658 719.385 282.795Z" fill="url(#paint30_radial_44_2)"/>
<path fill-rule="evenodd" clip-rule="evenodd" d="M761.628 203.84C760.371 213.144 748.427 261.673 746.541 265.948C744.656 270.222 738.495 280.155 732.586 280.406C726.803 280.658 723.282 276.006 721.774 276.76C720.265 277.514 719.385 282.795 719.385 282.795C719.385 282.795 705.932 255.01 709.453 223.327C712.973 191.645 728.311 175.3 740.129 167.631C740.129 167.631 762.76 194.536 761.628 203.84Z" fill="url(#paint31_radial_44_2)"/>
<path fill-rule="evenodd" clip-rule="evenodd" d="M822.353 384.003C821.85 384.506 821.222 384.883 820.719 384.883C816.57 385.386 811.038 378.723 806.261 367.911C805.758 366.653 805.129 365.396 804.626 364.139C802.74 359.361 800.98 354.081 799.471 348.423C795.7 333.839 795.448 315.106 795.7 304.671C795.825 299.893 795.951 296.876 795.951 296.876C796.328 288.075 813.804 278.52 813.804 278.52C813.804 278.52 828.137 286.064 831.28 317.746C834.549 346.663 828.388 378.346 822.353 384.003Z" fill="url(#paint32_radial_44_2)"/>
<path d="M824.742 357.601C823.862 371.431 819.839 374.825 816.696 375.203C816.444 375.203 816.193 375.203 815.941 375.203C812.421 375.203 808.775 371.934 806.386 368.036C805.883 366.779 805.255 365.522 804.752 364.264H804.878C806.889 369.922 812.044 375.58 816.57 374.951C820.845 374.322 823.611 368.288 824.239 357.601C826.377 324.284 812.798 291.47 812.673 291.093L813.05 290.967C813.175 291.218 826.879 324.284 824.742 357.601Z" fill="#7A60A0"/>
<path opacity="0.5" fill-rule="evenodd" clip-rule="evenodd" d="M822.353 384.003L820.719 384.883C820.719 384.883 827.634 372.059 826.879 344.903C826.125 317.746 820.09 304.671 820.09 304.671H795.825C795.951 299.893 796.077 296.876 796.077 296.876C796.454 288.075 813.93 278.52 813.93 278.52C813.93 278.52 828.262 286.064 831.405 317.746C834.548 346.663 828.388 378.346 822.353 384.003Z" fill="url(#paint33_linear_44_2)"/>
<path fill-rule="evenodd" clip-rule="evenodd" d="M767.789 106.529C764.395 120.862 757.48 133.057 749.056 140.726C741.387 147.767 732.586 151.036 723.911 148.647C711.716 145.252 704.173 127.651 702.287 109.295C702.287 109.169 702.287 109.044 702.287 109.044C701.658 102.506 701.658 95.8424 702.538 89.8077C706.184 63.7827 724.791 50.833 738.747 50.833C761.126 51.0845 774.327 79.121 767.789 106.529Z" fill="url(#paint34_radial_44_2)"/>
<path opacity="0.5" fill-rule="evenodd" clip-rule="evenodd" d="M749.057 140.852C741.387 147.892 732.587 151.161 723.912 148.772C711.716 145.378 704.173 127.776 702.287 109.421C702.539 110.929 703.544 118.85 706.939 125.388C706.939 125.388 711.465 129.914 715.362 123.25C715.362 123.25 704.047 93.2022 710.459 70.8232L746.165 124.005L749.057 140.852Z" fill="url(#paint35_linear_44_2)"/>
<path fill-rule="evenodd" clip-rule="evenodd" d="M845.235 95.591C840.583 106.78 831.279 117.216 822.227 125.011C814.809 131.422 807.643 136.074 803.494 137.96C794.191 142.109 788.659 141.229 777.343 139.72C766.028 138.212 750.564 141.229 750.564 141.229L750.438 148.018C749.935 148.018 749.433 147.892 748.93 147.892C742.392 147.012 740.129 144.875 739.877 144.624C733.34 140.475 727.934 134.566 723.659 128.028C723.533 127.902 723.533 127.776 723.408 127.651C723.156 127.399 723.03 127.022 722.779 126.771C722.527 126.394 722.276 126.016 722.025 125.639C722.025 125.639 722.025 125.639 722.025 125.513C722.025 125.513 722.025 125.513 722.025 125.388C721.899 125.136 721.773 125.011 721.647 124.759C721.396 124.382 721.144 124.005 721.019 123.628C720.767 123.25 720.516 122.873 720.39 122.496C719.761 121.239 719.133 119.982 718.504 118.724C718.379 118.473 718.253 118.221 718.127 117.97C718.127 117.844 718.001 117.719 718.001 117.719C709.704 99.4884 707.692 78.8696 710.961 68.8116C713.475 61.1424 719.762 55.1076 726.802 49.5757C734.346 43.6667 742.643 38.3863 748.427 32.2257C759.491 20.2819 768.543 10.3497 789.287 9.97248C810.032 9.72104 815.941 19.0247 823.484 27.9511C828.01 33.3573 832.285 36.2489 836.56 38.8892C839.451 40.6493 842.343 42.2837 845.36 44.421C845.235 44.2953 855.796 70.446 845.235 95.591Z" fill="url(#paint36_radial_44_2)"/>
<path d="M759.115 140.097L754.338 134.943C754.338 134.943 751.572 128.782 750.943 108.918H751.321C751.949 128.028 754.589 134.314 754.715 134.691L759.493 139.846L759.115 140.097Z" fill="#7A60A0"/>
<path opacity="0.5" fill-rule="evenodd" clip-rule="evenodd" d="M822.354 125.011C814.936 131.423 807.77 136.074 803.621 137.96C794.317 142.109 788.785 141.229 777.47 139.72C766.155 138.212 750.691 141.229 750.691 141.229L750.565 148.018C750.062 148.018 749.559 147.892 749.056 147.892C745.788 147.39 742.77 146.258 740.004 144.624C733.089 140.6 727.558 133.811 723.786 128.028C723.66 127.902 723.66 127.776 723.534 127.651C723.283 127.399 723.157 127.022 722.906 126.771C722.654 126.394 722.403 126.016 722.151 125.639C728.438 134.44 737.238 138.212 737.238 138.212C768.795 130.92 792.306 132.303 792.306 132.303C801.232 130.417 803.621 121.49 803.621 121.49C796.203 87.7961 807.393 64.0341 807.393 64.0341L822.354 125.011Z" fill="url(#paint37_linear_44_2)"/>
<path opacity="0.82" fill-rule="evenodd" clip-rule="evenodd" d="M807.015 70.6975C807.015 70.6975 794.694 98.9855 807.895 135.571C807.895 135.571 815.187 131.171 821.096 126.016L813.679 89.4305L807.015 70.6975Z" fill="url(#paint38_linear_44_2)"/>
<path opacity="0.82" fill-rule="evenodd" clip-rule="evenodd" d="M761.629 203.84C760.372 213.143 748.428 261.673 746.542 265.948C744.656 270.222 738.495 280.155 732.586 280.406C728.94 224.459 745.662 185.233 745.662 185.233C745.662 185.233 762.76 194.536 761.629 203.84Z" fill="url(#paint39_linear_44_2)"/>
<path fill-rule="evenodd" clip-rule="evenodd" d="M836.435 38.7634C836.057 38.7634 826 37.7576 813.679 47.4384C801.106 57.3707 783.379 94.8366 771.687 103.009C759.994 111.055 738.244 109.798 733.34 106.278C728.814 103.134 723.534 94.3337 721.774 80.3783C720.014 66.4228 726.803 49.45 726.803 49.45C734.346 43.541 742.644 38.2605 748.427 32.1C759.491 20.1562 768.543 10.2239 789.288 9.84675C810.033 9.5953 815.942 18.8989 823.485 27.8254C825.748 30.5913 828.011 32.7286 830.274 34.4888C832.286 36.1232 834.297 37.5062 836.435 38.7634Z" fill="url(#paint40_radial_44_2)"/>
<path fill-rule="evenodd" clip-rule="evenodd" d="M830.149 34.4888C820.091 33.9859 809.908 35.3689 794.569 43.7924C791.3 45.6783 787.654 47.3127 783.883 48.8214C783.883 48.8214 783.883 48.8214 783.757 48.8214C770.304 54.3533 755.846 57.1192 751.571 52.4674C746.165 46.4326 748.302 32.1 748.302 32.1C759.366 20.1562 768.418 10.2239 789.163 9.84675C796.958 9.72103 802.741 10.9783 807.267 13.1156C814.685 16.5102 818.708 22.2935 823.36 27.8254C825.749 30.5913 827.886 32.7286 830.149 34.4888Z" fill="url(#paint41_radial_44_2)"/>
<path fill-rule="evenodd" clip-rule="evenodd" d="M753.959 48.6957C758.234 51.3359 770.681 49.9529 779.733 46.3069C788.785 42.6609 796.454 35.6203 797.209 32.2257C797.963 28.8312 784.636 12.9899 773.07 15.0015C761.377 17.0131 754.211 26.191 752.199 32.2257C749.936 38.2605 751.319 47.0613 753.959 48.6957Z" fill="url(#paint42_radial_44_2)"/>
<path opacity="0.5" fill-rule="evenodd" clip-rule="evenodd" d="M830.148 34.4888C820.091 33.9859 809.907 35.3689 794.568 43.7924C791.3 45.6783 787.654 47.3127 783.882 48.8214C784.762 48.4442 792.557 44.9239 799.472 39.6435C807.015 34.1116 808.775 32.4772 808.775 32.4772C808.775 32.4772 802.363 22.4192 791.048 22.9221L786.522 19.1504L807.141 12.9899C814.559 16.3844 818.582 22.1678 823.234 27.6996C825.748 30.5913 827.885 32.7286 830.148 34.4888Z" fill="url(#paint43_linear_44_2)"/>
<path fill-rule="evenodd" clip-rule="evenodd" d="M842.218 2.05183C841.967 3.18336 837.441 4.4406 827.131 7.33226C827.006 7.33226 827.006 7.33226 826.88 7.33226C824.365 8.08661 821.474 8.84096 818.205 9.84676C817.576 9.97248 816.948 10.2239 816.319 10.3497C816.193 10.3497 816.193 10.3497 816.068 10.3497C799.22 15.2529 772.944 23.5507 767.789 24.3051C762.383 25.0594 760.749 22.042 763.766 18.2703C764.646 17.1388 766.029 16.0073 767.663 14.8757C776.338 9.09241 786.019 5.4464 795.574 3.30908C795.826 3.18336 796.203 3.18335 796.454 3.05762C799.598 2.30328 802.741 1.80038 805.758 1.29748C806.261 1.17175 806.764 1.17176 807.267 1.04603C814.559 0.0402353 821.348 -0.0854932 826.88 0.0402315C836.309 0.291681 842.344 1.54893 842.218 2.05183Z" fill="url(#paint44_radial_44_2)"/>
<path fill-rule="evenodd" clip-rule="evenodd" d="M820.593 32.4772C810.032 32.9801 807.895 24.3051 807.644 23.1736V23.0478C814.056 13.9957 836.686 11.3555 838.195 14.8757C840.08 19.1504 820.593 32.4772 820.593 32.4772Z" fill="url(#paint45_radial_44_2)"/>
<path fill-rule="evenodd" clip-rule="evenodd" d="M874.278 96.7225C873.649 116.964 865.477 134.063 856.173 136.954C840.08 141.858 816.319 131.423 807.895 102.757C807.895 102.632 807.895 102.632 807.895 102.632C807.392 100.746 806.889 98.8598 806.386 96.8482C799.849 64.4113 813.553 47.5642 830.148 41.7809C846.744 35.9975 866.86 54.7305 872.015 75.3493C873.9 82.5156 874.529 89.8077 874.278 96.7225Z" fill="url(#paint46_radial_44_2)"/>
<path opacity="0.5" fill-rule="evenodd" clip-rule="evenodd" d="M874.278 96.7225C873.649 116.964 865.477 134.063 856.174 136.954C840.081 141.858 816.319 131.422 807.896 102.757C808.65 104.769 816.57 124.382 828.389 128.908C828.389 128.908 833.92 130.542 838.321 121.364C838.321 121.364 819.336 98.2312 824.491 67.5544L863.34 115.078L874.278 96.7225Z" fill="url(#paint47_linear_44_2)"/>
<path fill-rule="evenodd" clip-rule="evenodd" d="M750.565 141.229C750.565 141.229 750.314 152.041 750.942 159.208C750.942 159.208 754.086 167.505 764.395 165.62C764.395 165.62 771.687 152.418 784.637 150.533V140.6C784.637 140.6 766.407 136.451 750.565 141.229Z" fill="url(#paint48_radial_44_2)"/>
<path fill-rule="evenodd" clip-rule="evenodd" d="M814.558 284.932C814.432 285.309 814.432 285.812 814.307 286.19C814.181 286.567 814.181 286.818 814.055 287.195C813.929 287.572 813.929 287.95 813.804 288.201C812.798 291.973 811.163 294.487 810.786 295.242C810.661 295.367 810.66 295.367 810.66 295.367C802.614 298.762 796.076 297.002 796.076 297.002C790.67 293.356 787.653 287.447 786.144 282.669C784.887 278.646 784.51 275.629 784.51 275.629C791.676 272.988 814.181 272.108 814.181 272.108L814.558 284.932Z" fill="url(#paint49_radial_44_2)"/>
<path opacity="0.82" fill-rule="evenodd" clip-rule="evenodd" d="M814.559 284.932C814.433 285.309 814.433 285.812 814.308 286.19C814.182 286.567 814.182 286.818 814.056 287.195C813.931 287.572 813.931 287.95 813.805 288.201C812.673 292.224 811.29 294.613 810.787 295.242C810.662 295.367 810.662 295.367 810.662 295.367C803.621 292.727 800.604 282.041 800.604 282.041L786.271 282.543C785.014 278.52 784.637 275.503 784.637 275.503C791.803 272.863 814.308 271.983 814.308 271.983L814.559 284.932Z" fill="url(#paint50_linear_44_2)"/>
<path opacity="0.82" fill-rule="evenodd" clip-rule="evenodd" d="M705.053 123.879C705.053 123.879 705.681 158.705 715.865 181.209L712.596 187.496L694.743 173.037L686.571 187.496C686.571 187.496 692.103 186.741 697.761 188.25V194.411L704.927 200.697L714.231 190.513L730.701 149.527L705.053 123.879Z" fill="url(#paint51_linear_44_2)"/>
<path fill-rule="evenodd" clip-rule="evenodd" d="M792.431 161.345C791.802 161.974 773.321 180.455 768.543 198.308C768.166 199.817 767.789 201.325 767.663 202.834C767.663 202.834 766.909 202.834 765.526 202.96C763.766 203.211 761.251 203.714 758.485 204.971C758.485 204.971 739.501 187.621 740.13 167.631C740.13 167.631 747.799 161.219 750.816 157.196L750.942 159.208C750.942 159.208 756.474 165.997 764.52 159.711C767.537 157.322 770.178 155.562 772.566 154.179C777.093 151.664 780.739 150.658 784.636 150.658C784.636 150.658 787.402 155.687 792.431 161.345Z" fill="url(#paint52_radial_44_2)"/>
<path d="M754.463 200.948V200.571L765.904 199.691V200.068L754.463 200.948Z" fill="#7A60A0"/>
<path opacity="0.5" fill-rule="evenodd" clip-rule="evenodd" d="M792.431 161.345L768.543 198.308L765.526 202.96C763.766 203.211 761.251 203.714 758.485 204.971C758.485 204.971 739.501 187.621 740.13 167.631C740.13 167.631 742.393 187.873 750.942 189.633C759.491 191.393 771.435 176.306 774.075 167.631C775.961 161.596 773.949 156.567 772.566 154.179C777.093 151.664 780.739 150.658 784.636 150.658C784.636 150.658 787.402 155.687 792.431 161.345Z" fill="url(#paint53_linear_44_2)"/>
<path fill-rule="evenodd" clip-rule="evenodd" d="M810.536 278.017C806.638 280.155 803.621 280.155 799.095 278.017C794.569 275.88 792.557 273.743 784.636 275.503L786.271 282.543L787.277 285.184C787.277 285.184 779.104 280.029 777.47 278.143C777.47 278.143 761 244.323 765.275 204.846C769.046 169.894 792.431 161.219 792.431 161.219C794.82 163.482 797.586 165.745 800.603 168.386C809.53 176.432 819.839 187.621 823.862 209.497C829.394 238.791 814.433 276.006 810.536 278.017Z" fill="url(#paint54_radial_44_2)"/>
<path fill-rule="evenodd" clip-rule="evenodd" d="M844.355 148.018C844.355 148.018 845.235 168.008 842.218 182.718L849.887 184.478L853.03 148.018H844.355Z" fill="url(#paint55_radial_44_2)"/>
<path fill-rule="evenodd" clip-rule="evenodd" d="M881.57 140.223C881.57 140.223 891.502 132.554 895.399 132.554C899.297 132.554 897.034 179.701 877.798 200.697L881.57 140.223Z" fill="url(#paint56_radial_44_2)"/>
<path opacity="0.5" fill-rule="evenodd" clip-rule="evenodd" d="M810.535 278.017C806.638 280.155 803.62 280.155 799.094 278.017C794.568 275.88 792.557 273.743 784.636 275.503L786.27 282.543L787.276 285.184C787.276 285.184 779.104 280.029 777.47 278.143C777.47 278.143 780.739 271.983 794.82 271.983L792.431 264.439C792.431 264.439 775.961 244.952 780.739 216.161L797.586 183.347C797.586 183.347 802.489 175.803 800.603 168.637C809.529 176.683 819.839 187.873 823.862 209.749C829.394 238.791 814.433 276.006 810.535 278.017Z" fill="url(#paint57_linear_44_2)"/>
<path fill-rule="evenodd" clip-rule="evenodd" d="M891.125 167.631C889.617 181.209 884.085 192.776 877.673 200.697C871.009 208.995 863.214 213.395 857.808 212.012C852.402 210.629 843.601 182.215 849.133 152.419C852.779 133.183 873.775 112.69 880.69 113.067C884.21 113.192 887.605 120.233 889.742 130.668C891.754 140.852 892.634 154.053 891.125 167.631Z" fill="url(#paint58_radial_44_2)"/>
<path fill-rule="evenodd" clip-rule="evenodd" d="M830.399 212.263C830.399 212.263 830.651 197.679 834.423 187.496H844.229L846.241 199.817C846.241 199.817 841.463 206.103 838.32 213.898H834.423L830.399 212.263Z" fill="url(#paint59_radial_44_2)"/>
<path fill-rule="evenodd" clip-rule="evenodd" d="M706.938 134.943C706.938 134.943 707.567 148.018 715.236 152.418C722.78 156.945 729.066 149.527 729.066 149.527C729.066 149.527 729.569 138.84 723.408 134.817C716.871 130.417 706.938 134.943 706.938 134.943Z" fill="url(#paint60_radial_44_2)"/>
<path fill-rule="evenodd" clip-rule="evenodd" d="M687.577 200.697L691.852 227.853H697.887V223.201L701.91 218.675L705.179 200.571L696.378 193.028C696.378 193.153 692.732 194.285 687.577 200.697Z" fill="url(#paint61_radial_44_2)"/>
<path fill-rule="evenodd" clip-rule="evenodd" d="M686.697 187.496C686.697 187.496 693.109 186.616 697.887 188.25C697.887 188.25 695.372 202.708 694.869 209.749H686.697C686.697 209.875 684.434 196.799 686.697 187.496Z" fill="url(#paint62_radial_44_2)"/>
<path d="M773.069 110.049L771.938 113.947L789.036 112.564L804.752 98.9855L803.369 87.6703L786.522 109.043L773.069 110.049Z" fill="white"/>
<path d="M712.722 102.632L719.888 112.564H731.58L732.838 115.707H719.134L715.99 112.815C715.99 112.815 713.727 107.032 712.722 102.632Z" fill="white"/>
<path fill-rule="evenodd" clip-rule="evenodd" d="M858.311 123.502C856.299 124.005 854.162 124.005 852.024 123.628C840.961 121.49 829.897 107.786 825.622 89.4304C822.353 75.2236 823.862 61.771 828.891 53.2217C831.657 48.5699 835.303 45.4268 839.829 44.421C852.779 41.4036 867.363 56.6163 872.517 78.4924C877.672 100.368 871.26 120.484 858.311 123.502Z" fill="url(#paint63_radial_44_2)"/>
<path fill-rule="evenodd" clip-rule="evenodd" d="M856.675 116.587C856.549 116.587 856.424 116.587 856.424 116.587C856.172 116.587 855.795 116.713 855.544 116.713C854.286 116.838 852.903 116.838 851.646 116.587C847.497 115.833 843.223 112.941 839.577 108.666C835.302 103.637 831.782 96.471 829.77 88.2989C827.004 76.6065 828.387 65.417 832.536 58.3764C832.913 57.7478 833.416 56.9935 833.793 56.4906C835.051 54.7304 836.559 53.3475 838.319 52.4674C839.325 51.9645 840.331 51.4616 841.462 51.2101C852.149 48.6957 864.219 61.2681 868.368 79.3725C872.768 97.4768 867.487 114.198 856.675 116.587Z" fill="url(#paint64_radial_44_2)"/>
<path fill-rule="evenodd" clip-rule="evenodd" d="M851.52 116.713C842.343 114.953 833.29 103.637 829.77 88.5504C827.004 76.858 828.387 65.6685 832.536 58.6279C841.714 60.388 850.766 71.7033 854.286 86.7902C857.052 98.4826 855.795 109.672 851.52 116.713Z" fill="url(#paint65_radial_44_2)"/>
<path d="M863.842 78.8696C860.196 67.5543 853.281 58.125 845.863 54.3533C843.349 53.096 840.709 52.4674 838.32 52.5931C836.56 53.5989 835.051 54.9819 833.794 56.6163C834.548 56.1134 835.177 55.7362 836.057 55.4848C837.063 55.1076 838.069 54.9819 839.074 54.9819C840.96 54.9819 842.846 55.4848 844.858 56.4906C851.773 59.8851 858.184 68.8116 861.579 79.4982C866.734 95.8424 863.842 111.558 854.916 114.701L854.664 114.827C853.407 115.204 852.15 115.33 850.767 115.204C846.995 114.827 843.098 112.564 839.703 108.918C843.349 113.192 847.498 115.958 851.773 116.838C853.03 117.09 854.413 117.09 855.67 116.964L855.419 116.084L855.67 116.964L855.796 117.216L855.67 116.964C856.173 116.838 856.173 116.964 856.802 116.713C866.105 112.312 869.374 95.7167 863.842 78.8696Z" fill="white"/>
<path fill-rule="evenodd" clip-rule="evenodd" d="M800.603 263.308C798.717 263.182 796.831 262.679 795.071 261.799C785.767 256.896 779.355 240.677 779.984 221.944C780.487 207.36 785.139 194.788 791.551 187.873C795.071 184.101 799.094 182.09 803.369 182.215C815.564 182.718 824.742 201.325 823.988 223.704C823.107 246.083 812.672 263.811 800.603 263.308Z" fill="url(#paint66_radial_44_2)"/>
<path fill-rule="evenodd" clip-rule="evenodd" d="M800.728 256.267C800.602 256.267 800.476 256.267 800.476 256.267C800.225 256.267 799.974 256.267 799.722 256.141C798.591 256.016 797.333 255.513 796.328 255.01C792.807 253.124 789.79 249.352 787.652 244.323C785.012 238.288 783.629 230.493 783.881 222.07C784.258 210 788.155 199.691 793.436 193.908C793.939 193.405 794.442 192.902 795.07 192.399C796.579 191.142 798.339 190.136 800.099 189.633C801.105 189.382 802.111 189.256 803.242 189.256C813.3 189.633 820.844 204.971 820.215 223.453C819.461 241.934 810.786 256.644 800.728 256.267Z" fill="url(#paint67_radial_44_2)"/>
<path fill-rule="evenodd" clip-rule="evenodd" d="M796.202 254.884C788.533 250.861 783.253 237.534 783.756 221.944C784.133 209.875 787.905 199.565 793.311 193.908C800.98 197.931 806.26 211.258 805.758 226.847C805.38 238.791 801.609 249.226 796.202 254.884Z" fill="url(#paint68_radial_44_2)"/>
<path d="M816.192 221.567C815.689 209.623 811.918 198.811 806.26 193.279C804.248 191.393 802.237 190.136 799.974 189.633C798.214 190.136 796.579 191.016 794.945 192.399C795.699 192.147 796.454 191.896 797.208 191.896C798.088 191.77 799.094 191.896 799.974 192.273C801.608 192.776 803.243 193.782 804.626 195.165C809.906 200.32 813.426 210.503 813.804 221.818C814.432 238.917 808.02 253.375 799.471 254.004H799.219C798.088 254.004 796.831 253.878 795.699 253.375C792.556 251.992 789.664 248.724 787.401 244.323C789.539 249.352 792.556 253.25 796.076 255.01C797.208 255.638 798.339 256.016 799.471 256.141V255.136V256.141V256.393V256.141C799.848 256.141 799.974 256.267 800.602 256.267C810.032 254.507 816.821 239.42 816.192 221.567Z" fill="white"/>
<path d="M816.692 221.549L816.692 221.546C816.186 209.54 812.396 198.579 806.61 192.921L806.61 192.921L806.602 192.914C804.551 190.992 802.462 189.674 800.082 189.145L799.958 189.117L799.836 189.152C798.001 189.677 796.305 190.593 794.622 192.017L795.103 192.873C795.874 192.616 796.549 192.396 797.208 192.396H797.243L797.279 192.391C798.067 192.278 798.98 192.391 799.777 192.733L799.801 192.743L799.827 192.751C801.375 193.227 802.94 194.187 804.272 195.518L804.272 195.518L804.276 195.523C809.426 200.55 812.929 210.583 813.304 221.835L813.304 221.837C813.616 230.325 812.179 238.136 809.622 243.884C807.055 249.656 803.435 253.201 799.452 253.504H799.219C798.118 253.504 796.941 253.38 795.902 252.918L795.901 252.918C792.907 251.601 790.085 248.448 787.846 244.095L786.941 244.519C789.099 249.596 792.176 253.614 795.843 255.452C797.021 256.105 798.213 256.505 799.416 256.638L799.75 256.675C799.76 256.677 799.771 256.68 799.782 256.682C799.801 256.686 799.822 256.69 799.844 256.694C800.025 256.731 800.248 256.767 800.602 256.767H800.649L800.694 256.759C805.646 255.834 809.8 251.441 812.625 245.157C815.459 238.852 817.009 230.539 816.692 221.549Z" stroke="white" stroke-opacity="0.47"/>
<path d="M870.003 167.757L854.162 164.488H847.624V164.111H854.162L870.129 167.38L870.003 167.757Z" fill="#7A60A0"/>
<path d="M836.31 45.9297L830.023 41.9065L830.275 41.5294L836.561 45.6783L836.31 45.9297Z" fill="#7A60A0"/>
<path d="M785.013 164.362C781.367 159.711 778.601 152.544 778.476 152.418L778.853 152.293C778.853 152.419 781.744 159.459 785.265 164.111L785.013 164.362Z" fill="#7A60A0"/>
<path d="M801.608 182.215C801.608 182.09 800.1 174.923 786.019 164.991L786.27 164.74C800.477 174.797 801.986 181.838 801.986 182.215H801.608Z" fill="#7A60A0"/>
<path d="M732.334 280.406C732.334 279.903 729.568 224.584 745.409 188.376L745.786 188.501C730.071 224.584 732.711 279.903 732.711 280.406H732.334Z" fill="#7A60A0"/>
<path d="M734.472 232.882C718.128 229.865 709.202 232.882 709.076 232.882L708.95 232.505C709.076 232.505 718.002 229.488 734.472 232.505V232.882Z" fill="#7A60A0"/>
<path d="M765.275 231.625L765.149 231.248C765.149 231.248 771.184 229.362 780.111 229.991V230.368C771.31 229.739 765.275 231.625 765.275 231.625Z" fill="#7A60A0"/>
<path d="M816.319 7.45797V10.3496H815.942V7.58369C806.135 2.68043 795.826 3.30906 795.7 3.30906V3.18333C795.952 3.05761 796.329 3.05761 796.58 2.93188C799.346 3.05761 808.021 3.30906 816.319 7.45797Z" fill="#7A60A0"/>
<path d="M827.257 3.18336V7.33227H826.88V3.43481C825.623 3.18336 815.942 1.29749 806.01 1.54894V1.42322C806.513 1.29749 807.016 1.29749 807.518 1.17176C817.702 1.04604 827.006 3.05763 827.006 3.05763L827.257 3.18336Z" fill="#7A60A0"/>
<path d="M771.561 35.6203L772.818 32.3514C772.818 32.3514 775.332 29.0826 779.607 28.3282L783.63 31.9743L771.561 35.6203Z" fill="white"/>
<path d="M757.102 35.6203L758.233 31.9743C758.233 31.9743 757.982 27.071 755.09 28.3283L753.33 31.8485L757.102 35.6203Z" fill="white"/>
<path opacity="0.5" fill-rule="evenodd" clip-rule="evenodd" d="M889.742 130.668C889.742 130.668 879.936 116.587 866.483 131.171C852.779 146.007 850.642 181.587 859.82 198.559C865.855 209.875 877.673 200.697 877.673 200.697C871.009 208.995 863.214 213.395 857.808 212.012C852.402 210.629 843.601 182.215 849.133 152.419C852.779 133.183 873.775 112.69 880.69 113.067C884.21 113.192 887.605 120.233 889.742 130.668Z" fill="url(#paint69_linear_44_2)"/>
<path opacity="0.82" fill-rule="evenodd" clip-rule="evenodd" d="M792.431 161.345C792.431 161.345 779.984 164.237 771.686 175.678C763.388 187.118 765.4 202.96 765.4 202.96C765.4 202.96 767.16 172.409 792.431 161.345Z" fill="url(#paint70_linear_44_2)"/>
<path opacity="0.5" fill-rule="evenodd" clip-rule="evenodd" d="M842.218 2.05183C841.967 3.4348 834.8 5.06922 818.205 9.84676C801.609 14.6243 773.195 23.6765 767.789 24.4308C762.383 25.1852 760.749 22.1678 763.766 18.396C763.263 19.2761 763.012 20.6591 764.646 22.042C767.663 24.4308 815.062 8.21234 822.102 5.4464C828.64 2.80618 827.131 0.543136 827.005 0.291687C836.309 0.291687 842.344 1.54894 842.218 2.05183Z" fill="url(#paint71_linear_44_2)"/>
<path opacity="0.5" fill-rule="evenodd" clip-rule="evenodd" d="M820.593 32.4772C810.032 32.9801 807.895 24.3051 807.644 23.1736C808.649 27.4482 811.541 29.7112 819.839 28.3283C832.537 26.0652 838.195 15.0015 838.195 15.0015C840.08 19.1504 820.593 32.4772 820.593 32.4772Z" fill="url(#paint72_linear_44_2)"/>
<path fill-rule="evenodd" clip-rule="evenodd" d="M847.624 204.971C847.624 204.971 845.235 223.579 841.966 232.757L838.194 230.745C838.194 230.745 841.715 212.515 841.966 204.971H847.624Z" fill="url(#paint73_radial_44_2)"/>
<path fill-rule="evenodd" clip-rule="evenodd" d="M849.887 228.356C849.887 228.356 852.527 219.807 854.161 212.263C854.161 212.263 854.413 220.561 853.03 226.093L849.887 228.356Z" fill="url(#paint74_radial_44_2)"/>
<path fill-rule="evenodd" clip-rule="evenodd" d="M697.886 188.376V194.536L694.868 209.875C694.868 209.875 695.497 195.039 697.886 188.376Z" fill="url(#paint75_radial_44_2)"/>
<path fill-rule="evenodd" clip-rule="evenodd" d="M697.885 227.979L695.245 206.606L697.885 194.536L705.052 200.697L701.909 218.801L697.885 223.327V227.979Z" fill="url(#paint76_radial_44_2)"/>
<path fill-rule="evenodd" clip-rule="evenodd" d="M725.169 94.5851C725.169 94.5851 728.438 103.134 733.844 105.272C739.25 107.535 755.595 108.038 766.784 103.134C778.099 98.2311 790.672 72.8348 795.324 67.5543L727.432 50.9587C727.432 51.0844 716.117 73.2119 725.169 94.5851Z" fill="url(#paint77_linear_44_2)"/>
<path fill-rule="evenodd" clip-rule="evenodd" d="M753.331 45.804C753.331 45.804 747.045 32.6029 762.006 20.4076C762.006 20.4076 755.72 41.7808 764.521 48.8214C759.24 49.7015 754.966 48.6957 753.331 45.804Z" fill="url(#paint78_linear_44_2)"/>
<path opacity="0.8" fill-rule="evenodd" clip-rule="evenodd" d="M805.13 74.2177C805.13 74.2177 805.633 78.7438 807.896 78.9953C810.159 79.2467 821.348 78.4924 822.228 76.6065C823.108 74.7206 824.24 68.8116 824.24 68.8116C824.24 68.8116 824.114 80.7554 826.503 92.5735C826.503 92.5735 825.12 89.179 822.354 89.4304C819.462 89.6819 807.519 91.0648 807.016 92.5735C806.513 94.0822 806.764 97.9797 806.764 97.9797C806.764 97.9797 803.118 83.2699 805.13 74.2177Z" fill="url(#paint79_radial_44_2)"/>
<path opacity="0.8" fill-rule="evenodd" clip-rule="evenodd" d="M856.425 152.418C856.425 152.418 857.179 150.407 858.814 149.527C860.574 148.647 872.266 153.927 872.266 153.927V157.699C872.266 157.699 872.643 151.79 877.044 148.018L874.403 149.527C874.403 149.527 863.214 145.126 862.585 143.366C861.957 141.732 861.705 138.086 861.705 138.086C861.705 138.086 857.682 145.629 856.425 152.418Z" fill="url(#paint80_radial_44_2)"/>
<path opacity="0.5" fill-rule="evenodd" clip-rule="evenodd" d="M781.115 211.258L780.738 203.966C780.738 203.966 770.177 204.72 767.537 206.48C764.897 208.24 764.519 215.784 764.519 215.784C764.519 215.784 764.142 192.525 772.189 181.209C772.189 181.209 771.309 184.604 772.189 186.238C773.069 187.873 787.401 187.244 787.401 187.244L795.448 184.353C795.573 184.478 784.258 192.399 781.115 211.258Z" fill="url(#paint81_radial_44_2)"/>
<path opacity="0.5" fill-rule="evenodd" clip-rule="evenodd" d="M710.584 215.784L713.601 211.258C713.601 211.258 728.688 208.743 734.597 211.258L736.735 218.927C736.735 218.927 738.369 205.977 740.381 200.445L738.998 203.086C738.998 203.086 719.51 204.72 718.002 203.086C716.493 201.451 715.613 198.559 715.613 198.559C715.613 198.559 711.716 208.24 710.584 215.784Z" fill="url(#paint82_radial_44_2)"/>
<path opacity="0.8" fill-rule="evenodd" clip-rule="evenodd" d="M686.696 153.927C686.696 153.927 688.205 152.167 689.462 150.658C690.845 149.15 697.886 148.898 697.886 148.898L700.652 131.925C700.652 131.925 696.126 137.709 694.24 138.966C692.354 140.223 690.342 137.583 690.342 137.583C690.342 137.583 686.696 148.521 686.696 153.927Z" fill="url(#paint83_radial_44_2)"/>
<path opacity="0.8" fill-rule="evenodd" clip-rule="evenodd" d="M710.082 89.4304L720.014 85.1558L722.654 87.6703C722.654 87.6703 719.511 79.3725 720.014 68.8116L718.002 72.5833L709.453 78.9953C709.453 78.8696 709.453 85.533 710.082 89.4304Z" fill="url(#paint84_radial_44_2)"/>
<path opacity="0.5" fill-rule="evenodd" clip-rule="evenodd" d="M796.58 329.187C796.58 329.187 798.214 333.336 799.723 334.719C801.232 336.102 819.965 334.719 821.096 333.085C822.102 331.45 822.102 325.416 822.102 325.416C822.102 325.416 824.491 338.868 824.742 348.423C824.742 348.423 824.742 344.023 822.982 343.646C821.222 343.394 803.243 343.268 802.112 344.903C800.98 346.537 800.855 352.195 800.855 352.195C800.855 352.195 797.586 340.503 796.58 329.187Z" fill="url(#paint85_radial_44_2)"/>
<path opacity="0.5" fill-rule="evenodd" clip-rule="evenodd" d="M721.899 331.702C721.899 331.702 738.244 331.325 740.255 332.959C742.267 334.719 742.141 338.742 742.141 338.742C742.141 338.742 744.781 325.918 744.907 321.015C744.907 321.015 744.027 324.913 742.141 325.416C740.381 325.918 723.031 324.158 723.031 324.158L721.899 331.702Z" fill="url(#paint86_radial_44_2)"/>
<path opacity="0.8" fill-rule="evenodd" clip-rule="evenodd" d="M811.541 23.0479C811.541 23.0479 825.119 19.0247 828.388 15.6301C828.388 15.6301 818.33 12.8642 811.541 23.0479Z" fill="url(#paint87_radial_44_2)"/>
<path fill-rule="evenodd" clip-rule="evenodd" d="M834.423 213.898C834.423 213.898 840.709 194.788 844.229 187.496L846.241 199.817C846.241 199.817 841.463 205.6 838.32 213.898H834.423Z" fill="url(#paint88_radial_44_2)"/>
<path opacity="0.82" fill-rule="evenodd" clip-rule="evenodd" d="M740.13 167.631C740.13 167.631 738.873 180.455 743.273 193.908L757.103 224.459L761.503 203.84L758.36 204.971C758.36 204.971 745.913 193.53 742.896 182.718C740.004 171.78 740.13 167.631 740.13 167.631Z" fill="url(#paint89_linear_44_2)"/>
<path fill-rule="evenodd" clip-rule="evenodd" d="M824.114 74.9721C824.114 74.9721 821.222 78.7439 821.097 82.2642C821.097 85.9102 826 90.9392 826 90.9392C826 90.9392 823.988 81.1326 824.114 74.9721Z" fill="white"/>
<path fill-rule="evenodd" clip-rule="evenodd" d="M877.044 148.018C877.044 148.018 870.129 148.144 872.266 157.699C872.266 157.699 875.032 150.155 877.044 148.018Z" fill="white"/>
<path fill-rule="evenodd" clip-rule="evenodd" d="M783.128 203.086C783.128 203.086 779.985 200.822 780.739 195.542C781.493 190.136 791.551 187.873 791.551 187.873C791.551 187.873 785.139 194.913 783.128 203.086Z" fill="white"/>
<path d="M877.672 194.159C877.42 194.159 877.294 194.159 877.043 194.159C871.26 193.405 867.991 181.461 869.877 167.505C871.763 153.55 878.049 142.989 883.832 143.743C889.615 144.498 892.884 156.442 890.998 170.397C890.118 177.061 888.107 183.221 885.466 187.747C883.078 191.896 880.312 194.159 877.672 194.159ZM883.203 144.121C877.797 144.121 872.014 154.43 870.254 167.631C868.368 181.335 871.385 193.153 877.043 193.908C879.683 194.285 882.575 192.022 885.215 187.621C887.855 183.221 889.741 177.061 890.621 170.397H890.747H890.621C892.507 156.693 889.49 144.875 883.832 144.121C883.581 144.121 883.455 144.121 883.203 144.121Z" fill="#7A60A0"/>
<path fill-rule="evenodd" clip-rule="evenodd" d="M739.25 202.834C739.25 202.834 730.072 208.492 735.981 216.79C735.981 216.79 738.747 206.857 739.25 202.834Z" fill="white"/>
<path fill-rule="evenodd" clip-rule="evenodd" d="M779.732 19.1504C779.732 19.1504 785.516 10.8525 798.968 13.4928C798.843 13.4928 782.75 18.1446 779.732 19.1504Z" fill="white"/>
<path fill-rule="evenodd" clip-rule="evenodd" d="M720.014 68.8116C720.014 68.8116 714.105 80.0011 722.654 87.6703C722.654 87.6703 721.02 81.384 720.014 68.8116Z" fill="white"/>
<path fill-rule="evenodd" clip-rule="evenodd" d="M742.266 170.271C742.266 170.271 749.181 166.5 750.564 168.637C751.947 170.774 746.792 177.815 746.792 177.815C746.792 177.815 740.883 175.803 742.266 170.271Z" fill="white"/>
<path opacity="0.82" fill-rule="evenodd" clip-rule="evenodd" d="M750.564 145.126C750.564 145.126 764.143 141.229 769.423 142.863L767.16 157.573C767.16 157.573 773.446 151.287 784.636 150.533V140.6C784.636 140.6 767.286 135.949 750.564 141.229V145.126Z" fill="url(#paint90_linear_44_2)"/>
<path d="M764.372 35.2029L763.324 32.3849C763.324 32.3849 761.229 29.567 757.667 28.9167L754.314 32.0598L764.372 35.2029Z" fill="white"/>
<g clip-path="url(#clip0_44_2)">
<path fill-rule="evenodd" clip-rule="evenodd" d="M378 317.6C378 317.6 353.2 306.1 344.9 311.6C341.2 314 359.1 318.6 368.5 329L378 317.6Z" fill="url(#paint91_radial_44_2)"/>
<path fill-rule="evenodd" clip-rule="evenodd" d="M290.8 355.6C291.8 366.4 298.2 375.4 307.4 379.6C310.9 381.2 314.8 382.1 319.1 382.2C334.4 382.5 338.9 377.2 379.4 377.5C399.1 377.6 413 380 424.1 382.7C429.2 383.9 433.6 385.2 437.7 386.4H437.8C443.1 387.9 447.8 389.1 452.5 389.7C464.1 391.2 473.7 389.3 482.1 385.3C485.5 383.7 488.8 381.6 491.8 379.4C502.4 371.5 550.6 382.3 554.5 382.3C564.4 382.2 581.2 377.2 582.2 356.5C582.9 340.2 567.4 331.7 555.1 329.6C546.6 328.2 528.7 325 509.3 320.4C490.2 316 472.3 302.6 426.7 300.2C381.1 297.8 356.8 313.7 345.7 317.8C334.6 322 317.5 319.7 307.7 323.1C295.7 327.4 289.2 338.8 290.8 355.6Z" fill="url(#paint92_radial_44_2)"/>
<path fill-rule="evenodd" clip-rule="evenodd" d="M570.9 357C570.9 357 568.5 359.2 545.9 363C523.4 366.8 490.4 359.7 490.4 359.7C490.4 359.7 485.7 328.5 452.2 326.3C452.2 326.3 484.5 326.3 505.8 322.2L496.8 316.9C496.8 316.9 549.5 332.5 582.9 353L570.9 357Z" fill="url(#paint93_radial_44_2)"/>
<path fill-rule="evenodd" clip-rule="evenodd" d="M417.3 371.8C417.3 371.8 388.4 354.6 370.6 355.2C352.8 355.8 349.2 366.8 349.2 366.8C349.2 366.8 378.1 366.8 417.3 371.8Z" fill="url(#paint94_radial_44_2)"/>
<path fill-rule="evenodd" clip-rule="evenodd" d="M515.301 357.8L516.001 359.8H504.301L491.401 356.9L489.601 351.5L504.601 357.8H515.301Z" fill="white"/>
<path d="M416.365 371.366L416.284 371.655L427.267 374.712L427.347 374.423L416.365 371.366Z" fill="#7A60A0"/>
<path fill-rule="evenodd" clip-rule="evenodd" d="M559.8 354.1L561.1 355.4L571.8 354.1L572 352.6L566.2 349L568.3 353.5L559.8 354.1Z" fill="white"/>
<path fill-rule="evenodd" clip-rule="evenodd" d="M426.6 363C427.2 373.1 431.1 382.5 437.9 386.9C447.3 393 464.2 396.3 482.2 386.2C485.4 384.4 488.7 382.2 491.9 379.6C491.9 379.6 497.6 350.2 480.6 335.6C465 322.3 441.6 327.2 434 337C428.3 344.1 426.1 353.9 426.6 363Z" fill="url(#paint95_radial_44_2)"/>
<path opacity="0.5" fill-rule="evenodd" clip-rule="evenodd" d="M424.101 383.3C429.201 384.5 433.601 385.8 437.801 386.9H437.901C447.301 393 464.201 396.3 482.201 386.2V385.6V372.4C482.201 372.4 473.001 374.7 468.701 373.9C468.701 373.9 473.601 355.4 462.301 342.4L426.601 363L425.301 363.8C425.201 363.8 427.601 378.3 424.101 383.3Z" fill="url(#paint96_linear_44_2)"/>
<path fill-rule="evenodd" clip-rule="evenodd" d="M426.5 362.2C427.2 377.6 437 389.8 448.5 389.3C460 388.8 468.7 375.9 468.1 360.5C467.4 345.1 457.6 332.9 446.1 333.4C434.6 333.9 425.9 346.8 426.5 362.2Z" fill="url(#paint97_radial_44_2)"/>
<path fill-rule="evenodd" clip-rule="evenodd" d="M429.8 362.1C430.4 375.1 438.7 385.4 448.3 385H448.4C449.9 384.9 451.3 384.6 452.7 384.1C453 384 453.3 383.9 453.5 383.7C460.5 380.4 465.3 371.2 464.8 360.7C464.4 351.5 460.1 343.6 454.2 340C453.3 339.5 452.5 339 451.5 338.7C449.9 338.1 448.1 337.8 446.3 337.8H446.2C436.6 338.2 429.2 349.1 429.8 362.1Z" fill="url(#paint98_radial_44_2)"/>
<path d="M434.2 361.9C434.7 373 440.6 382.2 448.4 384.9C449.9 384.8 451.3 384.5 452.7 384C453 383.9 453.3 383.8 453.5 383.6C444.5 383.8 436.9 374.1 436.4 361.8C435.9 349.5 442.7 339.2 451.6 338.6C450 338 448.2 337.7 446.4 337.7C438.9 341.2 433.7 350.8 434.2 361.9Z" fill="white"/>
<path fill-rule="evenodd" clip-rule="evenodd" d="M442.1 363.3C442.5 372.5 446.8 380.4 452.7 384C460.1 381 465.3 371.6 464.8 360.6C464.4 351.4 460.1 343.5 454.2 339.9C446.8 342.9 441.6 352.3 442.1 363.3Z" fill="url(#paint99_radial_44_2)"/>
<path fill-rule="evenodd" clip-rule="evenodd" d="M483.401 357.7C483.401 357.7 484.601 379.3 473.601 390L487.401 387.6L497.001 391L580.801 382.5L582.201 379C582.201 379 581.901 378.1 580.401 374.8C580.401 374.8 581.101 371.2 582.201 369.1C582.201 369.1 584.001 359.1 581.501 352.3L569.601 356C569.601 356 529.701 360.6 510.701 361.1L483.401 357.7Z" fill="url(#paint100_radial_44_2)"/>
<path fill-rule="evenodd" clip-rule="evenodd" d="M582.2 379L497.9 387.2L487.7 382.5L580.6 374.8L582.2 379Z" fill="url(#paint101_radial_44_2)"/>
<path fill-rule="evenodd" clip-rule="evenodd" d="M493.001 379.4C493.001 379.4 492.801 372.3 492.301 362.6L508.001 363.6L569.201 357.9L575.901 354.8L576.301 366L573.901 373.6L503.601 380.2L493.001 379.4Z" fill="#1D081D"/>
<path fill-rule="evenodd" clip-rule="evenodd" d="M574.801 373L561.101 374.7L554.501 380.7L522.901 383.3L514.401 377.6L483.301 377.4L483.501 380.6L513.701 379.4L521.101 385.2L558.301 381.9L562.401 375.6L574.001 375.1L574.801 373Z" fill="url(#paint102_radial_44_2)"/>
<path fill-rule="evenodd" clip-rule="evenodd" d="M504.2 320.4C504.2 320.4 492.6 324.4 446.4 327.3C400.2 330.2 372.2 326.9 369.6 325C367 323.1 385.4 304.3 423.4 303C461.4 301.8 500.3 315.9 504.2 320.4Z" fill="url(#paint103_radial_44_2)"/>
<path opacity="0.78" fill-rule="evenodd" clip-rule="evenodd" d="M307.9 378.4C311.4 379.9 315.4 380.8 319.6 380.8C334.9 380.8 339.3 375.4 379.8 374.9C408.6 374.5 425.2 379.3 438.2 382.7C419.5 367.7 425.7 342.1 425.7 342.1C387.3 333.6 348.6 338.9 348.6 338.9C354.2 358.8 343.7 370 343.7 370C335.6 373.8 328.8 369 328.8 369L307.9 378.4Z" fill="url(#paint104_linear_44_2)"/>
<path d="M340.101 378.4C352.201 367.7 351.501 352.1 347.301 341.9C343.901 333.7 338.001 328.2 332.301 327.9V328.2C337.901 328.6 343.601 334 347.001 342.1C351.201 352.2 351.901 367.8 339.901 378.3L340.101 378.4Z" fill="#7A60A0"/>
<path d="M330.201 338.3C330.301 338.3 338.801 335.5 347.401 336.2V335.9C338.801 335.1 330.201 337.9 330.101 338L330.201 338.3Z" fill="#7A60A0"/>
<path d="M489.501 342.2C511.701 341.3 546.901 337.2 547.301 337.1H547.401V337C547.801 336.9 550.801 329.4 564.801 332.4C564.701 332.4 553.601 328.2 547.101 336.8C544.701 337.1 503.801 341.8 483.301 342C482.401 341.5 468.601 333.3 453.301 336.8L453.401 337.1C468.901 333.6 483.101 342.2 483.201 342.3C485.201 342.4 487.301 342.3 489.501 342.2Z" fill="#7A60A0"/>
<path d="M347.201 340.4C361.501 334.3 370.101 322.2 370.201 322L369.901 321.8C369.801 321.9 361.301 333.9 347.101 340L347.201 340.4Z" fill="#7A60A0"/>
<path d="M371.101 355.4C372.501 331.2 380.501 320.4 380.601 320.3L380.301 320.1C380.201 320.2 372.201 331.2 370.801 355.4H371.101Z" fill="#7A60A0"/>
<path opacity="0.82" fill-rule="evenodd" clip-rule="evenodd" d="M418.9 374.9C418.9 374.9 391.1 366.4 376.7 368.6C362.3 370.8 362.1 375.7 362.1 375.7L350.7 376.2C352.9 369.1 357.8 344.6 418.9 374.9Z" fill="url(#paint105_linear_44_2)"/>
<path opacity="0.82" fill-rule="evenodd" clip-rule="evenodd" d="M420.7 330.3C420.7 330.3 419 344.8 408.2 348.2C397.4 351.6 391.4 345.8 391.1 344.3C390.9 342.7 412.6 329.4 420.7 330.3Z" fill="url(#paint106_linear_44_2)"/>
<path fill-rule="evenodd" clip-rule="evenodd" d="M392.801 329C392.601 335.4 410.401 340.8 410.401 340.8C416.501 338.6 419.101 334.6 420.201 331.7C421.001 329.5 421.001 327.9 421.001 327.9C417.001 326.2 397.801 323.3 393.601 327.2C393.101 327.7 392.901 328.3 392.801 329Z" fill="url(#paint107_radial_44_2)"/>
<path opacity="0.82" fill-rule="evenodd" clip-rule="evenodd" d="M338.1 335.5C333.6 335.8 318.7 323.8 308.9 324.6C308.9 324.6 318.2 322.6 323 322.4L338.1 335.5Z" fill="url(#paint108_linear_44_2)"/>
<path fill-rule="evenodd" clip-rule="evenodd" d="M293.001 321.5C293.701 323 297.201 324.8 303.501 327.1C303.601 327.1 303.601 327.1 303.701 327.2C306.301 328.1 309.401 329.1 313.001 330.2C313.101 330.2 313.201 330.3 313.201 330.3C325.801 334.1 333.601 342.3 339.201 341.9C340.001 341.8 340.901 339.4 340.401 336.1C339.801 332 336.901 326.5 328.601 322.8C328.501 322.8 328.401 322.7 328.301 322.7C325.701 321.6 323.001 320.7 320.301 320.1C320.101 320 319.901 320 319.701 320C310.001 318 300.101 318.7 295.601 320C293.801 320.4 292.801 320.9 293.001 321.5Z" fill="url(#paint109_radial_44_2)"/>
<path opacity="0.5" fill-rule="evenodd" clip-rule="evenodd" d="M294.801 311C295.701 313.2 302.201 316.3 314.601 320.8C327.001 325.3 334.301 333.9 340.001 333.8C340.801 333.8 341.901 331.4 341.501 328.1V328C341.001 330.6 333.801 329 321.101 323C308.401 317.1 297.401 309.6 297.401 309.6C295.601 310 294.601 310.5 294.801 311Z" fill="url(#paint110_linear_44_2)"/>
<path opacity="0.5" fill-rule="evenodd" clip-rule="evenodd" d="M557.601 348.8C557.601 348.8 548.301 342.4 546.101 338.1C543.901 333.8 545.701 329.9 545.701 329.9C545.701 329.9 529.201 330.2 517.301 328.9C517.301 328.9 523.101 334 524.201 334.4C525.401 334.8 557.601 348.8 557.601 348.8Z" fill="url(#paint111_linear_44_2)"/>
<path fill-rule="evenodd" clip-rule="evenodd" d="M570.4 376.6L571.8 380.3H566.3L562.5 377L570.4 376.6Z" fill="white"/>
<path fill-rule="evenodd" clip-rule="evenodd" d="M509.701 381L510.001 384.6L500.301 384.8L495.601 381.7L509.701 381Z" fill="white"/>
<path opacity="0.78" fill-rule="evenodd" clip-rule="evenodd" d="M394.5 325.9C393.9 332.3 411.4 338.6 411.4 338.6C417.6 336.7 420.4 332.9 421.6 330C421.6 330 417.8 334.3 410.9 333.7C404 333.1 394.8 327.4 395.3 324.2C394.8 324.7 394.5 325.3 394.5 325.9Z" fill="url(#paint112_linear_44_2)"/>
<path opacity="0.5" fill-rule="evenodd" clip-rule="evenodd" d="M468.8 355.8C468.8 355.8 466.5 346.5 467.4 346.1C468.3 345.7 479.9 344.4 484.2 345.4C488.5 346.3 489.2 347.9 489.2 347.9C489.2 347.9 486.8 343 486.2 342.1C486.2 342.1 486.9 342.6 486 342.9C485.1 343.1 462.2 338.3 460.5 337.9C458.7 337.5 456.9 336.8 456.9 336.8C456.9 336.8 464 341.5 468.8 355.8Z" fill="url(#paint113_radial_44_2)"/>
<path opacity="0.5" fill-rule="evenodd" clip-rule="evenodd" d="M574.101 338.6C574.101 338.6 573.101 337.2 567.401 337.3C561.701 337.4 554.301 344.8 554.301 344.8C554.301 344.8 548.901 342.2 546.801 338.2C546.801 338.2 549.901 331.5 563.401 331.9C563.301 331.8 567.601 333.1 574.101 338.6Z" fill="url(#paint114_radial_44_2)"/>
<path opacity="0.5" fill-rule="evenodd" clip-rule="evenodd" d="M391.201 343.9C391.201 343.9 369.701 340.3 359.301 339.9C348.901 339.5 344.001 333.8 344.001 333.8C344.001 333.8 344.801 335.8 343.401 338.1C342.001 340.4 329.701 339.2 329.701 339.2L325.801 336.5C325.801 336.5 331.201 340.8 332.901 352.2L334.501 348.2C334.501 348.2 343.401 345.2 348.501 345.8C348.501 345.8 350.401 345 362.201 344.3C373.301 343.7 391.201 343.9 391.201 343.9Z" fill="url(#paint115_radial_44_2)"/>
<path opacity="0.5" fill-rule="evenodd" clip-rule="evenodd" d="M375.8 310.9C375.8 310.9 370.9 313.2 367.6 318.9C367.6 318.9 356.3 317.2 349.2 319.2C349.2 319.2 356.6 315.4 359.6 314C359.6 314 370.7 310.5 375.8 310.9Z" fill="url(#paint116_radial_44_2)"/>
<path opacity="0.5" fill-rule="evenodd" clip-rule="evenodd" d="M419.201 375.8C419.201 375.8 389.201 367.1 358.601 368.9L354.101 373.3C354.101 373.3 385.101 368.9 421.801 379.2L419.201 375.8Z" fill="url(#paint117_radial_44_2)"/>
<path fill-rule="evenodd" clip-rule="evenodd" d="M466 348.9C466 348.9 469.1 338.2 456.9 336.9C456.9 336.9 460.8 338.8 466 348.9Z" fill="white"/>
<path opacity="0.5" fill-rule="evenodd" clip-rule="evenodd" d="M327.6 322.3C327.6 322.3 324.4 322.1 322.3 322.4C315.5 323.4 314.9 313.4 308.3 325.3C307.6 326.5 309.3 327.3 309.3 327.3C309.3 327.3 302.2 323.7 299.7 322.2C299.7 322.2 302.5 323.1 303.7 322.9C304.9 322.7 318.9 319.7 318.9 319.7C318.9 319.7 325.7 321.4 327.6 322.3Z" fill="url(#paint118_radial_44_2)"/>
<path fill-rule="evenodd" clip-rule="evenodd" d="M309.701 323.5C309.701 323.5 307.501 317.5 300.101 318.3L309.701 323.5Z" fill="white"/>
<path d="M312.601 325L313.501 326.4C313.601 326.4 313.701 326.5 313.701 326.5L313.801 326.4L313.001 325C313.801 324.4 319.201 320.4 329.201 319.3V319.1C329.101 319.1 329.001 319 328.901 319C318.201 320.3 312.701 324.8 312.601 325Z" fill="#7A60A0"/>
<path d="M303.5 320.1L304 323.1V323.2H304.2H304.4L304 320.3C305 319.9 313 316.6 321 316.5V316.3C320.8 316.2 320.6 316.2 320.4 316.2C311.9 316.4 303.8 320 303.8 320L303.5 320.1Z" fill="#7A60A0"/>
<path fill-rule="evenodd" clip-rule="evenodd" d="M440.001 327C440.001 327 429.801 310.2 419.801 304.3H432.401C432.401 304.3 444.101 310.3 452.001 321.4L456.301 321.6C456.301 321.6 448.101 310.6 442.901 306.9C442.901 306.9 458.501 306.8 470.301 308.7C470.301 308.7 495.801 315.8 507.301 325.4C507.201 325.3 467.801 329.2 440.001 327Z" fill="url(#paint119_linear_44_2)"/>
<path opacity="0.5" fill-rule="evenodd" clip-rule="evenodd" d="M531.8 328.8C531.8 328.8 534.3 331.7 534.7 332.9C535 334 485 336.8 482.8 336.2C480.6 335.6 476.9 332.9 476.9 332.9C476.9 332.9 482.7 337.2 485.2 340.5L485.1 338.8L541.6 334.6L545.9 334.4L531.8 328.8Z" fill="url(#paint120_radial_44_2)"/>
<path d="M359.8 332.7L359.9 332.4C359.7 332.4 340.9 329.1 341.8 322.6H341.5C340.5 329.3 359 332.5 359.8 332.7Z" fill="#7A60A0"/>
<path d="M535.4 358.8L535.6 358.6C535.5 358.5 522.2 345 516.6 339.7L516.4 340C522.9 346.1 531.4 354.8 535.4 358.8Z" fill="#7A60A0"/>
<path fill-rule="evenodd" clip-rule="evenodd" d="M291.8 358.7C293 374.1 303.2 385.9 314.7 385C326.1 384.1 334.4 370.9 333.2 355.5C332 340.1 321.7 328.3 310.3 329.2C298.8 330.1 290.5 343.3 291.8 358.7Z" fill="url(#paint121_radial_44_2)"/>
<path fill-rule="evenodd" clip-rule="evenodd" d="M295 358.5C296 371.5 304.7 381.4 314.3 380.7H314.4C315.9 380.6 317.3 380.2 318.6 379.6C318.9 379.5 319.2 379.3 319.4 379.2C326.3 375.6 330.7 366.3 329.9 355.8C329.2 346.6 324.6 338.9 318.6 335.5C317.7 335 316.8 334.6 315.9 334.3C314.2 333.7 312.5 333.5 310.7 333.6H310.6C301 334.3 294 345.5 295 358.5Z" fill="url(#paint122_radial_44_2)"/>
<path d="M299.4 358.1C300.3 369.2 306.6 378.1 314.4 380.6C315.9 380.5 317.3 380.1 318.6 379.5C318.9 379.4 319.2 379.2 319.4 379.1C310.5 379.6 302.4 370.2 301.5 357.9C300.6 345.6 307 335.1 315.9 334.2C314.2 333.6 312.5 333.4 310.7 333.5C303.4 337.2 298.6 347.1 299.4 358.1Z" fill="white"/>
<path fill-rule="evenodd" clip-rule="evenodd" d="M307.3 359.3C308 368.5 312.6 376.2 318.6 379.6C325.9 376.4 330.8 366.7 329.9 355.8C329.2 346.6 324.6 338.9 318.6 335.5C311.3 338.6 306.5 348.3 307.3 359.3Z" fill="url(#paint123_radial_44_2)"/>
</g>
<defs>
<filter id="filter0_i_44_2" x="736.245" y="381.771" width="128.49" height="33.817" filterUnits="userSpaceOnUse" color-interpolation-filters="sRGB">
<feFlood flood-opacity="0" result="BackgroundImageFix"/>
<feBlend mode="normal" in="SourceGraphic" in2="BackgroundImageFix" result="shape"/>
<feColorMatrix in="SourceAlpha" type="matrix" values="0 0 0 0 0 0 0 0 0 0 0 0 0 0 0 0 0 0 127 0" result="hardAlpha"/>
<feOffset dy="0.5"/>
<feGaussianBlur stdDeviation="8"/>
<feComposite in2="hardAlpha" operator="arithmetic" k2="-1" k3="1"/>
<feColorMatrix type="matrix" values="0 0 0 0 0 0 0 0 0 0.94 0 0 0 0 1 0 0 0 0.49 0"/>
<feBlend mode="normal" in2="shape" result="effect1_innerShadow_44_2"/>
</filter>
<filter id="filter1_i_44_2" x="838.584" y="380.771" width="50.416" height="34.317" filterUnits="userSpaceOnUse" color-interpolation-filters="sRGB">
<feFlood flood-opacity="0" result="BackgroundImageFix"/>
<feBlend mode="normal" in="SourceGraphic" in2="BackgroundImageFix" result="shape"/>
<feColorMatrix in="SourceAlpha" type="matrix" values="0 0 0 0 0 0 0 0 0 0 0 0 0 0 0 0 0 0 127 0" result="hardAlpha"/>
<feOffset dy="-1"/>
<feGaussianBlur stdDeviation="5.5"/>
<feComposite in2="hardAlpha" operator="arithmetic" k2="-1" k3="1"/>
<feColorMatrix type="matrix" values="0 0 0 0 0 0 0 0 0 0.94 0 0 0 0 1 0 0 0 1 0"/>
<feBlend mode="normal" in2="shape" result="effect1_innerShadow_44_2"/>
</filter>
<filter id="filter2_i_44_2" x="-19" y="382" width="764" height="33.5" filterUnits="userSpaceOnUse" color-interpolation-filters="sRGB">
<feFlood flood-opacity="0" result="BackgroundImageFix"/>
<feBlend mode="normal" in="SourceGraphic" in2="BackgroundImageFix" result="shape"/>
<feColorMatrix in="SourceAlpha" type="matrix" values="0 0 0 0 0 0 0 0 0 0 0 0 0 0 0 0 0 0 127 0" result="hardAlpha"/>
<feOffset dy="0.5"/>
<feGaussianBlur stdDeviation="5"/>
<feComposite in2="hardAlpha" operator="arithmetic" k2="-1" k3="1"/>
<feColorMatrix type="matrix" values="0 0 0 0 0 0 0 0 0 1 0 0 0 0 1 0 0 0 1 0"/>
<feBlend mode="normal" in2="shape" result="effect1_innerShadow_44_2"/>
</filter>
<filter id="filter3_i_44_2" x="359.824" y="415.088" width="457.89" height="29.7939" filterUnits="userSpaceOnUse" color-interpolation-filters="sRGB">
<feFlood flood-opacity="0" result="BackgroundImageFix"/>
<feBlend mode="normal" in="SourceGraphic" in2="BackgroundImageFix" result="shape"/>
<feColorMatrix in="SourceAlpha" type="matrix" values="0 0 0 0 0 0 0 0 0 0 0 0 0 0 0 0 0 0 127 0" result="hardAlpha"/>
<feOffset dy="0.5"/>
<feGaussianBlur stdDeviation="4"/>
<feComposite in2="hardAlpha" operator="arithmetic" k2="-1" k3="1"/>
<feColorMatrix type="matrix" values="0 0 0 0 0.308385 0 0 0 0 0.678846 0 0 0 0 0.795833 0 0 0 1 0"/>
<feBlend mode="normal" in2="shape" result="effect1_innerShadow_44_2"/>
</filter>
<filter id="filter4_i_44_2" x="26" y="382" width="511" height="33.5" filterUnits="userSpaceOnUse" color-interpolation-filters="sRGB">
<feFlood flood-opacity="0" result="BackgroundImageFix"/>
<feBlend mode="normal" in="SourceGraphic" in2="BackgroundImageFix" result="shape"/>
<feColorMatrix in="SourceAlpha" type="matrix" values="0 0 0 0 0 0 0 0 0 0 0 0 0 0 0 0 0 0 127 0" result="hardAlpha"/>
<feOffset dy="0.5"/>
<feGaussianBlur stdDeviation="5.5"/>
<feComposite in2="hardAlpha" operator="arithmetic" k2="-1" k3="1"/>
<feColorMatrix type="matrix" values="0 0 0 0 0.119358 0 0 0 0 0.448568 0 0 0 0 0.520833 0 0 0 1 0"/>
<feBlend mode="normal" in2="shape" result="effect1_innerShadow_44_2"/>
</filter>
<linearGradient id="paint0_linear_44_2" x1="138.008" y1="419.255" x2="534.635" y2="419.255" gradientUnits="userSpaceOnUse">
<stop stop-color="#B2DBC4"/>
<stop offset="0.4359" stop-color="#5E858E"/>
<stop offset="0.6648" stop-color="#375D75"/>
<stop offset="0.7365" stop-color="#3A6077"/>
<stop offset="0.7951" stop-color="#446A7D"/>
<stop offset="0.8492" stop-color="#557C88"/>
<stop offset="0.9004" stop-color="#6C9497"/>
<stop offset="0.9497" stop-color="#8BB3AB"/>
<stop offset="0.9969" stop-color="#AFD8C2"/>
<stop offset="1" stop-color="#B2DBC4"/>
</linearGradient>
<linearGradient id="paint1_linear_44_2" x1="95.8937" y1="381.872" x2="231.035" y2="487.16" gradientUnits="userSpaceOnUse">
<stop stop-color="#8DA87E"/>
<stop offset="0.7104" stop-color="#1C2119"/>
<stop offset="0.8827"/>
</linearGradient>
<linearGradient id="paint2_linear_44_2" x1="0.500115" y1="403" x2="353.5" y2="748" gradientUnits="userSpaceOnUse">
<stop stop-color="white"/>
<stop offset="0.00560983" stop-color="#B9DEE6"/>
<stop offset="0.0162981" stop-color="#82C5D3"/>
<stop offset="0.0250578" stop-color="#4CACC1"/>
<stop offset="0.0401371" stop-color="#1994AF"/>
</linearGradient>
<linearGradient id="paint3_linear_44_2" x1="429.53" y1="482.397" x2="665.788" y2="482.397" gradientUnits="userSpaceOnUse">
<stop offset="0.411458" stop-color="#49C0DA"/>
<stop offset="1" stop-color="#6B7AFF"/>
</linearGradient>
<linearGradient id="paint4_linear_44_2" x1="443.334" y1="472.445" x2="657.762" y2="472.445" gradientUnits="userSpaceOnUse">
<stop offset="0.472024" stop-color="#00E0FF"/>
<stop offset="1" stop-color="#5B9BEE"/>
</linearGradient>
<linearGradient id="paint5_linear_44_2" x1="354.094" y1="437.055" x2="614.781" y2="437.055" gradientUnits="userSpaceOnUse">
<stop stop-color="#78F5AF"/>
<stop offset="1" stop-color="#70838F"/>
</linearGradient>
<linearGradient id="paint6_linear_44_2" x1="429.53" y1="456.881" x2="665.789" y2="456.881" gradientUnits="userSpaceOnUse">
<stop offset="0.460898" stop-color="#49C0DA"/>
<stop offset="1" stop-color="#5B9BEE"/>
</linearGradient>
<radialGradient id="paint7_diamond_44_2" cx="0" cy="0" r="1" gradientUnits="userSpaceOnUse" gradientTransform="translate(622 493) rotate(90) scale(98 413.413)">
<stop stop-color="white" stop-opacity="0.11"/>
<stop offset="1" stop-color="#00FFE0"/>
</radialGradient>
<linearGradient id="paint8_linear_44_2" x1="272.231" y1="351.21" x2="280.208" y2="457.281" gradientUnits="userSpaceOnUse">
<stop stop-color="#163755"/>
<stop offset="0.182292" stop-color="#205C7D"/>
<stop offset="0.385417" stop-color="#1994AF"/>
<stop offset="0.598958" stop-color="#54AAC5"/>
<stop offset="0.760417" stop-color="#21D7FF"/>
<stop offset="1" stop-color="#F5F5F5"/>
</linearGradient>
<radialGradient id="paint9_radial_44_2" cx="0" cy="0" r="1" gradientUnits="userSpaceOnUse" gradientTransform="translate(815.571 369.389) scale(15.5338 24.0423)">
<stop offset="0.0108108" stop-color="#FDD9D4"/>
<stop offset="1" stop-color="#A69CC6"/>
</radialGradient>
<radialGradient id="paint10_radial_44_2" cx="0" cy="0" r="1" gradientUnits="userSpaceOnUse" gradientTransform="translate(820.532 369.644) scale(11.1553 17.2657)">
<stop offset="0.0223464" stop-color="#523E63"/>
<stop offset="0.9944" stop-color="#3E1B40"/>
</radialGradient>
<linearGradient id="paint11_linear_44_2" x1="827.84" y1="385.052" x2="827.84" y2="352.766" gradientUnits="userSpaceOnUse">
<stop stop-color="#A9738F"/>
<stop offset="1" stop-color="#B5A6CC"/>
</linearGradient>
<radialGradient id="paint12_radial_44_2" cx="0" cy="0" r="1" gradientUnits="userSpaceOnUse" gradientTransform="translate(832.717 340.41) scale(17.5699)">
<stop offset="0.0108108" stop-color="#B89AC2"/>
<stop offset="1" stop-color="#7C7294"/>
</radialGradient>
<radialGradient id="paint13_radial_44_2" cx="0" cy="0" r="1" gradientUnits="userSpaceOnUse" gradientTransform="translate(843.236 327.534) scale(18.5546)">
<stop offset="0.0108108" stop-color="#FDD9D4"/>
<stop offset="1" stop-color="#A69CC6"/>
</radialGradient>
<linearGradient id="paint14_linear_44_2" x1="833.029" y1="337.984" x2="833.029" y2="309.878" gradientUnits="userSpaceOnUse">
<stop stop-color="#A9738F"/>
<stop offset="1" stop-color="#B5A6CC"/>
</linearGradient>
<radialGradient id="paint15_radial_44_2" cx="0" cy="0" r="1" gradientUnits="userSpaceOnUse" gradientTransform="translate(726.473 369.389) scale(24.0432)">
<stop offset="0.0108108" stop-color="#FDD9D4"/>
<stop offset="1" stop-color="#A69CC6"/>
</radialGradient>
<radialGradient id="paint16_radial_44_2" cx="0" cy="0" r="1" gradientUnits="userSpaceOnUse" gradientTransform="translate(734.15 369.644) scale(17.2663)">
<stop offset="0.0223464" stop-color="#523E63"/>
<stop offset="0.9944" stop-color="#3E1B40"/>
</radialGradient>
<linearGradient id="paint17_linear_44_2" x1="742.627" y1="384.077" x2="742.627" y2="351.883" gradientUnits="userSpaceOnUse">
<stop stop-color="#A9738F"/>
<stop offset="1" stop-color="#B5A6CC"/>
</linearGradient>
<radialGradient id="paint18_radial_44_2" cx="0" cy="0" r="1" gradientUnits="userSpaceOnUse" gradientTransform="translate(755.543 348.362) scale(14.9467)">
<stop offset="0.0108108" stop-color="#B89AC2"/>
<stop offset="1" stop-color="#7C7294"/>
</radialGradient>
<radialGradient id="paint19_radial_44_2" cx="0" cy="0" r="1" gradientUnits="userSpaceOnUse" gradientTransform="translate(767.374 334.412) scale(15.6538)">
<stop offset="0.0108108" stop-color="#FDD9D4"/>
<stop offset="1" stop-color="#A69CC6"/>
</radialGradient>
<linearGradient id="paint20_linear_44_2" x1="757.973" y1="343.642" x2="757.973" y2="319.388" gradientUnits="userSpaceOnUse">
<stop stop-color="#A9738F"/>
<stop offset="1" stop-color="#B5A6CC"/>
</linearGradient>
<radialGradient id="paint21_radial_44_2" cx="0" cy="0" r="1" gradientUnits="userSpaceOnUse" gradientTransform="translate(693.107 150.309) scale(41.0923)">
<stop offset="0.0108108" stop-color="#FDD9D4"/>
<stop offset="1" stop-color="#A69CC6"/>
</radialGradient>
<radialGradient id="paint22_radial_44_2" cx="0" cy="0" r="1" gradientUnits="userSpaceOnUse" gradientTransform="translate(689.924 167.899) scale(37.6742)">
<stop offset="0.0223464" stop-color="#523E63"/>
<stop offset="0.9944" stop-color="#3E1B40"/>
</radialGradient>
<radialGradient id="paint23_radial_44_2" cx="0" cy="0" r="1" gradientUnits="userSpaceOnUse" gradientTransform="translate(843.741 217.369) scale(20.02)">
<stop offset="0.0108108" stop-color="#FDD9D4"/>
<stop offset="1" stop-color="#A69CC6"/>
</radialGradient>
<radialGradient id="paint24_radial_44_2" cx="0" cy="0" r="1" gradientUnits="userSpaceOnUse" gradientTransform="translate(836.076 197.367) scale(17.3411)">
<stop offset="0.0223464" stop-color="#523E63"/>
<stop offset="0.9944" stop-color="#3E1B40"/>
</radialGradient>
<radialGradient id="paint25_radial_44_2" cx="0" cy="0" r="1" gradientUnits="userSpaceOnUse" gradientTransform="translate(837.985 141.396) scale(14.8902)">
<stop offset="0.0223464" stop-color="#523E63"/>
<stop offset="0.9944" stop-color="#3E1B40"/>
</radialGradient>
<radialGradient id="paint26_radial_44_2" cx="0" cy="0" r="1" gradientUnits="userSpaceOnUse" gradientTransform="translate(727.783 326.101) scale(47.6625)">
<stop offset="0.0108108" stop-color="#E5CFD4"/>
<stop offset="1" stop-color="#9386B9"/>
</radialGradient>
<linearGradient id="paint27_linear_44_2" x1="742.265" y1="385.002" x2="742.265" y2="278.561" gradientUnits="userSpaceOnUse">
<stop stop-color="#F9F5FA"/>
<stop offset="1" stop-color="#A9738F"/>
</linearGradient>
<radialGradient id="paint28_radial_44_2" cx="0" cy="0" r="1" gradientUnits="userSpaceOnUse" gradientTransform="translate(722.978 284.276) scale(21.7464)">
<stop offset="0.0223464" stop-color="#523E63"/>
<stop offset="0.9944" stop-color="#3E1B40"/>
</radialGradient>
<linearGradient id="paint29_linear_44_2" x1="735.706" y1="295.962" x2="735.706" y2="266.56" gradientUnits="userSpaceOnUse">
<stop stop-color="#A9738F"/>
<stop offset="1" stop-color="#B5A6CC"/>
</linearGradient>
<radialGradient id="paint30_radial_44_2" cx="0" cy="0" r="1" gradientUnits="userSpaceOnUse" gradientTransform="translate(720.026 278.773) scale(3.55449)">
<stop offset="0.0108108" stop-color="#B89AC2"/>
<stop offset="1" stop-color="#7C7294"/>
</radialGradient>
<radialGradient id="paint31_radial_44_2" cx="0" cy="0" r="1" gradientUnits="userSpaceOnUse" gradientTransform="translate(718.794 219.062) scale(54.334)">
<stop offset="0.0108108" stop-color="#FDD9D4"/>
<stop offset="1" stop-color="#A69CC6"/>
</radialGradient>
<radialGradient id="paint32_radial_44_2" cx="0" cy="0" r="1" gradientUnits="userSpaceOnUse" gradientTransform="translate(806.25 349.297) scale(46.6863)">
<stop offset="0.0108108" stop-color="#E5CFD4"/>
<stop offset="1" stop-color="#9386B9"/>
</radialGradient>
<linearGradient id="paint33_linear_44_2" x1="814.093" y1="384.962" x2="814.093" y2="278.561" gradientUnits="userSpaceOnUse">
<stop stop-color="#F9F5FA"/>
<stop offset="1" stop-color="#A9738F"/>
</linearGradient>
<radialGradient id="paint34_radial_44_2" cx="0" cy="0" r="1" gradientUnits="userSpaceOnUse" gradientTransform="translate(714.572 95.0133) scale(54.7648)">
<stop offset="0.0108108" stop-color="#E5CFD4"/>
<stop offset="1" stop-color="#9386B9"/>
</radialGradient>
<linearGradient id="paint35_linear_44_2" x1="729.263" y1="149.794" x2="717.571" y2="69.7034" gradientUnits="userSpaceOnUse">
<stop stop-color="#A9738F"/>
<stop offset="1" stop-color="#F9F5FA"/>
</linearGradient>
<radialGradient id="paint36_radial_44_2" cx="0" cy="0" r="1" gradientUnits="userSpaceOnUse" gradientTransform="translate(735.86 71.5422) scale(97.219)">
<stop offset="0.0108108" stop-color="#FDD9D4"/>
<stop offset="1" stop-color="#A69CC6"/>
</radialGradient>
<linearGradient id="paint37_linear_44_2" x1="775.064" y1="144.412" x2="764.234" y2="70.226" gradientUnits="userSpaceOnUse">
<stop stop-color="#A9738F"/>
<stop offset="1" stop-color="#F9F5FA"/>
</linearGradient>
<linearGradient id="paint38_linear_44_2" x1="811.483" y1="135.615" x2="811.483" y2="70.7523" gradientUnits="userSpaceOnUse">
<stop stop-color="#A9738F"/>
<stop offset="1" stop-color="#B5A6CC"/>
</linearGradient>
<linearGradient id="paint39_linear_44_2" x1="746.844" y1="280.361" x2="746.844" y2="185.243" gradientUnits="userSpaceOnUse">
<stop stop-color="white"/>
<stop offset="1" stop-color="#A9738F"/>
</linearGradient>
<radialGradient id="paint40_radial_44_2" cx="0" cy="0" r="1" gradientUnits="userSpaceOnUse" gradientTransform="translate(729.695 66.6167) scale(81.5804)">
<stop offset="0.0223464" stop-color="#523E63"/>
<stop offset="0.9944" stop-color="#3E1B40"/>
</radialGradient>
<radialGradient id="paint41_radial_44_2" cx="0" cy="0" r="1" gradientUnits="userSpaceOnUse" gradientTransform="translate(763.41 29.9207) scale(50.4358)">
<stop offset="0.0108108" stop-color="#FDD9D4"/>
<stop offset="1" stop-color="#A69CC6"/>
</radialGradient>
<radialGradient id="paint42_radial_44_2" cx="0" cy="0" r="1" gradientUnits="userSpaceOnUse" gradientTransform="translate(754.372 35.0584) scale(32.2369)">
<stop offset="0.0223464" stop-color="#523E63"/>
<stop offset="0.9944" stop-color="#3E1B40"/>
</radialGradient>
<linearGradient id="paint43_linear_44_2" x1="807.558" y1="45.3441" x2="802.941" y2="13.7142" gradientUnits="userSpaceOnUse">
<stop stop-color="#F9F5FA"/>
<stop offset="1" stop-color="#A9738F"/>
</linearGradient>
<radialGradient id="paint44_radial_44_2" cx="0" cy="0" r="1" gradientUnits="userSpaceOnUse" gradientTransform="translate(777.389 11.0169) scale(46.9183)">
<stop offset="0.0108108" stop-color="#FDD9D4"/>
<stop offset="1" stop-color="#A69CC6"/>
</radialGradient>
<radialGradient id="paint45_radial_44_2" cx="0" cy="0" r="1" gradientUnits="userSpaceOnUse" gradientTransform="translate(833.138 19.1873) scale(22.5241 15.715)">
<stop offset="0.0108108" stop-color="#FDD9D4"/>
<stop offset="1" stop-color="#A69CC6"/>
</radialGradient>
<radialGradient id="paint46_radial_44_2" cx="0" cy="0" r="1" gradientUnits="userSpaceOnUse" gradientTransform="translate(817.828 84.197) scale(55.3065)">
<stop offset="0.0108108" stop-color="#FDD9D4"/>
<stop offset="1" stop-color="#A69CC6"/>
</radialGradient>
<linearGradient id="paint47_linear_44_2" x1="846.804" y1="138.615" x2="836.184" y2="65.8666" gradientUnits="userSpaceOnUse">
<stop stop-color="#A9738F"/>
<stop offset="1" stop-color="#F9F5FA"/>
</linearGradient>
<radialGradient id="paint48_radial_44_2" cx="0" cy="0" r="1" gradientUnits="userSpaceOnUse" gradientTransform="translate(753.051 154.413) scale(23.9118)">
<stop offset="0.0223464" stop-color="#523E63"/>
<stop offset="0.9944" stop-color="#3E1B40"/>
</radialGradient>
<radialGradient id="paint49_radial_44_2" cx="0" cy="0" r="1" gradientUnits="userSpaceOnUse" gradientTransform="translate(786.836 286.568) scale(21.1645)">
<stop offset="0.0223464" stop-color="#523E63"/>
<stop offset="0.9944" stop-color="#3E1B40"/>
</radialGradient>
<linearGradient id="paint50_linear_44_2" x1="799.625" y1="295.363" x2="799.625" y2="272.009" gradientUnits="userSpaceOnUse">
<stop stop-color="#A9738F"/>
<stop offset="1" stop-color="#B5A6CC"/>
</linearGradient>
<linearGradient id="paint51_linear_44_2" x1="686.675" y1="162.32" x2="730.798" y2="162.32" gradientUnits="userSpaceOnUse">
<stop stop-color="#A9738F"/>
<stop offset="1" stop-color="#B5A6CC"/>
</linearGradient>
<radialGradient id="paint52_radial_44_2" cx="0" cy="0" r="1" gradientUnits="userSpaceOnUse" gradientTransform="translate(749.982 174.897) scale(36.8406)">
<stop offset="0.0108108" stop-color="#FDD9D4"/>
<stop offset="1" stop-color="#A69CC6"/>
</radialGradient>
<linearGradient id="paint53_linear_44_2" x1="771.686" y1="203.018" x2="764.438" y2="153.368" gradientUnits="userSpaceOnUse">
<stop stop-color="#A9738F"/>
<stop offset="1" stop-color="#F9F5FA"/>
</linearGradient>
<radialGradient id="paint54_radial_44_2" cx="0" cy="0" r="1" gradientUnits="userSpaceOnUse" gradientTransform="translate(775.952 216.701) scale(59.7378)">
<stop offset="0.0108108" stop-color="#FDD9D4"/>
<stop offset="1" stop-color="#A69CC6"/>
</radialGradient>
<radialGradient id="paint55_radial_44_2" cx="0" cy="0" r="1" gradientUnits="userSpaceOnUse" gradientTransform="translate(843.059 168.872) scale(13.1559)">
<stop offset="0.0223464" stop-color="#523E63"/>
<stop offset="0.9944" stop-color="#3E1B40"/>
</radialGradient>
<radialGradient id="paint56_radial_44_2" cx="0" cy="0" r="1" gradientUnits="userSpaceOnUse" gradientTransform="translate(881.336 163.005) scale(28.9173)">
<stop offset="0.0108108" stop-color="#B89AC2"/>
<stop offset="1" stop-color="#7C7294"/>
</radialGradient>
<linearGradient id="paint57_linear_44_2" x1="806.369" y1="282.491" x2="789.967" y2="170.133" gradientUnits="userSpaceOnUse">
<stop stop-color="#A9738F"/>
<stop offset="1" stop-color="#F9F5FA"/>
</linearGradient>
<radialGradient id="paint58_radial_44_2" cx="0" cy="0" r="1" gradientUnits="userSpaceOnUse" gradientTransform="translate(855.765 157.375) scale(46.5528)">
<stop offset="0.0108108" stop-color="#FDD9D4"/>
<stop offset="1" stop-color="#A69CC6"/>
</radialGradient>
<radialGradient id="paint59_radial_44_2" cx="0" cy="0" r="1" gradientUnits="userSpaceOnUse" gradientTransform="translate(833.334 199.342) scale(13.7464)">
<stop offset="0.0108108" stop-color="#FDD9D4"/>
<stop offset="1" stop-color="#A69CC6"/>
</radialGradient>
<radialGradient id="paint60_radial_44_2" cx="0" cy="0" r="1" gradientUnits="userSpaceOnUse" gradientTransform="translate(708.523 144.915) scale(15.8704)">
<stop offset="0.0223464" stop-color="#523E63"/>
<stop offset="0.9944" stop-color="#3E1B40"/>
</radialGradient>
<radialGradient id="paint61_radial_44_2" cx="0" cy="0" r="1" gradientUnits="userSpaceOnUse" gradientTransform="translate(690.858 208.694) scale(16.9554)">
<stop offset="0.0108108" stop-color="#B89AC2"/>
<stop offset="1" stop-color="#998DBD"/>
</radialGradient>
<radialGradient id="paint62_radial_44_2" cx="0" cy="0" r="1" gradientUnits="userSpaceOnUse" gradientTransform="translate(687.985 197.379) scale(11.2686)">
<stop offset="0.0108108" stop-color="#FDD9D4"/>
<stop offset="1" stop-color="#A69CC6"/>
</radialGradient>
<radialGradient id="paint63_radial_44_2" cx="0" cy="0" r="1" gradientUnits="userSpaceOnUse" gradientTransform="translate(826.123 60.4104) scale(41.1235)">
<stop offset="0.0223464" stop-color="#523E63"/>
<stop offset="0.9944" stop-color="#3E1B40"/>
</radialGradient>
<radialGradient id="paint64_radial_44_2" cx="0" cy="0" r="1" gradientUnits="userSpaceOnUse" gradientTransform="translate(860.381 104.965) scale(33.9464)">
<stop offset="0.0223464" stop-color="#524698"/>
<stop offset="0.9944" stop-color="#4F2F75"/>
</radialGradient>
<radialGradient id="paint65_radial_44_2" cx="0" cy="0" r="1" gradientUnits="userSpaceOnUse" gradientTransform="translate(847.147 107.468) scale(25.2298)">
<stop offset="0.0223464" stop-color="#482F63"/>
<stop offset="0.9944" stop-color="#241427"/>
</radialGradient>
<radialGradient id="paint66_radial_44_2" cx="0" cy="0" r="1" gradientUnits="userSpaceOnUse" gradientTransform="translate(787.299 193.947) rotate(16.6049) scale(37.789 40.842)">
<stop offset="0.0223464" stop-color="#523E63"/>
<stop offset="0.9944" stop-color="#3E1B40"/>
</radialGradient>
<radialGradient id="paint67_radial_44_2" cx="0" cy="0" r="1" gradientUnits="userSpaceOnUse" gradientTransform="translate(806.787 245.933) rotate(16.6049) scale(31.194 33.7141)">
<stop offset="0.0223464" stop-color="#524698"/>
<stop offset="0.9944" stop-color="#4F2F75"/>
</radialGradient>
<radialGradient id="paint68_radial_44_2" cx="0" cy="0" r="1" gradientUnits="userSpaceOnUse" gradientTransform="translate(794.534 244.873) rotate(16.6049) scale(23.1843 25.0574)">
<stop offset="0.0223464" stop-color="#482F63"/>
<stop offset="0.9944" stop-color="#241427"/>
</radialGradient>
<linearGradient id="paint69_linear_44_2" x1="876.548" y1="209.984" x2="862.768" y2="115.589" gradientUnits="userSpaceOnUse">
<stop stop-color="#F9F5FA"/>
<stop offset="1" stop-color="#A9738F"/>
</linearGradient>
<linearGradient id="paint70_linear_44_2" x1="765.309" y1="182.168" x2="792.472" y2="182.168" gradientUnits="userSpaceOnUse">
<stop stop-color="#A9738F"/>
<stop offset="1" stop-color="#B5A6CC"/>
</linearGradient>
<linearGradient id="paint71_linear_44_2" x1="762.379" y1="12.3365" x2="842.278" y2="12.3365" gradientUnits="userSpaceOnUse">
<stop stop-color="#F9F5FA"/>
<stop offset="1" stop-color="#A9738F"/>
</linearGradient>
<linearGradient id="paint72_linear_44_2" x1="807.593" y1="23.7559" x2="838.297" y2="23.7559" gradientUnits="userSpaceOnUse">
<stop stop-color="#F9F5FA"/>
<stop offset="1" stop-color="#A9738F"/>
</linearGradient>
<radialGradient id="paint73_radial_44_2" cx="0" cy="0" r="1" gradientUnits="userSpaceOnUse" gradientTransform="translate(840.021 217.369) scale(12.1646)">
<stop offset="0.0108108" stop-color="#B89AC2"/>
<stop offset="1" stop-color="#7C7294"/>
</radialGradient>
<radialGradient id="paint74_radial_44_2" cx="0" cy="0" r="1" gradientUnits="userSpaceOnUse" gradientTransform="translate(850.74 219.471) scale(6.74429)">
<stop offset="0.0108108" stop-color="#B89AC2"/>
<stop offset="1" stop-color="#7C7294"/>
</radialGradient>
<radialGradient id="paint75_radial_44_2" cx="0" cy="0" r="1" gradientUnits="userSpaceOnUse" gradientTransform="translate(695.438 197.953) scale(8.59741)">
<stop offset="0.0108108" stop-color="#B89AC2"/>
<stop offset="1" stop-color="#7C7294"/>
</radialGradient>
<radialGradient id="paint76_radial_44_2" cx="0" cy="0" r="1" gradientUnits="userSpaceOnUse" gradientTransform="translate(697.111 209.434) scale(14.2764)">
<stop offset="0.0108108" stop-color="#9580B3"/>
<stop offset="1" stop-color="#7C7294"/>
</radialGradient>
<linearGradient id="paint77_linear_44_2" x1="721.666" y1="78.9987" x2="795.373" y2="78.9987" gradientUnits="userSpaceOnUse">
<stop stop-color="#4A3345"/>
<stop offset="1" stop-color="#31113B"/>
</linearGradient>
<linearGradient id="paint78_linear_44_2" x1="752.078" y1="34.7548" x2="764.577" y2="34.7548" gradientUnits="userSpaceOnUse">
<stop stop-color="#4A3345"/>
<stop offset="1" stop-color="#31113B"/>
</linearGradient>
<radialGradient id="paint79_radial_44_2" cx="0" cy="0" r="1" gradientUnits="userSpaceOnUse" gradientTransform="translate(815.521 83.3329) scale(12.8895)">
<stop stop-color="white"/>
<stop offset="1" stop-color="#604C6F"/>
</radialGradient>
<radialGradient id="paint80_radial_44_2" cx="0" cy="0" r="1" gradientUnits="userSpaceOnUse" gradientTransform="translate(866.724 147.885) scale(10.0294)">
<stop stop-color="white"/>
<stop offset="1" stop-color="#604C6F"/>
</radialGradient>
<radialGradient id="paint81_radial_44_2" cx="0" cy="0" r="1" gradientUnits="userSpaceOnUse" gradientTransform="translate(780.052 198.503) scale(16.4142)">
<stop stop-color="white"/>
<stop offset="1" stop-color="#604C6F"/>
</radialGradient>
<radialGradient id="paint82_radial_44_2" cx="0" cy="0" r="1" gradientUnits="userSpaceOnUse" gradientTransform="translate(725.451 208.678) scale(12.7396)">
<stop stop-color="white"/>
<stop offset="1" stop-color="#604C6F"/>
</radialGradient>
<radialGradient id="paint83_radial_44_2" cx="0" cy="0" r="1" gradientUnits="userSpaceOnUse" gradientTransform="translate(693.669 142.921) scale(9.20317)">
<stop stop-color="white"/>
<stop offset="1" stop-color="#604C6F"/>
</radialGradient>
<radialGradient id="paint84_radial_44_2" cx="0" cy="0" r="1" gradientUnits="userSpaceOnUse" gradientTransform="translate(716.102 79.0847) scale(8.6623)">
<stop stop-color="white"/>
<stop offset="1" stop-color="#604C6F"/>
</radialGradient>
<radialGradient id="paint85_radial_44_2" cx="0" cy="0" r="1" gradientUnits="userSpaceOnUse" gradientTransform="translate(810.523 338.828) scale(13.6992)">
<stop stop-color="white"/>
<stop offset="1" stop-color="#604C6F"/>
</radialGradient>
<radialGradient id="paint86_radial_44_2" cx="0" cy="0" r="1" gradientUnits="userSpaceOnUse" gradientTransform="translate(733.443 329.944) scale(10.2895)">
<stop stop-color="white"/>
<stop offset="1" stop-color="#604C6F"/>
</radialGradient>
<radialGradient id="paint87_radial_44_2" cx="0" cy="0" r="1" gradientUnits="userSpaceOnUse" gradientTransform="translate(819.923 19.1432) scale(6.56158)">
<stop stop-color="white"/>
<stop offset="1" stop-color="#604C6F"/>
</radialGradient>
<radialGradient id="paint88_radial_44_2" cx="0" cy="0" r="1" gradientUnits="userSpaceOnUse" gradientTransform="translate(836.583 199.342) scale(12.3532)">
<stop offset="0.0108108" stop-color="#B89AC2"/>
<stop offset="1" stop-color="#7C7294"/>
</radialGradient>
<linearGradient id="paint89_linear_44_2" x1="740.021" y1="196.031" x2="761.57" y2="196.031" gradientUnits="userSpaceOnUse">
<stop stop-color="#A9738F"/>
<stop offset="1" stop-color="#B5A6CC"/>
</linearGradient>
<linearGradient id="paint90_linear_44_2" x1="750.583" y1="148.193" x2="784.671" y2="148.193" gradientUnits="userSpaceOnUse">
<stop stop-color="#A9738F"/>
<stop offset="1" stop-color="#B5A6CC"/>
</linearGradient>
<radialGradient id="paint91_radial_44_2" cx="0" cy="0" r="1" gradientUnits="userSpaceOnUse" gradientTransform="translate(371.77 317.512) rotate(175.494) scale(20.6196)">
<stop offset="0.0108108" stop-color="#FDD9D4"/>
<stop offset="1" stop-color="#A69CC6"/>
</radialGradient>
<radialGradient id="paint92_radial_44_2" cx="0" cy="0" r="1" gradientUnits="userSpaceOnUse" gradientTransform="translate(526.748 336.886) rotate(177.87) scale(171.301)">
<stop offset="0.0108108" stop-color="#FDD9D4"/>
<stop offset="1" stop-color="#A69CC6"/>
</radialGradient>
<radialGradient id="paint93_radial_44_2" cx="0" cy="0" r="1" gradientUnits="userSpaceOnUse" gradientTransform="translate(541.551 332.068) rotate(177.551) scale(66.8205)">
<stop offset="0.0108108" stop-color="#FDD9D4"/>
<stop offset="1" stop-color="#A69CC6"/>
</radialGradient>
<radialGradient id="paint94_radial_44_2" cx="0" cy="0" r="1" gradientUnits="userSpaceOnUse" gradientTransform="translate(414.343 358.55) rotate(180) scale(34.2874)">
<stop offset="0.0223464" stop-color="#523E63"/>
<stop offset="0.9944" stop-color="#3E1B40"/>
</radialGradient>
<radialGradient id="paint95_radial_44_2" cx="0" cy="0" r="1" gradientUnits="userSpaceOnUse" gradientTransform="translate(452.289 350) rotate(177.551) scale(45.7501)">
<stop offset="0.0108108" stop-color="#FDD9D4"/>
<stop offset="1" stop-color="#A69CC6"/>
</radialGradient>
<linearGradient id="paint96_linear_44_2" x1="453.782" y1="392.91" x2="451.64" y2="342.833" gradientUnits="userSpaceOnUse">
<stop stop-color="#866B8F"/>
<stop offset="1" stop-color="#F9F5FA"/>
</linearGradient>
<radialGradient id="paint97_radial_44_2" cx="0" cy="0" r="1" gradientUnits="userSpaceOnUse" gradientTransform="translate(465.547 344.029) rotate(177.551) scale(32.3769 29.6681)">
<stop offset="0.0223464" stop-color="#523E63"/>
<stop offset="0.9944" stop-color="#3E1B40"/>
</radialGradient>
<radialGradient id="paint98_radial_44_2" cx="0" cy="0" r="1" gradientUnits="userSpaceOnUse" gradientTransform="translate(462.696 346.736) rotate(177.551) scale(25.981)">
<stop offset="0.0223464" stop-color="#524698"/>
<stop offset="0.9944" stop-color="#4F2F75"/>
</radialGradient>
<radialGradient id="paint99_radial_44_2" cx="0" cy="0" r="1" gradientUnits="userSpaceOnUse" gradientTransform="translate(463.298 348.548) rotate(177.551) scale(21.2729)">
<stop offset="0.0223464" stop-color="#482F63"/>
<stop offset="0.9944" stop-color="#241427"/>
</radialGradient>
<radialGradient id="paint100_radial_44_2" cx="0" cy="0" r="1" gradientUnits="userSpaceOnUse" gradientTransform="translate(578.024 359.546) rotate(177.551) scale(56.361)">
<stop offset="0.0223464" stop-color="#523E63"/>
<stop offset="0.9944" stop-color="#3E1B40"/>
</radialGradient>
<radialGradient id="paint101_radial_44_2" cx="0" cy="0" r="1" gradientUnits="userSpaceOnUse" gradientTransform="translate(578.029 376.688) rotate(177.551) scale(46.8219)">
<stop offset="0.0223464" stop-color="#6F5E7D"/>
<stop offset="0.9944" stop-color="#462548"/>
</radialGradient>
<radialGradient id="paint102_radial_44_2" cx="0" cy="0" r="1" gradientUnits="userSpaceOnUse" gradientTransform="translate(570.942 375.164) rotate(177.551) scale(45.3667)">
<stop offset="0.0223464" stop-color="#523E63"/>
<stop offset="0.9944" stop-color="#3E1B40"/>
</radialGradient>
<radialGradient id="paint103_radial_44_2" cx="0" cy="0" r="1" gradientUnits="userSpaceOnUse" gradientTransform="translate(436.093 315.126) rotate(174.73) scale(48.5453)">
<stop offset="0.0223464" stop-color="#523E63"/>
<stop offset="0.9944" stop-color="#3E1B40"/>
</radialGradient>
<linearGradient id="paint104_linear_44_2" x1="372.633" y1="385.597" x2="377.026" y2="336.185" gradientUnits="userSpaceOnUse">
<stop stop-color="#866B8F"/>
<stop offset="1" stop-color="#F9F5FA"/>
</linearGradient>
<linearGradient id="paint105_linear_44_2" x1="418.045" y1="365.312" x2="350.251" y2="371.565" gradientUnits="userSpaceOnUse">
<stop stop-color="#A9738F"/>
<stop offset="1" stop-color="#B5A6CC"/>
</linearGradient>
<linearGradient id="paint106_linear_44_2" x1="421.122" y1="339.208" x2="390.941" y2="340.746" gradientUnits="userSpaceOnUse">
<stop stop-color="#A9738F"/>
<stop offset="1" stop-color="#B5A6CC"/>
</linearGradient>
<radialGradient id="paint107_radial_44_2" cx="0" cy="0" r="1" gradientUnits="userSpaceOnUse" gradientTransform="translate(415.861 331.841) rotate(177.847) scale(17.3685)">
<stop offset="0.0108108" stop-color="#FDD9D4"/>
<stop offset="1" stop-color="#A69CC6"/>
</radialGradient>
<linearGradient id="paint108_linear_44_2" x1="337.823" y1="328.632" x2="309.167" y2="329.809" gradientUnits="userSpaceOnUse">
<stop stop-color="#A9738F"/>
<stop offset="1" stop-color="#B5A6CC"/>
</linearGradient>
<radialGradient id="paint109_radial_44_2" cx="0" cy="0" r="1" gradientUnits="userSpaceOnUse" gradientTransform="translate(331.136 327.955) rotate(174.73) scale(28.3929)">
<stop offset="0.0108108" stop-color="#FDD9D4"/>
<stop offset="1" stop-color="#A69CC6"/>
</radialGradient>
<linearGradient id="paint110_linear_44_2" x1="341.189" y1="320.898" x2="295.186" y2="322.628" gradientUnits="userSpaceOnUse">
<stop stop-color="#866B8F"/>
<stop offset="1" stop-color="#F9F5FA"/>
</linearGradient>
<linearGradient id="paint111_linear_44_2" x1="537.935" y1="349.669" x2="537.009" y2="328.014" gradientUnits="userSpaceOnUse">
<stop stop-color="#866B8F"/>
<stop offset="1" stop-color="#F9F5FA"/>
</linearGradient>
<linearGradient id="paint112_linear_44_2" x1="406.488" y1="337.844" x2="408.323" y2="326.346" gradientUnits="userSpaceOnUse">
<stop stop-color="#866B8F"/>
<stop offset="1" stop-color="#F9F5FA"/>
</linearGradient>
<radialGradient id="paint113_radial_44_2" cx="0" cy="0" r="1" gradientUnits="userSpaceOnUse" gradientTransform="translate(473.187 345.898) rotate(177.551) scale(13.1842)">
<stop stop-color="white"/>
<stop offset="1" stop-color="#604C6F"/>
</radialGradient>
<radialGradient id="paint114_radial_44_2" cx="0" cy="0" r="1" gradientUnits="userSpaceOnUse" gradientTransform="translate(557.105 336.737) rotate(177.551) scale(10.6007)">
<stop stop-color="white"/>
<stop offset="1" stop-color="#604C6F"/>
</radialGradient>
<radialGradient id="paint115_radial_44_2" cx="0" cy="0" r="1" gradientUnits="userSpaceOnUse" gradientTransform="translate(350.848 339.78) rotate(175.494) scale(21.889)">
<stop stop-color="white"/>
<stop offset="1" stop-color="#604C6F"/>
</radialGradient>
<radialGradient id="paint116_radial_44_2" cx="0" cy="0" r="1" gradientUnits="userSpaceOnUse" gradientTransform="translate(359.308 314.882) rotate(175.494) scale(9.24901)">
<stop stop-color="white"/>
<stop offset="1" stop-color="#604C6F"/>
</radialGradient>
<radialGradient id="paint117_radial_44_2" cx="0" cy="0" r="1" gradientUnits="userSpaceOnUse" gradientTransform="translate(379.91 372.679) rotate(179.65) scale(21.6674)">
<stop stop-color="white"/>
<stop offset="1" stop-color="#604C6F"/>
</radialGradient>
<radialGradient id="paint118_radial_44_2" cx="0" cy="0" r="1" gradientUnits="userSpaceOnUse" gradientTransform="translate(313.701 323.149) rotate(174.73) scale(10.1712)">
<stop stop-color="white"/>
<stop offset="1" stop-color="#604C6F"/>
</radialGradient>
<linearGradient id="paint119_linear_44_2" x1="507.171" y1="315.932" x2="419.787" y2="315.932" gradientUnits="userSpaceOnUse">
<stop stop-color="#4A3345"/>
<stop offset="1" stop-color="#31113B"/>
</linearGradient>
<radialGradient id="paint120_radial_44_2" cx="0" cy="0" r="1" gradientUnits="userSpaceOnUse" gradientTransform="translate(511.338 334.501) rotate(177.551) scale(24.5942)">
<stop stop-color="white"/>
<stop offset="1" stop-color="#604C6F"/>
</radialGradient>
<radialGradient id="paint121_radial_44_2" cx="0" cy="0" r="1" gradientUnits="userSpaceOnUse" gradientTransform="translate(330.11 339.135) rotate(175.494) scale(32.3762 29.6701)">
<stop offset="0.0223464" stop-color="#523E63"/>
<stop offset="0.9944" stop-color="#3E1B40"/>
</radialGradient>
<radialGradient id="paint122_radial_44_2" cx="0" cy="0" r="1" gradientUnits="userSpaceOnUse" gradientTransform="translate(327.36 341.939) rotate(175.494) scale(25.9805)">
<stop offset="0.0223464" stop-color="#524698"/>
<stop offset="0.9944" stop-color="#4F2F75"/>
</radialGradient>
<radialGradient id="paint123_radial_44_2" cx="0" cy="0" r="1" gradientUnits="userSpaceOnUse" gradientTransform="translate(328.026 343.728) rotate(175.494) scale(21.2724)">
<stop offset="0.0223464" stop-color="#482F63"/>
<stop offset="0.9944" stop-color="#241427"/>
</radialGradient>
<clipPath id="clip0_44_2">
<rect width="339.6" height="93" fill="white" transform="translate(243.4 300)"/>
</clipPath>
</defs>
</svg>
