<svg width="206" height="68" viewBox="0 0 206 68" fill="none" xmlns="http://www.w3.org/2000/svg">
<path d="M154.497 20.8124C154.497 20.8124 133.78 6.8244 109.363 2.54248C119.658 5.91347 147.72 21.402 147.993 21.6752C148.266 21.9485 153.824 21.8572 153.824 21.8572L154.497 20.8124Z" fill="#5CADCE"/>
<path d="M205.133 53.5402C205.133 53.5402 204.327 57.3994 198.84 59.4114C193.899 61.2227 187.216 61.2155 186.076 60.5641C184.937 59.9128 183.323 60.2772 183.323 60.2772C183.323 60.2772 158.752 57.0704 160.511 57.4412C162.978 57.9609 162.929 61.155 161.3 60.992C159.672 60.8291 54.2115 55.1579 49.1484 59.5424C45.5803 60.8324 47.0505 59.4009 47.0505 59.4009L19.2108 56.796C19.2108 56.796 10.4194 56.9587 5.37258 53.3772C0.325783 49.7955 0.000105638 48.4932 0.000105638 48.4932C0.000105638 48.4932 11.7223 52.7261 15.4666 53.2145C19.2108 53.7029 55.3533 52.7259 56.1675 52.5631C56.9816 52.4004 94.9148 50.4467 94.9148 50.4467C94.9148 50.4467 136.43 50.7724 136.593 49.7955C136.756 48.8186 165.735 53.5398 165.409 52.8888C165.084 52.2376 194.226 52.0747 194.226 52.0747L205.133 53.5402Z" fill="#222223"/>
<path d="M146.896 20.4513C146.429 20.1013 125.767 2.82385 90.8622 1.30625C55.9578 -0.211356 27.7071 9.94486 27.4737 10.5285C27.2401 11.1125 34.7931 18.2011 40.8223 19.9682C46.8522 21.7353 146.663 22.7863 146.663 22.7863L146.896 20.4513Z" fill="#222223"/>
<path d="M130.994 21.806C130.994 21.806 137.566 27.5499 130.191 21.806C113.5 8.80698 81.7246 6.23918 58.1336 12.1771C57.9732 17.9546 58.2941 18.5965 58.2941 18.5965L55.0846 18.757L54.7635 12.6586C54.7635 12.6586 44.8139 14.7449 41.1226 16.5101C37.4312 18.2754 39.8388 20.2012 39.8388 20.2012L117.192 25.3366L130.994 21.806Z" fill="#5CADCE"/>
<path d="M192.696 57.2234L188.726 55.4277L157.725 54.1046L153.378 56.5622C153.378 56.5622 151.298 54.105 150.637 52.9708C149.975 51.8365 159.427 28.3022 159.71 28.3022C159.994 28.3022 183.15 30.2869 183.15 30.2869C183.15 30.2869 197.175 38.3112 196.968 38.4105C196.76 38.5098 198.84 48.9064 198.65 49.6624C198.461 50.4188 192.696 57.2234 192.696 57.2234Z" fill="black"/>
<path d="M55.177 55.9947C54.8939 55.9 51.2073 54.7657 50.5459 54.6716C49.8844 54.5768 19.734 53.3484 19.8288 53.3484C19.9229 53.3484 15.9537 54.9553 15.9537 54.9553C15.9537 54.9553 13.5909 52.5924 13.5909 52.3088C13.5909 52.0251 18.5998 32.5554 18.5998 32.5554L42.3236 29.6255C42.3236 29.6255 55.4606 34.54 55.8388 35.0126C56.2171 35.4852 60.8481 46.3545 60.8481 46.3545L55.177 55.9947Z" fill="black"/>
<path d="M87.3502 2.04023C87.3502 2.04023 90.1957 15.7092 93.5151 19.583C91.2912 19.7237 85.3981 19.0696 85.3981 19.0696L82.2655 1.94629C82.2655 1.94609 86.1824 1.95844 87.3502 2.04023Z" fill="#2E2E2F"/>
<path d="M2.09105 37.1451C3.66468 35.0773 4.42069 30.6347 4.11931 28.7187C3.81794 26.8033 4.38753 24.342 4.38753 24.342C4.38753 24.342 5.24966 20.2758 6.05079 19.467C6.85275 18.6577 5.69521 18.4492 4.54635 17.8289C3.39708 17.2083 4.38158 16.5898 5.13121 16.5662C5.88043 16.5425 7.27505 16.4403 7.27505 16.4403C9.40447 16.2872 14.6686 13.8715 30.3306 8.4584C45.9915 3.04678 62.6969 -1.28334 93.4026 0.348795C124.109 1.98135 143.151 17.6056 147.458 19.9083C151.765 22.2116 154.497 20.8122 154.497 20.8122C154.497 20.8122 154.497 20.8122 156.331 20.9428C160.103 20.8194 161.452 21.0376 169.926 22.7408C181.419 23.2439 190.347 26.5024 194.448 29.4784C200.705 30.8508 205.18 34.51 205.18 34.51C206.328 35.6284 205.834 35.4353 205.989 36.294C206.145 37.1528 204.533 43.3258 204.533 43.3258C204.533 43.3258 205.83 47.2008 204.925 47.569C204.02 47.9367 203.754 48.4024 202.992 50.3133C207.694 52.8391 204.972 54.2429 202.897 55.445C200.821 56.6466 195.361 58.0863 192.591 57.521C194.325 51.6496 193.12 45.1254 191.97 42.5796C190.819 40.0347 187.515 31.2886 174.038 31.3811C155.369 32.3188 154.152 51.8035 154.238 54.0722C154.207 55.741 153.832 56.435 153.832 56.435C153.832 56.435 153.28 56.8602 151.979 56.6183C148.728 55.7958 66.8964 55.0406 66.8964 55.0406C66.8964 55.0406 59.604 55.0146 56.8642 56.052C54.1236 57.0899 54.343 54.7779 54.1281 52.2276C53.9132 49.6767 51.8454 31.9622 35.1433 31.9148C16.8153 32.7359 16.7084 50.6349 16.868 52.0983C17.0283 53.5621 17.5917 55.5195 13.5269 54.5831C9.46215 53.6464 6.53159 52.1314 6.53159 52.1314C6.53159 52.1314 3.90014 48.5996 3.32479 47.316C2.74943 46.032 3.0953 45.5512 3.0953 45.5512C3.0953 45.5512 2.3947 42.9544 1.53486 40.841C0.675839 38.7291 0.794279 38.3941 2.09105 37.1451ZM32.3908 11.432C32.7331 11.9058 36.4601 15.8919 46.9708 16.6133C57.4816 17.3343 98.9473 19.8564 98.9473 19.8564C98.9473 19.8564 113.055 20.3116 125.88 20.5547L136.956 20.7714C140.008 20.8242 141.764 20.8629 142.839 20.7873C142.839 20.7873 122.426 5.44112 100.54 3.33971C81.4579 1.34934 65.2138 0.755647 38.6309 9.15015C32.5119 11.2003 32.049 10.9576 32.3908 11.432Z" fill="#E0E0E0"/>
<path d="M183.639 25.9697C183.639 25.9697 189.969 30.1206 193.43 32.1419C196.893 34.1638 196.893 34.1638 196.893 34.1638C196.893 34.1638 199.794 34.3949 199.617 34.3918C199.439 34.3881 197.053 31.9124 193.477 29.6511C189.9 27.3905 185.355 26.1796 183.639 25.9697Z" fill="#2EE5D9"/>
<path d="M204.242 43.8038C204.257 43.6883 199.609 43.9126 199.063 43.9416C198.518 43.9699 198.248 43.8096 198.506 44.5926C198.764 45.376 198.823 46.3887 198.823 46.3887C198.823 46.3887 200.339 46.4944 201.552 46.1279C201.552 46.1279 202.394 45.6723 203.019 45.5575C203.642 45.443 204.135 44.6406 204.242 43.8038Z" fill="#2EE5D9"/>
<path d="M136.997 20.562C136.997 20.562 135.815 18.0844 134.607 17.01C133.399 15.9348 132.883 15.399 130.889 15.7132C128.895 16.0267 127.908 15.6578 127.634 17.8164C127.36 19.9745 126.71 20.3715 127.461 20.8531C128.212 21.3347 128.558 21.5751 128.374 22.0979C128.188 22.6206 132.939 21.8322 133.459 22.134C133.98 22.4358 134.029 22.9629 133.719 23.8928C136.761 23.8318 139.923 23.5399 139.923 23.5399C139.923 23.5399 135.857 22.1198 136.622 21.8421C137.388 21.563 136.997 20.562 136.997 20.562Z" fill="#D3D5D6"/>
<path d="M104.453 25.6301C104.289 25.5446 100.245 25.5522 99.1943 25.4744C98.1429 25.3961 97.796 25.2144 97.4491 24.9736C97.1026 24.7332 96.6889 24.9596 95.8126 24.9435C94.9363 24.9266 95.0969 25.6905 95.8513 25.9968C96.6061 26.3031 104.555 26.4502 104.555 26.4502C104.555 26.4502 105.38 26.1144 104.453 25.6301Z" fill="#797A7D"/>
<path d="M55.8977 23.9114C55.7339 23.8259 51.6895 23.8335 50.6385 23.7552C49.5875 23.6774 49.2401 23.4959 48.8932 23.2555C48.5467 23.0157 48.1335 23.2419 47.2568 23.225C46.38 23.2091 46.5411 23.9719 47.2959 24.2787C48.0501 24.585 55.999 24.7321 55.999 24.7321C55.999 24.7321 56.824 24.3967 55.8977 23.9114Z" fill="#797A7D"/>
<path d="M183.639 25.9699C183.306 25.9021 169.148 24.0221 147.928 23.8046C147.928 23.8046 139.624 23.8847 139.624 23.8847C139.624 23.8847 146.836 22.7905 158.76 22.953C170.063 23.1073 178.902 23.0171 185.318 25.3745C191.184 27.5293 193.375 29.2076 193.375 29.2076C193.375 29.2076 187.978 26.8522 183.639 25.9699Z" fill="white"/>
<path d="M143.741 48.6416C144.034 48.7022 117.924 47.8724 90.6576 47.0043C71.8049 46.3647 59.6468 44.6155 59.6468 44.6155C59.6468 44.6155 67.9088 41.2134 87.6906 42.6686C107.472 44.1236 134.922 46.8092 143.741 48.6416Z" fill="white"/>
<path d="M16.9102 20.4865C16.8838 20.4861 16.8045 20.485 16.6798 20.4828C15.0735 20.4587 5.97299 20.3299 5.84424 20.3276C5.70499 20.325 3.56237 23.4811 4.18593 27.337C6.49499 27.7035 7.944 26.9897 10.9891 25.1007C14.0352 23.212 16.8045 20.485 16.8045 20.485" fill="#2EE5D9"/>
<path d="M67.0619 22.6109C67.5934 22.7293 61.9587 21.9723 54.8941 21.4056C47.8302 20.8397 15.7416 19.8097 9.42725 19.9102C11.4024 19.263 13.208 18.9235 15.8431 17.5363C19.1181 15.8114 40.595 17.7668 43.0854 18.4659C45.5751 19.1651 58.6407 20.7433 67.0619 22.6109Z" fill="white"/>
<g opacity="0.3">
<path opacity="0.3" d="M145.253 21.4423C146.706 22.8188 147.64 25.1944 147.89 28.1759C148.315 33.2653 148.092 47.1826 146.656 53.6199L146.44 53.5721C147.847 47.262 148.082 33.1423 147.668 28.1946C147.414 25.1458 146.438 22.7461 144.922 21.4384C144.909 21.4275 144.899 21.4184 144.888 21.4087C144.713 21.3892 144.54 21.3651 144.378 21.3323L144.421 21.1152C146.3 21.493 149.322 20.9203 149.352 20.9146L149.394 21.1325C149.3 21.1502 147.625 21.4679 145.982 21.4679C145.737 21.4679 145.492 21.4588 145.253 21.4423Z" fill="white"/>
<path opacity="0.3" d="M5.85214 27.7891C5.85893 27.8364 6.50948 32.5398 6.93364 34.2822C7.3341 35.9281 7.8804 36.6156 12.0659 37.3061C16.0852 37.9698 20.4763 38.237 20.7457 38.1692L20.7857 38.2726L20.8452 38.3659C20.8133 38.3863 20.6827 38.396 20.472 38.396C19.2357 38.396 15.2369 38.0547 12.0296 37.5252C7.92427 36.8479 7.17239 36.2025 6.71816 34.3349C6.29112 32.5821 5.63851 27.8671 5.63253 27.82L5.85214 27.7891Z" fill="#B6B8BA"/>
<path opacity="0.3" d="M29.2128 11.333C29.486 11.7802 32.0431 15.461 42.7856 16.9828C42.9079 16.7051 43.0068 16.4624 43.0764 16.2904C43.1314 16.1546 43.1702 16.0609 43.1897 16.0236L43.3859 16.1266C43.3681 16.1612 43.3331 16.2482 43.282 16.3736C43.2161 16.5351 43.1255 16.7588 43.0134 17.0141C43.8537 17.1296 44.7413 17.2324 45.6825 17.3188C53.4788 18.0358 72.952 19.2976 89.7841 20.3099C89.7204 20.0367 89.6636 19.801 89.6166 19.6107L89.5976 19.5324L89.8137 19.4828L89.8321 19.558C89.8827 19.7638 89.9447 20.0209 90.0154 20.3241C102.932 21.1001 114.251 21.7274 117.473 21.8444C125.139 22.1239 128.001 22.0419 128.017 22.0411L128.025 22.114L128.027 22.0403L128.096 22.0421L128.157 22.155L128.123 22.21C128.113 22.2269 128.104 22.2413 128.022 22.2529L128.022 22.2619L128.022 22.2529C127.903 22.2687 127.628 22.278 126.965 22.278C126.623 22.278 126.176 22.2757 125.594 22.2708C124.065 22.2568 121.413 22.2106 117.464 22.0668C114.247 21.9494 102.959 21.3244 90.0671 20.5496C90.7659 23.5912 92.191 30.6447 92.5004 38.731C92.8415 47.6438 92.3924 51.5965 92.2703 52.4733C99.2034 52.6076 105.101 52.7168 105.228 52.7194L154.263 53.8036L154.258 54.0257L105.223 52.9409C104.948 52.9353 77.5625 52.4273 71.2655 52.2531C64.8016 52.0736 64.093 51.7045 58.6198 45.6693C53.0779 39.5575 42.0493 24.6987 40.6774 22.7574C39.4074 20.9625 39.6678 20.643 40.6805 19.9038C40.7942 19.8206 40.9171 19.7308 41.0473 19.6307C41.7292 19.105 42.306 18.0334 42.6906 17.1929C31.8987 15.6471 29.3014 11.9036 29.0237 11.4486L29.1111 11.3794L29.2128 11.333ZM41.1827 19.8062C41.0506 19.9082 40.9264 19.9992 40.8109 20.0835C39.8991 20.7484 39.6542 20.9275 40.8582 22.6298C42.2294 24.5693 53.2483 39.4156 58.7844 45.5208C64.1974 51.4896 64.8974 51.8551 71.2717 52.0318C74.6324 52.1247 83.9998 52.3126 92.0466 52.4687C92.1601 51.6754 92.6238 47.7567 92.2787 38.7397C91.9677 30.6134 90.5281 23.5334 89.8368 20.5354C72.9864 19.5221 53.4704 18.2577 45.6621 17.54C44.6939 17.4508 43.7822 17.3447 42.9197 17.225C42.526 18.0948 41.9183 19.2399 41.1827 19.8062Z" fill="white"/>
<path opacity="0.3" d="M114.549 5.47408C98.3113 0.660478 82.1047 1.21173 73.3985 1.50776L72.2799 1.54525C72.0974 1.55246 53.7288 2.36183 31.4041 10.1787C31.2958 10.2277 31.1874 10.2766 31.0791 10.3254L30.9635 10.4865C30.9344 10.4651 30.9089 10.4387 30.8807 10.4148C18.8115 15.8563 8.11521 20.5356 8.00685 20.5834L7.91806 20.3798C8.02641 20.3325 18.6746 15.6742 30.7186 10.2453C30.4405 9.89999 30.2847 9.41672 30.1751 9.07085C30.1329 8.9388 30.0804 8.774 30.0536 8.74228L30.1346 8.66605L30.2143 8.58901C30.2722 8.64895 30.3107 8.76576 30.3863 9.00369C30.4955 9.34894 30.6539 9.84005 30.9274 10.1507C31.0591 10.092 31.1901 10.0327 31.3217 9.97312C53.6882 2.141 72.0879 1.33101 72.2719 1.3238L73.3911 1.28631C82.1096 0.989464 98.3397 0.437585 114.612 5.26169C131.435 10.2496 144.337 20.7815 144.466 20.8872L144.325 21.0584C144.197 20.9525 131.33 10.4492 114.549 5.47408Z" fill="white"/>
<path opacity="0.3" d="M195.152 33.3423L195.135 33.5639C195.087 33.5598 190.272 33.1962 188.953 33.3919C187.63 33.5872 185.227 34.2631 185.203 34.2699L185.143 34.0565C185.167 34.0497 187.583 33.3701 188.921 33.1725C190.264 32.9731 194.953 33.3274 195.152 33.3423Z" fill="white"/>
</g>
<path d="M145.265 21.3273C146.718 22.7034 147.653 25.0794 147.902 28.0612C148.327 33.1496 148.105 47.0672 146.668 53.5049L146.452 53.4571C147.859 47.1465 148.094 33.0279 147.681 28.08C147.426 25.0301 146.451 22.6309 144.935 21.3232C144.921 21.3118 144.911 21.3032 144.901 21.2935C144.725 21.2739 144.552 21.2498 144.39 21.2171L144.433 20.9995C146.312 21.3773 149.334 20.8051 149.364 20.7993L149.406 21.0168C149.313 21.035 147.638 21.3524 145.995 21.3524C145.749 21.3524 145.504 21.3438 145.265 21.3273Z" fill="#B6B8BA"/>
<path d="M5.8637 27.6743C5.8705 27.7213 6.52145 32.4251 6.9456 34.167C7.34607 35.8134 7.89198 36.5008 12.0779 37.1913C16.0972 37.8544 20.4879 38.1226 20.7577 38.0542L20.7973 38.157L20.8574 38.2504C20.8251 38.2708 20.6949 38.2813 20.4837 38.2813C19.2475 38.2813 15.2486 37.9395 12.0418 37.4097C7.93647 36.7328 7.18458 36.0874 6.73035 34.2198C6.30331 32.4663 5.65112 27.752 5.64432 27.7048L5.8637 27.6743Z" fill="#A9ABAE"/>
<path d="M29.2243 11.2183C29.4978 11.6655 32.0547 15.3465 42.797 16.8682C42.9194 16.5903 43.0183 16.3479 43.0883 16.1759C43.1433 16.0401 43.1816 15.9464 43.2016 15.9091L43.3977 16.0119C43.3796 16.0465 43.3443 16.1334 43.2939 16.2591C43.2284 16.4206 43.1369 16.6441 43.0253 16.8993C43.8651 17.0149 44.7526 17.1179 45.694 17.2042C53.4909 17.9213 72.9636 19.1831 89.7957 20.1953C89.7321 19.9222 89.6752 19.6865 89.6282 19.4962L89.6093 19.4175L89.8254 19.3682L89.8435 19.4428C89.8942 19.649 89.9562 19.9057 90.0268 20.2093C102.944 20.9853 114.262 21.6126 117.484 21.7296C125.151 22.0092 128.012 21.9272 128.029 21.9263L128.037 21.9993L128.038 21.9251L128.107 21.927L128.169 22.0403L128.135 22.0949C128.124 22.1122 128.115 22.1268 128.034 22.1377L128.033 22.1472L128.034 22.1377C127.915 22.1542 127.64 22.1633 126.977 22.1633C126.634 22.1633 126.188 22.161 125.606 22.156C124.077 22.142 121.424 22.0955 117.476 21.9517C114.259 21.8347 102.971 21.2093 90.0788 20.4351C90.7775 23.4761 92.2022 30.5301 92.5116 38.6161C92.8527 47.5293 92.4037 51.4824 92.2815 52.3587C99.2146 52.4931 105.112 52.6022 105.239 52.6045L154.274 53.6893L154.269 53.911L105.235 52.8262C104.959 52.8212 77.5743 52.3132 71.2769 52.1389C64.8139 51.9595 64.1042 51.5904 58.632 45.5552C53.0892 39.4427 42.061 24.5842 40.6886 22.6428C39.419 20.8486 39.679 20.529 40.6919 19.7897C40.8056 19.7065 40.9286 19.6167 41.0592 19.5161C41.741 18.9908 42.3178 17.9194 42.7024 17.0788C31.9105 15.5329 29.3137 11.7895 29.0352 11.3344L29.1225 11.2652L29.2243 11.2183ZM41.1951 19.6917C41.0627 19.7936 40.9378 19.8847 40.8227 19.9683C39.9109 20.6339 39.666 20.8127 40.8701 22.5147C42.2406 24.4546 53.2606 39.3004 58.7962 45.4056C64.2089 51.3749 64.9092 51.7399 71.2833 51.9171C74.644 52.01 84.0114 52.1979 92.0586 52.354C92.1721 51.5607 92.6354 47.6415 92.2904 38.6249C91.9793 30.498 90.5398 23.4182 89.8484 20.4207C72.9983 19.4074 53.4818 18.143 45.6742 17.4253C44.706 17.3361 43.7938 17.2298 42.9317 17.1101C42.5374 17.9802 41.9301 19.1254 41.1951 19.6917Z" fill="#B6B8BA"/>
<path d="M114.56 5.35922C98.3225 0.545618 82.1163 1.09688 73.4099 1.3927L72.2915 1.43039C72.1086 1.43719 53.7396 2.24677 31.4156 10.0636C31.3068 10.1125 31.1984 10.1617 31.0905 10.2103L30.9749 10.3712C30.9459 10.3502 30.9199 10.3238 30.8925 10.2997C18.8228 15.7412 8.12644 20.4205 8.01829 20.4679L7.9295 20.265C8.03745 20.2176 18.6856 15.5593 30.7302 10.1304C30.4525 9.78513 30.296 9.30186 30.1862 8.95578C30.1443 8.82353 30.092 8.65914 30.065 8.62742L30.1456 8.55099L30.2253 8.47374C30.2832 8.53369 30.3219 8.65049 30.3977 8.88863C30.5069 9.23388 30.6649 9.72498 30.9389 10.0356C31.0705 9.97651 31.2015 9.91739 31.3332 9.85806C53.6996 2.02573 72.0993 1.21595 72.2833 1.20874L73.4023 1.17104C82.1212 0.874189 98.3514 0.322523 114.623 5.14663C131.447 10.1345 144.349 20.6665 144.477 20.7721L144.336 20.9433C144.208 20.8377 131.341 10.3339 114.56 5.35922Z" fill="#B6B8BA"/>
<path d="M195.164 33.2272L195.147 33.4484C195.098 33.4447 190.284 33.0811 188.965 33.2768C187.641 33.4717 185.238 34.148 185.214 34.1548L185.154 33.9408C185.179 33.9344 187.595 33.2544 188.932 33.0572C190.276 32.858 194.964 33.2121 195.164 33.2272Z" fill="#A3A5A8"/>
<path d="M174.055 67.1031C164.331 66.9232 156.593 58.9593 156.771 49.3153C156.95 39.6713 164.978 31.9992 174.702 32.1791C184.426 32.359 192.164 40.3229 191.985 49.9669C191.807 59.6109 183.779 67.283 174.055 67.1031Z" fill="#222223"/>
<path d="M161.153 49.3982C161.287 42.1575 167.315 36.3971 174.616 36.5326C181.916 36.6682 187.726 42.6473 187.592 49.888C187.458 57.1291 181.43 62.8895 174.129 62.7542C166.829 62.6186 161.019 56.6388 161.153 49.3982Z" fill="url(#paint0_linear_101_51)"/>
<path d="M177.94 49.0158C177.671 48.8751 177.486 47.8873 178.106 47.3894C178.727 46.8915 181.817 45.0134 182.669 44.8591C183.521 44.7056 184.608 44.6579 184.543 44.4869C184.489 44.3435 184.519 43.5082 184.47 43.2029C184.739 43.8252 186.289 46.955 186.471 48.529C186.512 48.8813 182.388 48.9968 180.894 49.037C179.399 49.0772 178.209 49.1569 177.94 49.0158ZM184.433 43.0925C184.449 43.1038 184.461 43.1444 184.47 43.2027C184.437 43.1256 184.422 43.0846 184.433 43.0925ZM171.089 48.6512L171.086 48.7867C170.201 48.9064 169.778 49.7131 168.114 49.7504C166.45 49.7877 162.874 48.4991 162.874 48.4991C162.874 48.4991 162.874 48.4991 162.25 49.2006C162.17 48.0445 163.397 44.1289 163.499 44.1303C163.6 44.1321 164.709 44.7639 166.156 45.4699C167.603 46.1759 170.751 48.5428 171.089 48.6512ZM174.053 46.2274C173.214 45.7371 172.715 45.1504 172.441 43.4818C172.166 41.8126 171.874 39.2607 171.874 39.2607C171.874 39.2607 171.989 38.5502 171.685 38.4422C171.381 38.3349 170.701 38.3899 170.599 38.388C170.498 38.3862 173.575 37.2204 176.717 38.0945C177.044 38.1851 174.92 45.2594 174.811 45.6302C174.703 46.0024 174.893 46.7185 174.053 46.2274ZM176.921 52.7318C177.297 52.6031 178.068 53.0927 179.004 53.9248C179.939 54.7568 182.428 57.859 182.428 57.859C181.87 58.6974 179.089 60.3437 179.089 60.3437C179.089 60.3437 176.662 53.8473 176.401 53.2998C176.139 52.752 176.545 52.8608 176.921 52.7318ZM170.108 50.2289C170.997 49.8721 172.674 49.2239 172.476 48.8807C172.279 48.5375 172.049 48.0919 171.274 47.7718C170.499 47.4523 170.106 46.6975 169.807 46.3524C169.508 46.0074 165.068 41.8853 165.068 41.8853C165.068 41.8853 167.692 39.5227 168.717 39.2021C170.122 42.1484 172.258 46.0243 172.992 46.7175C173.726 47.4098 174.723 48.5486 174.976 47.7388C175.229 46.9286 175.735 45.274 176.739 44.2399C177.742 43.2062 178.997 39.6306 178.997 39.6306L178.037 38.3221C178.037 38.3221 181.639 39.9847 183.004 41.4362C181.037 43.1654 177.276 46.3887 176.773 47.9075C176.269 49.4259 175.889 49.7588 176.636 49.7724C177.383 49.786 179.282 49.923 179.282 49.923C179.282 49.923 180.963 50.8033 182.965 50.8407C184.968 50.8776 186.321 51.1745 186.319 51.2758C186.317 51.3774 184.967 54.6124 184.684 55.2514C181.897 53.5367 179.07 52.1944 178.531 51.9464C177.992 51.6987 176.879 51.3391 175.994 51.4579C175.109 51.5772 174.668 51.5012 174.83 51.9459C174.904 52.1503 175.706 54.1691 175.618 55.2543C175.53 56.3391 176.138 60.1868 176.203 60.3238C176.268 60.4612 176.458 61.2456 176.458 61.2456L172.347 61.3397C172.347 61.3397 173.82 55.1534 173.595 54.4701C173.37 53.7863 173.01 51.2336 172.704 51.2614C172.398 51.2896 170.71 52.5829 170.505 52.6811C170.299 52.7786 169.49 52.4923 168.665 53.0198C167.84 53.5478 164.311 55.2821 164.037 55.4127C163.763 55.5433 162.323 52.6307 162.202 51.8141C163.972 51.5416 169.219 50.5861 170.108 50.2289ZM171.97 52.6181C172.07 52.6505 172.943 53.4561 172.329 54.8112C171.715 56.1667 169.184 60.0304 169.184 60.0304C169.184 60.0304 167.013 59.1702 165.459 57.9434C167.316 56.4423 170.503 53.5163 171.035 53.1475C171.035 53.1475 171.761 52.5508 171.97 52.6181Z" fill="#414042"/>
<path d="M175.07 49.2221L173.546 49.1938C173.546 49.1938 173.304 49.5702 173.576 49.5758C173.848 49.5807 173.992 49.6376 173.992 49.6376L173.97 50.7984C173.97 50.7984 174.452 51.2604 174.462 50.6805C174.473 50.1002 174.463 49.6646 174.463 49.6646L175.008 49.6021C175.008 49.6021 175.43 49.3376 175.07 49.2221Z" fill="#B1B3B6"/>
<path d="M17.5492 49.3175C17.7276 39.673 25.7556 32.0007 35.4798 32.1813C45.2043 32.3612 52.9429 40.3253 52.7641 49.9701C52.5857 59.6146 44.557 67.2862 34.8326 67.1064C25.109 66.9257 17.3704 58.9618 17.5492 49.3175Z" fill="#222223"/>
<path d="M21.9368 49.3986C22.0715 42.1579 28.0986 36.3976 35.3997 36.5331C42.7003 36.6687 48.51 42.6478 48.3756 49.8885C48.2413 57.1296 42.2144 62.89 34.9135 62.7546C27.6129 62.6191 21.8029 56.6393 21.9368 49.3986Z" fill="url(#paint1_linear_101_51)"/>
<path d="M38.7245 49.0158C38.4554 48.8751 38.2698 47.8873 38.8907 47.3894C39.5112 46.8915 42.6018 45.0134 43.4534 44.8591C44.305 44.7056 45.3925 44.6579 45.3274 44.4869C45.2736 44.3435 45.3033 43.5082 45.2551 43.2029C45.5237 43.8252 47.0737 46.955 47.2556 48.529C47.2965 48.8813 43.1726 48.9968 41.6781 49.037C40.1834 49.0772 38.9935 49.1569 38.7245 49.0158ZM45.2172 43.0925C45.2331 43.1038 45.2454 43.1444 45.2549 43.2027C45.2213 43.1256 45.2063 43.0846 45.2172 43.0925ZM31.8727 48.6512L31.8704 48.7867C30.9851 48.9064 30.5628 49.7131 28.8985 49.7504C27.2338 49.7877 23.6585 48.4991 23.6585 48.4991C23.6585 48.4991 23.6585 48.4991 23.0345 49.2006C22.9543 48.0445 24.1815 44.1289 24.2831 44.1303C24.385 44.1321 25.4933 44.7639 26.9405 45.4699C28.3874 46.1759 31.5353 48.5428 31.8727 48.6512ZM34.8373 46.2274C33.9978 45.7371 33.4999 45.1504 33.2249 43.4818C32.9499 41.8126 32.6578 39.2607 32.6578 39.2607C32.6578 39.2607 32.7729 38.5502 32.4693 38.4422C32.1657 38.3349 31.4856 38.3899 31.3837 38.388C31.2817 38.3862 34.3598 37.2204 37.5004 38.0945C37.8282 38.1851 35.7043 45.2594 35.5955 45.6302C35.4868 46.0024 35.6775 46.7185 34.8373 46.2274ZM37.705 52.7318C38.0809 52.6031 38.853 53.0927 39.7879 53.9248C40.7229 54.7568 43.2126 57.859 43.2126 57.859C42.6541 58.6974 39.8725 60.3437 39.8725 60.3437C39.8725 60.3437 37.4469 53.8473 37.185 53.2998C36.9234 52.752 37.329 52.8608 37.705 52.7318ZM30.8926 50.2289C31.7821 49.8721 33.4579 49.2239 33.2609 48.8807C33.063 48.5375 32.8335 48.0919 32.0583 47.7718C31.2836 47.4523 30.8903 46.6975 30.5912 46.3524C30.2921 46.0074 25.8524 41.8853 25.8524 41.8853C25.8524 41.8853 28.4766 39.5227 29.501 39.2021C30.9066 42.1484 33.042 46.0243 33.7762 46.7175C34.5099 47.4098 35.5076 48.5486 35.7603 47.7388C36.0129 46.9286 36.5193 45.274 37.5229 44.2399C38.5269 43.2062 39.7815 39.6306 39.7815 39.6306L38.8207 38.3221C38.8207 38.3221 42.4234 39.9847 43.7886 41.4362C41.8209 43.1654 38.0605 46.3887 37.5567 47.9075C37.0536 49.4259 36.6735 49.7588 37.4205 49.7724C38.167 49.786 40.0659 49.923 40.0659 49.923C40.0659 49.923 41.7473 50.8033 43.7492 50.8407C45.7526 50.8776 47.1048 51.1745 47.1031 51.2758C47.1013 51.3774 45.7511 54.6124 45.4681 55.2514C42.6815 53.5367 39.8538 52.1944 39.3153 51.9464C38.7768 51.6987 37.6626 51.3391 36.7782 51.4579C35.8928 51.5772 35.4528 51.5012 35.6143 51.9459C35.6885 52.1503 36.4896 54.1691 36.4022 55.2543C36.3139 56.3391 36.9216 60.1868 36.9871 60.3238C37.0526 60.4612 37.2415 61.2456 37.2415 61.2456L33.1316 61.3397C33.1316 61.3397 34.6041 55.1534 34.3793 54.4701C34.1544 53.7863 33.7939 51.2336 33.4876 51.2614C33.1816 51.2896 31.4939 52.5829 31.2891 52.6811C31.0833 52.7786 30.2735 52.4923 29.4487 53.0198C28.6243 53.5478 25.0949 55.2821 24.8203 55.4127C24.5467 55.5433 23.1066 52.6307 22.9859 51.8141C24.7562 51.5416 30.0037 50.5861 30.8926 50.2289ZM32.7544 52.6181C32.8541 52.6505 33.7267 53.4561 33.113 54.8112C32.499 56.1667 29.9676 60.0304 29.9676 60.0304C29.9676 60.0304 27.7972 59.1702 26.2434 57.9434C28.1 56.4423 31.2873 53.5163 31.8198 53.1475C31.8198 53.1475 32.5449 52.5508 32.7544 52.6181Z" fill="#414042"/>
<path d="M35.8536 49.2221L34.33 49.1938C34.33 49.1938 34.0874 49.5702 34.3597 49.5758C34.6314 49.5807 34.7758 49.6376 34.7758 49.6376L34.754 50.7984C34.754 50.7984 35.2352 51.2604 35.2461 50.6805C35.257 50.1002 35.2469 49.6646 35.2469 49.6646L35.7922 49.6021C35.7922 49.6021 36.2145 49.3376 35.8536 49.2221Z" fill="#B1B3B6"/>
<path d="M127.843 19.0488C128.159 19.0488 134.412 20.1225 134.412 20.1225C134.412 20.1225 128.412 20.312 128.159 20.312C127.906 20.3122 127.843 19.0488 127.843 19.0488Z" fill="white"/>
<path d="M128.033 21.2597C127.93 21.0203 134.602 21.0069 134.791 21.1964C134.981 21.3859 134.791 22.7124 134.791 22.7124C134.791 22.7124 135.107 21.3859 133.338 21.3859C131.57 21.3859 128.222 21.7019 128.033 21.2597Z" fill="white"/>
<path d="M129.233 16.3326C128.973 16.4438 134.539 19.4276 134.539 19.4276L132.77 16.2694C132.77 16.2694 130.559 15.7643 129.233 16.3326Z" fill="white"/>
<defs>
<linearGradient id="paint0_linear_101_51" x1="183.485" y1="45.1583" x2="160.304" y2="56.5675" gradientUnits="userSpaceOnUse">
<stop stop-color="white"/>
<stop offset="0.4391" stop-color="#C4C4C4"/>
<stop offset="1" stop-color="#F8F8F8"/>
</linearGradient>
<linearGradient id="paint1_linear_101_51" x1="156.337" y1="-9.99981" x2="133.156" y2="1.40942" gradientUnits="userSpaceOnUse">
<stop stop-color="white"/>
<stop offset="0.4391" stop-color="#C4C4C4"/>
<stop offset="1" stop-color="#F8F8F8"/>
</linearGradient>
</defs>
</svg>
